<?xml version="1.0" encoding="utf-8"?>
<!-- Generator: Adobe Illustrator 18.0.0, SVG Export Plug-In . SVG Version: 6.00 Build 0)  -->
<!DOCTYPE svg PUBLIC "-//W3C//DTD SVG 1.0//EN" "http://www.w3.org/TR/2001/REC-SVG-20010904/DTD/svg10.dtd">
<svg version="1.0" id="Layer_1" xmlns="http://www.w3.org/2000/svg" xmlns:xlink="http://www.w3.org/1999/xlink" x="0px" y="0px"
	 viewBox="0 632.78 2048 927.09" style="enable-background:new 0 632.78 2048 927.09;" xml:space="preserve">
<polyline style="fill:#FFFFFF;" points="2055.38,1502.01 -315.37,1571.39 -315.37,453.73 2055.38,453.73 2055.38,1502.01 "/>
<g>
	
		<linearGradient id="SVGID_1_" gradientUnits="userSpaceOnUse" x1="0" y1="2048" x2="1" y2="2048" gradientTransform="matrix(439.1499 0 0 -439.1499 1246.9861 900820.625)">
		<stop  offset="0" style="stop-color:#2AC0E5"/>
		<stop  offset="0.1633" style="stop-color:#2AC0E5"/>
		<stop  offset="1" style="stop-color:#1094DF"/>
	</linearGradient>
	<path style="fill:url(#SVGID_1_);" d="M1608.08,1421.12c-10.9,11.39-21.76,22.69-32.61,33.86l22.56,6.99L1608.08,1421.12"/>
	
		<linearGradient id="SVGID_2_" gradientUnits="userSpaceOnUse" x1="0" y1="2048" x2="1" y2="2048" gradientTransform="matrix(2058.22 0 0 -2058.22 23.1967 4216561)">
		<stop  offset="0" style="stop-color:#2A8FE5"/>
		<stop  offset="1" style="stop-color:#0578AB"/>
	</linearGradient>
	<polygon style="fill:url(#SVGID_2_);" points="2081.2,1385.18 2081.2,1387.92 969.92,1387.92 928.34,1059.95 911.77,1041.8 
		893.64,1041.8 893.64,1059.95 886.02,1059.95 879.12,1299.29 848.9,1299.29 841.94,1060.44 825.37,1042.29 806.64,1042.29 
		806.64,1060.81 798.66,1060.88 758.9,1311.27 719.4,1311.27 719.4,1241.67 702.83,1223.52 678.24,1223.52 674.52,1241.56 
		625.22,1241.46 625.28,1311.27 591.45,1311.27 558.81,1135.06 538.92,1120.22 515.04,1120.22 515.04,1138.37 506.7,1138.37 
		457.35,1387.92 68.68,1387.92 68.68,1387.84 24.85,1387.84 23.2,1387.92 23.2,1419.43 23.2,1422.86 23.2,1611.03 2081.42,1611.03 
		2081.42,1386.9 	"/>
	
		<linearGradient id="SVGID_3_" gradientUnits="userSpaceOnUse" x1="0" y1="2048" x2="1" y2="2048" gradientTransform="matrix(2058.22 0 0 -2058.22 0 4216552)">
		<stop  offset="0" style="stop-color:#2AC1E5"/>
		<stop  offset="1" style="stop-color:#0581DD"/>
	</linearGradient>
	<polygon style="fill:url(#SVGID_3_);" points="2058,1367.03 2058,1369.77 953.35,1369.77 911.77,1041.8 862.82,1041.8 
		855.92,1281.14 832.33,1281.14 825.37,1042.29 775.46,1042.73 735.7,1293.12 702.83,1293.12 702.83,1223.52 602.03,1223.31 
		602.08,1293.12 571.57,1293.12 538.92,1120.22 483.5,1120.22 434.15,1369.77 45.48,1369.77 45.48,1369.69 1.66,1369.69 0,1369.77 
		0,1401.28 0,1404.71 0,1592.88 2058.22,1592.88 2058.22,1368.75 	"/>
	
		<linearGradient id="SVGID_4_" gradientUnits="userSpaceOnUse" x1="0" y1="2048" x2="1" y2="2048" gradientTransform="matrix(2048 0 0 -2048 0 4195136)">
		<stop  offset="0" style="stop-color:#0B0939"/>
		<stop  offset="1" style="stop-color:#07061C"/>
	</linearGradient>
	<path style="fill:url(#SVGID_4_);" d="M1733.7,612H1418.1H0v218.39c5.09,1.84,10.58,2.83,16.27,2.83
		c19.98,0,38.14-12.87,44.96-31.58c18.74,14.47,41.95,22.41,65.61,22.41c34.69,0,67.26-16.84,87.48-45.13
		c6.98,5.11,14.5,9.35,22.37,12.6c-1.77,6.61-2.66,13.36-2.66,20.08c0,42.81,34.71,77.65,77.37,77.65c17.26,0,34.2-5.98,47.89-16.87
		c12.34,11.28,37.32,29.02,72.4,29.02c13.32,0,27.11-2.55,41.02-7.59c0.8,7.98,3.29,15.87,7.44,23.5
		c-10.5,12.31-16.32,34.21,1.08,57.1l0.25,0.23c1.54,1.18,3.13,2.28,4.81,3.31c-8.12,6.29-13.71,15.49-15.47,25.61
		c-0.78,4.47-1.18,11.49,1.25,19.71l0.09,0.37c0.03,0.14,0.86,3.53,3.23,7.91c4.11,7.6,14.24,20.37,36,20.49h0.28
		c18.16,0,28.21-9.6,33.41-17.61c3.13-4.46,5.32-9.52,6.49-14.98c0.13-0.51,0.24-0.98,0.32-1.36c15.81-0.41,30.5-7.65,40.5-20.02
		c9.5-11.75,13.6-26.95,11.44-42.12c8.29,3.29,16.75,4.96,25.18,4.96c17.88,0,34.92-7.7,46.77-21.13
		c11.9-13.49,17.42-31.58,15.15-49.63c-2.06-16.44-10.77-31.44-24.07-41.63c16.12-1.87,31.68-7.39,45.28-16.07
		c7.97,14.37,22.87,23.22,39.33,23.22c5.49,0,10.82-0.98,15.9-2.93c-0.96,3.52-1.44,7.13-1.44,10.78c0,13.2,6.22,25.44,16.76,33.22
		c-10.54,7.79-16.76,20.05-16.76,33.25c0,22.8,18.48,41.34,41.21,41.34c17.11,0,32.72-10.57,39.3-25.4
		c2.84,20.03,20.05,35.49,40.79,35.49c19.44,0,36.35-13.98,40.3-32.89c6.76,3.64,24.12,5.6,31.59,5.6c10.62,0,30.8-4.33,38.22-11.93
		c12.73,7.81,10.73,11.93,25.66,11.93c24.28,0,46.98-10.74,62.46-29.51c9.15,2.98,18.66,4.71,28.21,5.14
		c3.32,0.33,6.84,0.33,9.93,0.01c41.43-1.88,78.35-27.78,94.34-66.08c2.6-0.36,4.53,0.63,7.07,0.08
		c15.79,22.25,42.71,35.81,72.81,37.36c8.92,21.76,30.28,37.1,55.25,37.1c21.81,0,40.84-11.73,51.26-29.2
		c0.94,0.09,1.86,0.21,2.8,0.3c17.24,32.35,52.71,54.57,93.7,54.57c48.54,0,89.37-31.13,101.3-73.39c2.17,2.64,4.46,5.2,6.89,7.64
		c19.02,19.14,44.31,30.36,71.11,31.57c3.32,0.33,6.84,0.33,9.93,0.01c41.43-1.88,78.36-27.78,94.35-66.08
		c37.62-5.23,69.8-30.16,84.43-65.37c6.01,0.99,11.62,1.46,17.11,1.46c10.51,0,21.01-1.57,31.23-4.68
		c4.6,22.24,23.99,38.19,46.81,38.19c19.98,0,38.14-12.87,44.96-31.58c11.61,8.96,24.94,15.42,39.02,19.04V612H1733.7z"/>
	
		<linearGradient id="SVGID_5_" gradientUnits="userSpaceOnUse" x1="0" y1="2048" x2="1" y2="2048" gradientTransform="matrix(117.7702 173.3473 173.3473 -117.7702 -353363.1875 242268.5156)">
		<stop  offset="0" style="stop-color:#A3704D"/>
		<stop  offset="1" style="stop-color:#F9B280"/>
	</linearGradient>
	<path style="fill:url(#SVGID_5_);" d="M1775.07,1088.61l-58.19,251.81c3.25,3.03,6.19,6.41,8.75,10.1
		c4.33,6.24,9.06,12.51,13.54,19.42c41.62-47.78,117.13-151.33,40.75-276.08C1777.75,1091.41,1776.18,1089.73,1775.07,1088.61"/>
	<path style="fill:#07061C;" d="M1601.16,1279.37l-48.41-0.89c-20.87-0.85-43.6-1.82-55.04-2.31c-2.18-1.87-4.85-3.25-7.83-3.92
		c-10.06-2.31-20.07,3.96-22.38,14.01c-2.31,10.06,3.96,20.07,14.01,22.38c7.74,1.78,15.48-1.56,19.67-7.79l68.61-14.46
		c0.18-0.04,0.14-0.01,0.06,0.02c-0.09,0.04-0.24,0.08-0.06-0.02L1601.16,1279.37"/>
	
		<linearGradient id="SVGID_6_" gradientUnits="userSpaceOnUse" x1="0" y1="2048" x2="1" y2="2048" gradientTransform="matrix(577.0647 0 0 -577.0647 1253.3147 1183003.75)">
		<stop  offset="0" style="stop-color:#2A8FE5"/>
		<stop  offset="1" style="stop-color:#0578AB"/>
	</linearGradient>
	<path style="fill:url(#SVGID_6_);" d="M1671.45,1537.07l-1.47,0.49L1671.45,1537.07 M1813.21,813l-0.09,0.02l0.09,0.02
		l-17.49,74.44c-0.18,0.8-0.31,1.6-0.53,2.45l-106.03,443.85c-0.53,2.09-1.11,4.23-1.87,6.45l-2.63,11.3l-35.64,156.39l-395.68-92.4
		l-0.03,0.04l16.33,25.49l401.81,96.01l1.29-5.78c0.18-0.58,0.36-1.16,1.74-7.39l30.38-131.48l12.02-52l58.19-251.81l27.16-117.51
		l25.26-109.33h0.58l1.47-8.85l0.85-3.69L1813.21,813"/>
	
		<linearGradient id="SVGID_7_" gradientUnits="userSpaceOnUse" x1="-9.094947e-013" y1="2048" x2="1" y2="2048" gradientTransform="matrix(382.1438 0 0 -382.1438 1354.3123 783698.625)">
		<stop  offset="0" style="stop-color:#2AC1E5"/>
		<stop  offset="0.1633" style="stop-color:#2AC1E5"/>
		<stop  offset="1" style="stop-color:#0581DD"/>
	</linearGradient>
	<polyline style="fill:url(#SVGID_7_);" points="1736.46,862.16 1713.94,856.69 1537.66,815.54 1468.57,798.81 1461.49,829.68 
		1365.75,1230.51 1354.31,1275.63 1379.05,1281.46 1591.63,1330 1622.38,1337.47 1627.09,1318.74 1725.91,904.92 1736.46,862.16 	
		"/>
	
		<linearGradient id="SVGID_8_" gradientUnits="userSpaceOnUse" x1="0" y1="2048" x2="1" y2="2048" gradientTransform="matrix(359.8976 0 0 -359.8976 1365.4801 738138.4375)">
		<stop  offset="0" style="stop-color:#2AC1E5"/>
		<stop  offset="0.1633" style="stop-color:#2AC1E5"/>
		<stop  offset="1" style="stop-color:#0581DD"/>
	</linearGradient>
	<polyline style="fill:url(#SVGID_8_);" points="1725.38,868.88 1711.76,865.54 1535.57,824.43 1475.42,809.89 1470.39,831.73 
		1374.65,1232.65 1365.48,1268.87 1381.14,1272.56 1593.68,1321.1 1615.7,1326.48 1618.2,1316.52 1717.06,902.83 1725.38,868.88 	
		"/>
	
		<linearGradient id="SVGID_9_" gradientUnits="userSpaceOnUse" x1="0" y1="2048" x2="1" y2="2048" gradientTransform="matrix(439.1499 0 0 -439.1499 1271.6538 900495.1875)">
		<stop  offset="0" style="stop-color:#2AC1E5"/>
		<stop  offset="0.1633" style="stop-color:#2AC1E5"/>
		<stop  offset="1" style="stop-color:#0581DD"/>
	</linearGradient>
	<path style="fill:url(#SVGID_9_);" d="M1655.11,1280.36l-0.04,0.18l0,0l0.1-0.11L1655.11,1280.36 M1632.74,1424.59L1632.74,1424.59
		l-10.06,40.84l-22.56-6.99C1610.99,1447.28,1621.84,1435.98,1632.74,1424.59 M1444.59,822.09c-2.4-2.42-4.81-4.84-7.21-7.26
		l0.85-3.56l13.7-58.95l91.52,28.3l105,31.41l22.38,6.67c-0.89,0.76-1.74,1.47-2.63,2.22l0.04,0.01c0.88-0.7,1.71-1.45,2.58-2.19
		l58.33,17.44l10.37,3.11c0.8,0.22,1.51,0.53,2.27,0.84l23.14,7.21c-7.12-1.99-14.23-3.95-21.35-5.91
		c7.13,1.97,14.23,3.95,21.35,5.91l6.81,2.27l-2.94,11.86l0.05,0.01l-15.04,60.82l-7.34,30.48c-5,2.58-10,5.15-15,7.7l-0.03,0.11
		c4.99-2.55,9.99-5.1,14.98-7.67l-3.71,15.36l0.01-0.01l-36.62,152.16c-4.93,2.6-9.82,5.27-14.71,7.88l-0.04,0.18
		c4.9-2.61,9.82-5.25,14.71-7.88l-3.87,16.02l0,0l-2.71,11.26c-0.57-2.93-1.14-5.82-1.71-8.72l-0.07,0.04
		c0.58,2.94,1.16,5.92,1.74,8.85l-6.29,26.08l0.02,0.08l-54.28,225.58l-0.06,0.06l-5.19,21.65c-0.22,0.89-0.53,1.78-0.8,2.67
		l-0.09,0.36c-10.9,11.39-21.76,22.69-32.61,33.86l-13.44-4.18l0.01-0.01l-4.24-1.32c-8.11-14.29-16.25-28.6-24.37-42.83l-0.15-0.04
		c8.17,14.29,16.36,28.7,24.47,43.05l-10.54-3.29l-4.54-1.33l-0.07-0.12l-134.77-39.56l-0.06,0.09l-12.15-3.56
		c5.41-8.05,10.83-16.13,16.25-24.25l-0.03-0.01c-5.4,8.09-10.79,16.14-16.17,24.17l-5.07-1.47c-2.37-9.85-4.74-19.68-7.12-29.47
		l0,0c2.38,9.82,4.76,19.68,7.13,29.56l-11.39-3.34l-0.03-0.11l-56.26-16.53c-0.71-0.22-1.38-0.49-2.09-0.76l-42.85-12.72
		l5.09-20.07l-1.66-0.4l25.94-101.75l0.97,0.31l2.19-9.07c2.75,1.74,5.51,3.47,8.26,5.21l0.01-0.05c-2.77-1.75-5.54-3.5-8.32-5.25
		l23.89-99.22l0.02-0.01l3.22-13.43c2.94-1.11,5.87-2.18,8.81-3.29l-0.01-0.02c-2.92,1.1-5.83,2.17-8.75,3.27l2.87-11.98l-0.03-0.04
		l3.29-13.75c2.37,3.49,4.73,6.96,7.1,10.44l0.03-0.14c-2.35-3.46-4.69-6.91-7.04-10.34l30.51-126.78l-0.07-0.02l2.49-10.28
		c2.92,0.77,5.85,1.53,8.78,2.3l0.01-0.05c-2.92-0.76-5.83-1.53-8.75-2.29c-0.18-0.04-0.4-0.09-0.58-0.13
		c0.36-0.53,0.67-1.11,1.02-1.65c5.07-8.28,10.14-16.55,15.21-24.84l0.04-0.18c-5.1,8.35-10.2,16.68-15.29,24.97l8.63-35.95
		l0.07-0.11l1.48-6.08l-0.04-0.04l2.98-12.32c2.49,2.43,4.99,4.85,7.48,7.28l0.01-0.05c-2.48-2.42-4.97-4.81-7.45-7.23l19.2-79.7
		l-0.03-0.03l3.07-12.72c2.41,2.43,4.83,4.86,7.24,7.29L1444.59,822.09 M1421.1,724.37L1398.85,817l-34.2,143.18l-32.85,137.57
		l-41.11,167.16l-19.93,80.3l-9.88,39.83l-7.56,30.47l0.03,0.01l395.68,92.4l35.64-156.39l2.63-11.3c0.76-2.22,1.33-4.36,1.87-6.45
		l106.03-443.85c0.22-0.85,0.36-1.65,0.53-2.45l17.49-74.44l-0.09-0.02L1421.1,724.37"/>
	
		<linearGradient id="SVGID_10_" gradientUnits="userSpaceOnUse" x1="0" y1="2048" x2="1" y2="2048" gradientTransform="matrix(668.9159 0 0 -668.9159 1243.7286 1370947.5)">
		<stop  offset="0" style="stop-color:#2AC1E5"/>
		<stop  offset="0.1633" style="stop-color:#2AC1E5"/>
		<stop  offset="1" style="stop-color:#0581DD"/>
	</linearGradient>
	<path style="fill:url(#SVGID_10_);" d="M1470.75,1006.67c-0.4,0.76-0.84,1.47-1.2,2.22
		C1469.9,1008.19,1470.35,1007.43,1470.75,1006.67"/>
	
		<linearGradient id="SVGID_11_" gradientUnits="userSpaceOnUse" x1="0" y1="2048" x2="1" y2="2048" gradientTransform="matrix(668.9159 0 0 -668.9159 1243.7286 1370891.875)">
		<stop  offset="0" style="stop-color:#2AC1E5"/>
		<stop  offset="0.1633" style="stop-color:#2AC1E5"/>
		<stop  offset="1" style="stop-color:#0581DD"/>
	</linearGradient>
	<polyline style="fill:url(#SVGID_11_);" points="1498.07,952.04 1498.24,952.08 1498.07,952.04 	"/>
	
		<linearGradient id="SVGID_12_" gradientUnits="userSpaceOnUse" x1="0" y1="2048" x2="1" y2="2048" gradientTransform="matrix(668.9159 0 0 -668.9159 1243.7286 1370892.375)">
		<stop  offset="0" style="stop-color:#2AC1E5"/>
		<stop  offset="0.1633" style="stop-color:#2AC1E5"/>
		<stop  offset="1" style="stop-color:#0581DD"/>
	</linearGradient>
	<path style="fill:url(#SVGID_12_);" d="M1493.31,952.71c0.18-0.09,0.4-0.13,0.58-0.18
		C1493.71,952.57,1493.53,952.62,1493.31,952.71"/>
	
		<linearGradient id="SVGID_13_" gradientUnits="userSpaceOnUse" x1="0" y1="2048" x2="1" y2="2048" gradientTransform="matrix(668.9159 0 0 -668.9159 1243.7286 1370891.875)">
		<stop  offset="0" style="stop-color:#2AC1E5"/>
		<stop  offset="0.1633" style="stop-color:#2AC1E5"/>
		<stop  offset="1" style="stop-color:#0581DD"/>
	</linearGradient>
	<path style="fill:url(#SVGID_13_);" d="M1495.44,952.17c0.18-0.04,0.4-0.09,0.58-0.09
		C1495.84,952.08,1495.62,952.13,1495.44,952.17"/>
	
		<linearGradient id="SVGID_14_" gradientUnits="userSpaceOnUse" x1="0" y1="2048" x2="1" y2="2048" gradientTransform="matrix(668.9159 0 0 -668.9159 1243.7286 1370940.75)">
		<stop  offset="0" style="stop-color:#2AC1E5"/>
		<stop  offset="0.1633" style="stop-color:#2AC1E5"/>
		<stop  offset="1" style="stop-color:#0581DD"/>
	</linearGradient>
	<path style="fill:url(#SVGID_14_);" d="M1474.84,999.69c-0.53,0.85-1.11,1.65-1.65,2.54
		C1473.73,1001.34,1474.26,1000.53,1474.84,999.69"/>
	
		<linearGradient id="SVGID_15_" gradientUnits="userSpaceOnUse" x1="0" y1="2048" x2="1" y2="2048" gradientTransform="matrix(668.9159 0 0 -668.9159 1243.7286 1370934.375)">
		<stop  offset="0" style="stop-color:#2AC1E5"/>
		<stop  offset="0.1633" style="stop-color:#2AC1E5"/>
		<stop  offset="1" style="stop-color:#0581DD"/>
	</linearGradient>
	<path style="fill:url(#SVGID_15_);" d="M1479.34,993.33c-0.67,0.85-1.33,1.69-1.96,2.54C1478,995.02,1478.67,994.17,1479.34,993.33
		"/>
	
		<linearGradient id="SVGID_16_" gradientUnits="userSpaceOnUse" x1="0" y1="2048" x2="1" y2="2048" gradientTransform="matrix(668.9159 0 0 -668.9159 1243.7286 1370892.25)">
		<stop  offset="0" style="stop-color:#2AC1E5"/>
		<stop  offset="0.1633" style="stop-color:#2AC1E5"/>
		<stop  offset="1" style="stop-color:#0581DD"/>
	</linearGradient>
	<path style="fill:url(#SVGID_16_);" d="M1500.07,952.44c0.18,0.04,0.4,0.13,0.58,0.18
		C1500.42,952.57,1500.25,952.53,1500.07,952.44"/>
	
		<linearGradient id="SVGID_17_" gradientUnits="userSpaceOnUse" x1="0" y1="2048" x2="1" y2="2048" gradientTransform="matrix(668.9159 0 0 -668.9159 1243.7286 1370913.625)">
		<stop  offset="0" style="stop-color:#2AC1E5"/>
		<stop  offset="0.1633" style="stop-color:#2AC1E5"/>
		<stop  offset="1" style="stop-color:#0581DD"/>
	</linearGradient>
	<path style="fill:url(#SVGID_17_);" d="M1501.4,972.99c-0.93,0.62-1.82,1.25-2.76,1.87
		C1499.58,974.24,1500.47,973.57,1501.4,972.99"/>
	
		<linearGradient id="SVGID_18_" gradientUnits="userSpaceOnUse" x1="0" y1="2048" x2="1" y2="2048" gradientTransform="matrix(668.9159 0 0 -668.9159 1243.7286 1370928.5)">
		<stop  offset="0" style="stop-color:#2AC1E5"/>
		<stop  offset="0.1633" style="stop-color:#2AC1E5"/>
		<stop  offset="1" style="stop-color:#0581DD"/>
	</linearGradient>
	<path style="fill:url(#SVGID_18_);" d="M1484.23,987.54c-0.76,0.8-1.47,1.6-2.18,2.45
		C1482.76,989.14,1483.47,988.34,1484.23,987.54z"/>
	
		<linearGradient id="SVGID_19_" gradientUnits="userSpaceOnUse" x1="0" y1="2048" x2="1" y2="2048" gradientTransform="matrix(668.9159 0 0 -668.9159 1243.7286 1370918.125)">
		<stop  offset="0" style="stop-color:#2AC1E5"/>
		<stop  offset="0.1633" style="stop-color:#2AC1E5"/>
		<stop  offset="1" style="stop-color:#0581DD"/>
	</linearGradient>
	<path style="fill:url(#SVGID_19_);" d="M1495.31,977.35c-0.89,0.67-1.74,1.38-2.58,2.09
		C1493.57,978.73,1494.42,978.02,1495.31,977.35"/>
	
		<linearGradient id="SVGID_20_" gradientUnits="userSpaceOnUse" x1="0" y1="2048" x2="1" y2="2048" gradientTransform="matrix(668.9159 0 0 -668.9159 1243.7286 1370923.125)">
		<stop  offset="0" style="stop-color:#2AC1E5"/>
		<stop  offset="0.1633" style="stop-color:#2AC1E5"/>
		<stop  offset="1" style="stop-color:#0581DD"/>
	</linearGradient>
	<path style="fill:url(#SVGID_20_);" d="M1487.17,984.47c0.8-0.76,1.6-1.51,2.4-2.27C1488.77,982.96,1487.97,983.67,1487.17,984.47"
		/>
	
		<linearGradient id="SVGID_21_" gradientUnits="userSpaceOnUse" x1="0" y1="2048" x2="1" y2="2048" gradientTransform="matrix(668.9159 0 0 -668.9159 1243.7286 1370900)">
		<stop  offset="0" style="stop-color:#2AC1E5"/>
		<stop  offset="0.1633" style="stop-color:#2AC1E5"/>
		<stop  offset="1" style="stop-color:#0581DD"/>
	</linearGradient>
	<path style="fill:url(#SVGID_21_);" d="M1507.63,960.54c-0.04-0.22-0.13-0.4-0.18-0.62
		C1507.54,960.14,1507.59,960.31,1507.63,960.54"/>
	
		<linearGradient id="SVGID_22_" gradientUnits="userSpaceOnUse" x1="0" y1="2048" x2="1" y2="2048" gradientTransform="matrix(668.9159 0 0 -668.9159 1243.7286 1370898.25)">
		<stop  offset="0" style="stop-color:#2AC1E5"/>
		<stop  offset="0.1633" style="stop-color:#2AC1E5"/>
		<stop  offset="1" style="stop-color:#0581DD"/>
	</linearGradient>
	<path style="fill:url(#SVGID_22_);" d="M1507.01,958.58c-0.04-0.13-0.13-0.22-0.18-0.36c0.09,0.18,0.18,0.36,0.27,0.53
		L1507.01,958.58"/>
	
		<linearGradient id="SVGID_23_" gradientUnits="userSpaceOnUse" x1="0" y1="2048" x2="1" y2="2048" gradientTransform="matrix(668.9159 0 0 -668.9159 1243.7286 1370893.125)">
		<stop  offset="0" style="stop-color:#2AC1E5"/>
		<stop  offset="0.1633" style="stop-color:#2AC1E5"/>
		<stop  offset="1" style="stop-color:#0581DD"/>
	</linearGradient>
	<path style="fill:url(#SVGID_23_);" d="M1502.03,953.24c0.18,0.09,0.31,0.18,0.49,0.27
		C1502.38,953.42,1502.2,953.33,1502.03,953.24"/>
	
		<linearGradient id="SVGID_24_" gradientUnits="userSpaceOnUse" x1="0" y1="2048" x2="1" y2="2048" gradientTransform="matrix(668.9159 0 0 -668.9159 1243.7286 1370896.25)">
		<stop  offset="0" style="stop-color:#2AC1E5"/>
		<stop  offset="0.1633" style="stop-color:#2AC1E5"/>
		<stop  offset="1" style="stop-color:#0581DD"/>
	</linearGradient>
	<path style="fill:url(#SVGID_24_);" d="M1505.63,956.22c0.13,0.18,0.27,0.36,0.36,0.53C1505.9,956.58,1505.76,956.4,1505.63,956.22
		"/>
	<polyline style="fill:#FFFFFF;" points="1332.02,1248.13 1306.08,1349.89 1624.96,1426.01 1651.08,1348.91 1332.02,1248.13 	"/>
	
		<linearGradient id="SVGID_25_" gradientUnits="userSpaceOnUse" x1="0" y1="2048" x2="1" y2="2048" gradientTransform="matrix(668.9159 0 0 -668.9159 1243.7286 1370894.625)">
		<stop  offset="0" style="stop-color:#2AC1E5"/>
		<stop  offset="0.1633" style="stop-color:#2AC1E5"/>
		<stop  offset="1" style="stop-color:#0581DD"/>
	</linearGradient>
	<polyline style="fill:url(#SVGID_25_);" points="1504.21,954.71 1504.43,954.93 1504.21,954.71 	"/>
	<path style="fill:#FFFFFF;" d="M1528.72,886.63c-0.67-0.18-1.25-0.27-1.69-0.36c-0.45-0.09-0.93-0.13-1.42-0.18l-2.31,9.97
		l3.43,0.8c1.78,0.4,3.29,0.31,4.45-0.31c1.16-0.62,1.96-1.78,2.36-3.47c0.36-1.65,0.18-2.98-0.62-4.09
		C1532.01,887.88,1530.63,887.08,1528.72,886.63"/>
	<path style="fill:#FFFFFF;" d="M1445.61,1251.43l116.17,25.89c1.02,0.22,2.09,0.36,3.07,0.36h0.18c4-0.04,7.83-2,10.41-5.38
		c2.85-3.69,3.83-8.45,2.71-13.08l-34.08-122.09c-1.96-7.39-8.1-10.01-12.77-10.01h-0.18c-3.83,0.04-7.39,1.78-9.97,4.89l-0.09,0.09
		l-82.62,96.01c-3.38,4.18-4.36,9.65-2.63,14.64C1437.38,1247.2,1440.94,1250.4,1445.61,1251.43 M1508.74,1212.63l6.18-49.08
		c1.02-4.54,5.78-7.56,10.32-6.58l4.54,1.02c4.54,1.02,7.56,5.78,6.54,10.32l-15.26,47.07c-1.02,4.54-1.25,8.59-5.78,7.56
		l-4.54-1.02C1506.21,1220.9,1507.72,1217.17,1508.74,1212.63 M1497.89,1236.79c1.02-4.67,6.81-7.34,12.9-6.01
		c6.1,1.38,10.19,6.23,9.17,10.9c-1.02,4.67-6.81,7.34-12.9,6.01C1500.96,1246.35,1496.87,1241.46,1497.89,1236.79"/>
	<path style="fill:#FFFFFF;" d="M1743.71,909.19l14.86-60.42l-28.43-6.94c-0.71-0.22-1.42-0.45-2.14-0.62l-9.83-2.31l-176.28-41.11
		L1455,776.74l-11.21,48.85l-95.7,400.7l-15.97,62.91l40.67,9.43c0.67,0.18,1.29,0.4,2,0.58l212.9,48.63l48.19,11.75l8.36-34.17
		c0.22-0.76,0.49-1.47,0.67-2.22L1743.71,909.19"/>
	<path style="fill:#FFFFFF;" d="M1655.57,881.47c-2-0.49-3.78,0.22-5.34,2c-1.51,1.82-2.71,4.63-3.6,8.36
		c-0.89,3.78-1.02,6.81-0.44,9.17c0.58,2.31,1.87,3.74,3.87,4.18c2,0.49,3.83-0.22,5.38-2.05c1.56-1.82,2.8-4.63,3.69-8.41
		c0.89-3.78,1.02-6.81,0.4-9.12C1658.91,883.34,1657.62,881.96,1655.57,881.47"/>
	<path style="fill:#FFFFFF;" d="M1764.93,847.35c-9.08-2.49-18.11-5.03-27.23-7.52c-23.05-6.32-46.32-12.5-69.5-18.91
		c0.89-0.76,1.74-1.47,2.63-2.22l-22.38-6.67c0.49,3.65,0.98,7.25,1.47,10.9c-15.13,22.91-30.21,45.56-45.07,68.03
		c-18.91-3.47-37.68-6.72-56.59-10.14c-18.78-3.43-37.64-6.9-56.42-10.19c-18.06-18.91-36.26-37.42-54.5-55.75l-3.07,12.72
		c16.82,17.04,33.59,34.26,50.23,51.83c0.44,0.53,0.76,0.89,1.25,1.33c0.53,0.18,1.2,0.31,1.78,0.31
		c18.42,3.6,36.75,7.03,55.08,10.41c18.33,3.47,36.66,6.72,55.04,10.01c-21.85,32.75-43.74,65.09-65.49,96.9
		c-21.89-5.83-43.69-11.57-65.54-17.49c-21.67-5.87-43.42-11.52-65.14-17.22l-2.49,10.28c21.31,5.92,42.67,11.75,64.02,17.57
		c22.65,6.18,45.38,12.24,68.03,18.42c7.16,11.43,14.37,22.82,21.49,34.35c-28.96,13.79-57.53,27.14-86.36,39.86
		c-28.3,12.41-56.86,23.98-85.02,35.33c-4.23-6.27-8.45-12.46-12.68-18.69l-3.29,13.75c1.96,2.94,3.96,5.83,5.92,8.77
		c-2.94,1.11-5.87,2.18-8.81,3.29l-3.25,13.53c6.23-2.27,12.5-4.54,18.73-6.85c12.41,19.09,24.96,38.35,37.42,57.84
		c0.09,0.22,0.18,0.44,0.31,0.58c0.22,0.18,0.45,0.44,0.58,0.58c12.95,13.17,25.81,26.56,38.71,39.86
		c-26.12,11.66-51.97,22.87-77.68,33.68c-14.01-8.85-27.94-17.66-41.91-26.47l-2.58,10.68c10.59,6.72,21.27,13.48,31.81,20.2
		c-13.3,4.45-26.56,8.72-39.78,12.9l-2.76,11.39l-0.58,2.22c17.49-5.47,34.97-11.03,52.55-16.82
		c10.23,39.46,20.15,79.69,30.03,120.53l11.39,3.34c-10.32-43.11-20.82-85.69-31.5-127.56c26.38-11.08,53.04-22.6,79.82-34.62
		c12.68,13.53,25.36,27.23,38.13,40.89c-27.32,41.73-54.46,82.62-81.42,122.75l12.15,3.56c26.83-40.13,53.75-80.93,80.98-122.44
		c0.93-1.38,1.87-2.67,2.67-4.18c0,0,0,0-0.13-0.13c18.02-29.68,36.13-59.66,54.24-90.1c23.36,28.65,46.58,58.02,69.72,87.65
		c-33.46,38.58-66.56,76.26-99.48,112.88c-1.02,1.16-2,2.27-3.16,3.38c1.02,1.65,1.91,3.16,2.85,4.58
		c9.03,15.93,18.2,31.86,27.23,47.96l4.54,1.33l10.54,3.29c-10.23-18.11-20.6-36.31-30.88-54.24
		c33.06-36.97,66.38-75.01,100.06-114.03c1.11-1.51,2.31-2.8,3.52-4.18c-1.2-1.6-2.36-3.11-3.43-4.67
		c-24.16-30.7-48.27-61-72.57-90.72c35.86-13.04,71.86-26.78,108.07-41.2c1.96,10.1,3.92,20.29,5.87,30.43l6.36-26.38
		c-0.58-2.94-1.16-5.92-1.74-8.85c1.47-0.8,2.94-1.6,4.45-2.4l3.92-16.19c-5.61,3.03-11.26,6.05-16.86,9.03
		c-36.44,14.73-72.79,28.74-108.87,42c23.09-52.19,46.45-104.91,69.81-158.08c22.2-10.5,44.58-21.18,66.92-32.17
		c8.54-4.27,17.09-8.63,25.63-12.99l3.74-15.48c-23.89,12.28-47.74,24.34-71.68,35.82c-37.2,17.84-74.75,34.66-111.85,50.85
		c-7.03-11.48-14.19-22.91-21.49-34.44c38.58-56.73,77.46-114.83,116.75-174.32c24.25,6.72,48.67,13.39,72.92,20.2
		c12.55,3.47,25.14,7.03,37.68,10.59l2.98-12.01L1764.93,847.35 M1507.68,1272.87c-11.17-12.1-22.42-24.03-33.72-36.17
		c26.07-12.1,52.28-24.83,78.66-38C1537.49,1223.66,1522.63,1248.36,1507.68,1272.87 M1563.07,1052.37
		c23.71-10.23,47.52-20.78,71.41-31.72c-23.54,53.3-46.89,105.98-70.12,158.17c-33.24,17-66.43,33.15-99.26,48.59
		c-13.79-14.28-27.5-28.43-41.33-42.58c-11.97-18.64-23.98-37.11-35.99-55.39c28.79-11.52,58.02-23.54,86.98-36.17
		C1504.21,1080.31,1533.48,1066.43,1563.07,1052.37"/>
	<path style="fill:#FFFFFF;" d="M1427.77,919.74c-1.02-1.07-2.09-2-3.11-3.07c-3.2-3.11-6.41-6.23-9.61-9.34l-2.98,12.32
		c0.49,0.49,0.98,0.98,1.47,1.42c-0.98,1.6-1.96,3.2-2.98,4.81l-8.63,35.95c7.88-12.81,15.75-25.72,23.63-38.62
		C1426.43,922.09,1427.06,920.89,1427.77,919.74"/>
	<path style="fill:#FFFFFF;" d="M1600.13,1458.4c10.86-11.17,21.71-22.47,32.61-33.86l0.09-0.36c0.27-0.89,0.58-1.78,0.8-2.67
		l5.21-21.71c-17.44,18.38-34.84,36.53-52.14,54.41L1600.13,1458.4"/>
	
		<linearGradient id="SVGID_26_" gradientUnits="userSpaceOnUse" x1="0" y1="2048" x2="1" y2="2048" gradientTransform="matrix(439.1499 0 0 -439.1499 1271.6538 900212.125)">
		<stop  offset="0" style="stop-color:#2AC0E5"/>
		<stop  offset="0.1633" style="stop-color:#2AC0E5"/>
		<stop  offset="1" style="stop-color:#1094DF"/>
	</linearGradient>
	<path style="fill:url(#SVGID_26_);" d="M1670.83,818.74c-0.88,0.74-1.71,1.49-2.58,2.19c22.8,6.3,45.7,12.39,68.38,18.6
		c0.36,0.1,0.72,0.2,1.08,0.3c1.96,0.54,3.92,1.07,5.88,1.61c7.12,1.96,14.23,3.92,21.35,5.91l-23.14-7.21
		c-0.76-0.31-1.47-0.62-2.27-0.84l-10.37-3.11L1670.83,818.74"/>
	<path style="fill:#BEECF7;" d="M1737.7,839.83c1.96,0.54,3.92,1.08,5.88,1.61C1741.62,840.9,1739.66,840.36,1737.7,839.83
		 M1668.25,820.93l-0.04,0.03c22.82,6.26,45.72,12.35,68.42,18.57C1713.94,833.32,1691.05,827.23,1668.25,820.93"/>
	
		<linearGradient id="SVGID_27_" gradientUnits="userSpaceOnUse" x1="0" y1="2048" x2="1" y2="2048" gradientTransform="matrix(439.1499 0 0 -439.1499 1271.6538 900288.375)">
		<stop  offset="0" style="stop-color:#2AC0E5"/>
		<stop  offset="0.1633" style="stop-color:#2AC0E5"/>
		<stop  offset="1" style="stop-color:#1094DF"/>
	</linearGradient>
	<path style="fill:url(#SVGID_27_);" d="M1756.28,858.09l-12.57,51.1l-12.24,51.3c5-2.55,10-5.12,15-7.7l7.34-30.48l15.04-60.82
		l-0.05-0.01l-0.04,0.15C1764.6,860.45,1760.44,859.27,1756.28,858.09"/>
	<path style="fill:#BEECF7;" d="M1651.26,905.34c-0.4,0-0.8-0.05-1.21-0.15c-2-0.45-3.29-1.87-3.87-4.18
		c-0.58-2.36-0.45-5.38,0.44-9.17c0.89-3.74,2.09-6.54,3.6-8.36c1.24-1.41,2.61-2.15,4.13-2.15c0.39,0,0.8,0.05,1.21,0.15
		c2.05,0.49,3.34,1.87,3.96,4.14c0.62,2.31,0.49,5.34-0.4,9.12c-0.89,3.78-2.14,6.58-3.69,8.41
		C1654.2,904.59,1652.79,905.34,1651.26,905.34 M1658.15,830.84c-39.27,59.45-78.13,117.52-116.68,174.22
		c7.29,11.47,14.45,22.89,21.47,34.4c37.11-16.2,74.61-33.01,111.85-50.85c18.92-9.08,37.79-18.49,56.67-28.12l12.24-51.3
		l12.57-51.1c-8.4-2.37-16.81-4.73-25.2-7.05C1706.82,844.23,1682.4,837.56,1658.15,830.84"/>
	<path style="fill:#BEECF7;" d="M1654.36,881.32c-1.52,0-2.89,0.74-4.13,2.15c-1.51,1.82-2.71,4.63-3.6,8.36
		c-0.89,3.78-1.02,6.81-0.44,9.17c0.58,2.31,1.87,3.74,3.87,4.18c0.41,0.1,0.81,0.15,1.21,0.15c1.53,0,2.94-0.75,4.17-2.2
		c1.56-1.82,2.8-4.63,3.69-8.41c0.89-3.78,1.02-6.81,0.4-9.12c-0.62-2.27-1.91-3.65-3.96-4.14
		C1655.16,881.37,1654.75,881.32,1654.36,881.32"/>
	<path style="fill:#BEECF7;" d="M1658.19,830.71c-39.29,59.49-78.17,117.59-116.75,174.32l0.02,0.04
		c38.55-56.7,77.42-114.77,116.68-174.22c24.25,6.72,48.67,13.39,72.92,20.2c8.39,2.32,16.8,4.68,25.2,7.05
		c4.16,1.18,8.33,2.36,12.48,3.53l0.04-0.15c-12.53-3.55-25.1-7.11-37.63-10.57C1706.87,844.1,1682.44,837.43,1658.19,830.71"/>
	
		<linearGradient id="SVGID_28_" gradientUnits="userSpaceOnUse" x1="0" y1="2048" x2="1" y2="2048" gradientTransform="matrix(439.1499 0 0 -439.1499 1271.6538 900678.6875)">
		<stop  offset="0" style="stop-color:#2AC0E5"/>
		<stop  offset="0.1633" style="stop-color:#2AC0E5"/>
		<stop  offset="1" style="stop-color:#1094DF"/>
	</linearGradient>
	<path style="fill:url(#SVGID_28_);" d="M1558.1,1410.05c8.12,14.23,16.26,28.55,24.37,42.83l4.24,1.32
		c9.71-10.04,19.45-20.16,29.21-30.36L1558.1,1410.05 M1687.41,1145.07l-32.29,135.29l0.05,0.07l-0.1,0.11l0.05,0.07l-0.1,0.11
		l-10.14,42.47c-0.18,0.76-0.45,1.47-0.67,2.22l-4.85,19.8l11.7,3.69l-20.01,59.08c2.59-2.72,5.18-5.45,7.78-8.18l-0.02,0.06
		l0.06-0.06l54.28-225.58l-0.02-0.08l-0.07,0.31C1691.19,1164.66,1689.3,1154.83,1687.41,1145.07"/>
	<path style="fill:#BEECF7;" d="M1639.38,1345.21l-3.52,14.37l-40.73-9.93c-14.55,16.55-29.05,32.92-43.49,49.07
		c2.15,3.77,4.31,7.54,6.47,11.32l57.82,13.8c5.04-5.27,10.09-10.56,15.14-15.87l20.01-59.08L1639.38,1345.21"/>
	<path style="fill:#BEECF7;" d="M1655.03,1280.72c-1.17,1.34-2.34,2.6-3.42,4.07c-18.94,21.94-37.75,43.56-56.48,64.86l40.73,9.93
		l3.52-14.37l4.85-19.8c0.22-0.76,0.49-1.47,0.67-2.22L1655.03,1280.72 M1687.2,1144.02c-36.17,14.4-72.11,28.13-107.93,41.15
		c24.26,29.68,48.34,59.94,72.47,90.6c1.01,1.53,2.19,3.02,3.37,4.6l32.29-135.29C1687.34,1144.72,1687.27,1144.37,1687.2,1144.02"
		/>
	<path style="fill:#BEECF7;" d="M1655.07,1280.54c-1.17,1.34-2.34,2.6-3.42,4.07c-33.73,38.98-67.05,77.06-100.06,114.03l0.04,0.08
		c14.44-16.15,28.94-32.52,43.49-49.07c18.73-21.3,37.55-42.93,56.48-64.86c1.08-1.47,2.25-2.73,3.42-4.07l0.1-0.11L1655.07,1280.54
		 M1687.29,1143.8c-36.22,14.46-72.26,28.21-108.12,41.24l0.1,0.12c35.81-13.02,71.76-26.75,107.93-41.15
		c0.07,0.35,0.14,0.7,0.2,1.05c1.89,9.76,3.78,19.59,5.67,29.38l0.07-0.31C1691.2,1164.03,1689.24,1153.92,1687.29,1143.8"/>
	<path style="fill:#BEECF7;" d="M1638.84,1399.81c-2.59,2.73-5.19,5.46-7.78,8.18c-5.05,5.31-10.1,10.6-15.14,15.87
		c-9.76,10.2-19.5,20.32-29.21,30.36l0.03,0.01c17.24-17.86,34.62-36,52.09-54.35L1638.84,1399.81"/>
	
		<linearGradient id="SVGID_29_" gradientUnits="userSpaceOnUse" x1="0" y1="2048" x2="1" y2="2048" gradientTransform="matrix(439.1499 0 0 -439.1499 1271.6538 900521.3125)">
		<stop  offset="0" style="stop-color:#2AC0E5"/>
		<stop  offset="0.1633" style="stop-color:#2AC0E5"/>
		<stop  offset="1" style="stop-color:#1094DF"/>
	</linearGradient>
	<path style="fill:url(#SVGID_29_);" d="M1702.2,1136.64L1702.2,1136.64l-0.04,0.18c-1.49,0.79-2.93,1.58-4.38,2.36
		c0.57,2.89,1.14,5.78,1.71,8.72L1702.2,1136.64"/>
	<path style="fill:#BEECF7;" d="M1702.2,1136.64c-1.47,0.8-2.93,1.6-4.45,2.4l0.03,0.14c1.44-0.79,2.89-1.58,4.38-2.36
		L1702.2,1136.64"/>
	
		<linearGradient id="SVGID_30_" gradientUnits="userSpaceOnUse" x1="0" y1="2048" x2="1" y2="2048" gradientTransform="matrix(439.1499 0 0 -439.1499 1271.6538 900421.625)">
		<stop  offset="0" style="stop-color:#29C0E5"/>
		<stop  offset="0.1633" style="stop-color:#29C0E5"/>
		<stop  offset="1" style="stop-color:#17A0E1"/>
	</linearGradient>
	<path style="fill:url(#SVGID_30_);" d="M1399.06,973.99l-30.51,126.78c2.35,3.43,4.69,6.88,7.04,10.34l32.17-134.71
		C1404.86,975.6,1401.96,974.8,1399.06,973.99"/>
	<path style="fill:#94DFF2;" d="M1407.77,976.41l-32.17,134.71c1.88,2.77,3.76,5.55,5.64,8.34c28.16-11.35,56.68-22.91,85.02-35.33
		c28.8-12.71,57.34-26.05,86.27-39.82c-7.12-11.52-14.33-22.91-21.49-34.35c-22.65-6.18-45.38-12.24-68.03-18.42
		C1444.58,986.52,1426.16,981.49,1407.77,976.41"/>
	<path style="fill:#94DFF2;" d="M1399.07,973.93l-0.02,0.06c2.9,0.81,5.81,1.61,8.71,2.41c18.39,5.09,36.82,10.11,55.24,15.14
		c22.65,6.18,45.38,12.24,68.03,18.42c7.16,11.43,14.37,22.82,21.49,34.35l0.09-0.04c-7.16-11.52-14.33-22.87-21.49-34.35
		c-22.65-6.18-45.38-12.24-68.03-18.42C1441.74,985.67,1420.43,979.85,1399.07,973.93"/>
	<path style="fill:#BEECF7;" d="M1634.4,1020.68c-23.87,10.93-47.64,21.46-71.33,31.69c-29.59,14.06-58.86,27.94-88.32,40.89
		c-28.96,12.64-58.2,24.65-86.98,36.17c1.54,2.35,3.08,4.69,4.62,7.05c8.85,13.47,17.67,27.03,26.45,40.69
		c1.64,2.55,3.28,5.1,4.93,7.66c13.82,14.13,27.51,28.27,41.29,42.53c32.83-15.44,66.03-31.59,99.26-48.58
		C1587.53,1126.61,1610.87,1073.96,1634.4,1020.68"/>
	<path style="fill:#BEECF7;" d="M1418.84,1177.16c1.63,2.53,3.26,5.07,4.88,7.61c13.84,14.19,27.5,28.34,41.33,42.58
		c-13.78-14.27-27.47-28.4-41.29-42.53C1422.12,1182.27,1420.48,1179.71,1418.84,1177.16 M1634.44,1020.6
		c-23.89,10.95-47.7,21.45-71.41,31.72c-29.59,14.06-58.86,27.94-88.32,40.84c-28.92,12.68-58.15,24.69-86.98,36.22
		c1.56,2.36,3.11,4.72,4.67,7.09c-1.54-2.35-3.08-4.7-4.62-7.05c28.79-11.52,58.02-23.54,86.98-36.17
		c29.45-12.95,58.73-26.83,88.32-40.89c23.69-10.22,47.46-20.75,71.33-31.69L1634.44,1020.6"/>
	<path style="fill:#BEECF7;" d="M1552.61,1198.7c-8.65,4.33-17.3,8.6-25.93,12.82c-17.65,8.64-35.22,17.05-52.73,25.18
		c11.3,12.1,22.56,24.07,33.72,36.17C1522.63,1248.36,1537.49,1223.66,1552.61,1198.7"/>
	<path style="fill:#BEECF7;" d="M1526.68,1211.52c-17.64,8.62-35.23,17.02-52.73,25.18
		C1491.46,1228.57,1509.04,1220.16,1526.68,1211.52 M1552.61,1198.7c-15.13,24.96-29.99,49.65-44.94,74.17
		C1522.63,1248.4,1537.49,1223.71,1552.61,1198.7"/>
	
		<linearGradient id="SVGID_31_" gradientUnits="userSpaceOnUse" x1="0" y1="2048" x2="1" y2="2048" gradientTransform="matrix(439.1499 0 0 -439.1499 1271.6538 900795.25)">
		<stop  offset="0" style="stop-color:#2AC0E5"/>
		<stop  offset="0.1633" style="stop-color:#2AC0E5"/>
		<stop  offset="1" style="stop-color:#1094DF"/>
	</linearGradient>
	<path style="fill:url(#SVGID_31_);" d="M1449,1384.01c-5.5,8.28-11.01,16.53-16.5,24.75l134.77,39.56
		c-7.85-14.01-15.81-27.87-23.69-41.73L1449,1384.01"/>
	<path style="fill:#BEECF7;" d="M1488,1325.07c-13.05,19.81-26.04,39.45-39,58.93l94.58,22.58c-1.16-2.04-2.32-4.07-3.47-6.11
		c-0.93-1.42-1.82-2.94-2.85-4.58l0.06-0.06l-0.02-0.03c1.16-1.11,2.14-2.22,3.16-3.38c13.65-15.16,27.3-30.49,41-46L1488,1325.07"
		/>
	<path style="fill:#BEECF7;" d="M1570.19,1191.98c-2.86,4.81-5.72,9.6-8.58,14.39c-13.7,22.95-27.42,45.7-41.12,68.24
		c-1.49,2.46-2.99,4.92-4.48,7.38c0.13,0.13,0.13,0.13,0.13,0.13l-0.05,0.09l0,0c-0.8,1.51-1.74,2.8-2.67,4.18
		c-8.5,12.96-16.97,25.85-25.42,38.68l93.47,21.35c19.38-21.94,38.83-44.22,58.42-66.81
		C1616.76,1249.99,1593.54,1220.63,1570.19,1191.98"/>
	<path style="fill:#BEECF7;" d="M1537.33,1395.83l-0.06,0.06c1.02,1.65,1.91,3.16,2.85,4.58c1.15,2.04,2.31,4.07,3.47,6.11
		c7.88,13.85,15.83,27.72,23.69,41.73l0.11,0.03c-9.03-16.06-18.2-31.99-27.23-47.96
		C1539.23,1398.97,1538.34,1397.47,1537.33,1395.83 M1516.08,1282.21c-0.79,1.47-1.71,2.74-2.62,4.1
		c-27.23,41.51-54.15,82.36-80.98,122.44l0.01,0c5.5-8.22,11-16.47,16.5-24.75c12.96-19.49,25.95-39.13,39-58.93
		c8.45-12.82,16.92-25.72,25.42-38.68C1514.35,1285.02,1515.29,1283.73,1516.08,1282.21L1516.08,1282.21 M1520.48,1274.61
		c-1.5,2.46-2.99,4.92-4.49,7.38l0.01,0.01C1517.5,1279.54,1518.99,1277.08,1520.48,1274.61 M1570.23,1191.9
		c-2.87,4.84-5.75,9.66-8.62,14.48c2.86-4.79,5.72-9.58,8.58-14.39c23.35,28.65,46.57,58.01,69.7,87.63l0.06-0.07
		C1616.82,1249.91,1593.59,1220.55,1570.23,1191.9"/>
	
		<linearGradient id="SVGID_32_" gradientUnits="userSpaceOnUse" x1="0" y1="2048" x2="1" y2="2048" gradientTransform="matrix(439.1499 0 0 -439.1499 1271.6538 900754.375)">
		<stop  offset="0" style="stop-color:#2AC0E5"/>
		<stop  offset="0.1633" style="stop-color:#2AC0E5"/>
		<stop  offset="1" style="stop-color:#1094DF"/>
	</linearGradient>
	<path style="fill:url(#SVGID_32_);" d="M1307.75,1350.28l-5.09,20.07l42.85,12.72c0.71,0.27,1.38,0.53,2.09,0.76l56.26,16.53
		c-2.33-9.64-4.66-19.24-7-28.81L1307.75,1350.28"/>
	<path style="fill:#BEECF7;" d="M1339.71,1290.96c-6.13,1.95-12.26,3.88-18.39,5.79l-13.58,53.53l89.1,21.27
		c-5.88-24.03-11.79-47.83-17.8-71.37l-4.27-0.98c-0.71-0.18-1.33-0.4-2-0.58L1339.71,1290.96"/>
	<path style="fill:#BEECF7;" d="M1373.84,1279.95c-11.41,3.75-22.78,7.41-34.13,11.02l33.06,7.67c0.67,0.18,1.29,0.4,2,0.58
		l4.27,0.98C1377.32,1293.42,1375.59,1286.67,1373.84,1279.95"/>
	<path style="fill:#BEECF7;" d="M1373.89,1279.86c-17.57,5.78-35.06,11.39-52.54,16.82l-0.02,0.08c6.13-1.92,12.26-3.85,18.39-5.79
		c11.36-3.6,22.73-7.26,34.13-11.02c1.74,6.73,3.48,13.47,5.21,20.24c6.01,23.54,11.92,47.34,17.8,71.37
		c2.34,9.57,4.67,19.17,7,28.81l0.07,0.02C1394.09,1359.59,1384.12,1319.37,1373.89,1279.86"/>
	
		<linearGradient id="SVGID_33_" gradientUnits="userSpaceOnUse" x1="0" y1="2048" x2="1" y2="2048" gradientTransform="matrix(439.1499 0 0 -439.1499 1271.6538 900768.8125)">
		<stop  offset="0" style="stop-color:#2AC0E5"/>
		<stop  offset="0.1633" style="stop-color:#2AC0E5"/>
		<stop  offset="1" style="stop-color:#1094DF"/>
	</linearGradient>
	<path style="fill:url(#SVGID_33_);" d="M1408.14,1374.25c2.38,9.79,4.75,19.62,7.12,29.47l5.07,1.47
		c5.38-8.02,10.77-16.08,16.17-24.17L1408.14,1374.25"/>
	<path style="fill:#BEECF7;" d="M1390.51,1302.8c5.93,23.61,11.8,47.44,17.64,71.45l28.37,6.77c12.97-19.42,25.98-39.01,39.05-58.79
		L1390.51,1302.8"/>
	<path style="fill:#BEECF7;" d="M1463.59,1241.64c-26.78,12.01-53.42,23.53-79.8,34.61c2.25,8.82,4.49,17.67,6.72,26.56l85.06,19.43
		c8.69-13.15,17.4-26.39,26.14-39.72C1488.94,1268.86,1476.26,1255.16,1463.59,1241.64"/>
	<path style="fill:#BEECF7;" d="M1463.59,1241.55c-26.74,11.97-53.39,23.54-79.82,34.62l0.02,0.08
		c26.38-11.08,53.02-22.6,79.8-34.61c12.68,13.52,25.35,27.22,38.12,40.88l0.05-0.08
		C1488.95,1268.78,1476.31,1255.07,1463.59,1241.55"/>
	
		<linearGradient id="SVGID_34_" gradientUnits="userSpaceOnUse" x1="0" y1="2048" x2="1" y2="2048" gradientTransform="matrix(439.1499 0 0 -439.1499 1271.6538 900569.5)">
		<stop  offset="0" style="stop-color:#2AC0E5"/>
		<stop  offset="0.1633" style="stop-color:#2AC0E5"/>
		<stop  offset="1" style="stop-color:#1094DF"/>
	</linearGradient>
	<path style="fill:url(#SVGID_34_);" d="M1369.57,1136.31c-3.52,1.29-7.04,2.56-10.55,3.84l0.02-0.1l-0.02,0.01l-23.89,99.22
		c2.77,1.75,5.55,3.5,8.32,5.25l4.63-18.24L1369.57,1136.31"/>
	<path style="fill:#BEECF7;" d="M1377.76,1133.3c-2.72,1.01-5.45,2.01-8.19,3.01l-21.49,89.98l-4.63,18.24
		c11.19,7.06,22.36,14.13,33.59,21.23c25.74-10.76,51.57-22.01,77.67-33.65c-12.88-13.28-25.72-26.65-38.65-39.8
		c-0.13-0.13-0.36-0.4-0.58-0.58c-0.13-0.13-0.22-0.36-0.31-0.58C1402.72,1171.65,1390.17,1152.39,1377.76,1133.3"/>
	<path style="fill:#BEECF7;" d="M1377.76,1133.21c-6.27,2.31-12.49,4.58-18.71,6.84l-0.02,0.1c3.51-1.28,7.03-2.55,10.55-3.84
		c2.73-1,5.46-2,8.19-3.01c12.41,19.09,24.96,38.35,37.42,57.84c0.09,0.22,0.18,0.44,0.31,0.58c0.22,0.18,0.45,0.44,0.58,0.58
		c12.93,13.15,25.77,26.52,38.65,39.8l0.06-0.03c-12.9-13.3-25.76-26.74-38.71-39.86c-0.09-0.13-0.36-0.4-0.58-0.58
		c-0.13-0.13-0.22-0.36-0.31-0.58C1402.72,1171.61,1390.22,1152.3,1377.76,1133.21"/>
	
		<linearGradient id="SVGID_35_" gradientUnits="userSpaceOnUse" x1="0" y1="2048" x2="1" y2="2048" gradientTransform="matrix(439.1499 0 0 -439.1499 1271.6538 900499.6875)">
		<stop  offset="0" style="stop-color:#2AC0E5"/>
		<stop  offset="0.1633" style="stop-color:#2AC0E5"/>
		<stop  offset="1" style="stop-color:#1094DF"/>
	</linearGradient>
	<path style="fill:url(#SVGID_35_);" d="M1365.19,1114.61l-2.87,11.98c2.92-1.1,5.83-2.17,8.75-3.27
		C1369.13,1120.39,1367.14,1117.52,1365.19,1114.61"/>
	<path style="fill:#BEECF7;" d="M1365.21,1114.52l-0.02,0.08c1.95,2.92,3.93,5.79,5.88,8.71l0.06-0.02
		C1369.17,1120.35,1367.17,1117.46,1365.21,1114.52"/>
	<path style="fill:#BEECF7;" d="M1332.6,1249.96l-7.96,33.1c3.28-1.04,6.55-2.08,9.83-3.13l6.28-24.72
		c-2.72-1.72-5.43-3.44-8.14-5.16l0.02-0.08L1332.6,1249.96"/>
	<path style="fill:#BEECF7;" d="M1340.74,1255.21l-6.28,24.72c9.91-3.17,19.85-6.41,29.86-9.74
		C1356.5,1265.21,1348.61,1260.2,1340.74,1255.21"/>
	<path style="fill:#BEECF7;" d="M1332.62,1249.97l-0.02,0.08c2.71,1.72,5.42,3.44,8.14,5.16c7.87,4.99,15.76,10,23.58,14.98
		l0.09-0.03C1353.87,1263.44,1343.2,1256.73,1332.62,1249.97"/>
	
		<linearGradient id="SVGID_36_" gradientUnits="userSpaceOnUse" x1="0" y1="2048" x2="1" y2="2048" gradientTransform="matrix(439.1499 0 0 -439.1499 1271.6538 900166.6875)">
		<stop  offset="0" style="stop-color:#2AC0E5"/>
		<stop  offset="0.1633" style="stop-color:#2AC0E5"/>
		<stop  offset="1" style="stop-color:#1094DF"/>
	</linearGradient>
	<path style="fill:url(#SVGID_36_);" d="M1451.93,752.31l-13.7,58.95l-0.85,3.56c2.41,2.42,4.81,4.84,7.21,7.26l10.41-45.35
		l86.89,21.05l108,25.19l0.03-0.05c-0.49-3.65-0.98-7.25-1.47-10.9l-105-31.41L1451.93,752.31"/>
	<path style="fill:#BEECF7;" d="M1455,776.74l-10.41,45.35c15.82,15.96,31.57,32.07,47.29,48.49c18.73,3.34,37.6,6.81,56.37,10.23
		c18.91,3.43,37.69,6.67,56.59,10.14c14.85-22.45,29.92-45.08,45.04-67.98l-108-25.19L1455,776.74"/>
	<path style="fill:#BEECF7;" d="M1548.25,880.81c18.91,3.47,37.69,6.72,56.59,10.14C1585.94,887.48,1567.16,884.23,1548.25,880.81
		 M1649.92,822.92l-0.03,0.05c-15.12,22.9-30.19,45.53-45.04,67.98C1619.71,868.53,1634.79,845.83,1649.92,822.92 M1648.45,812.02
		c0.49,3.65,0.98,7.25,1.47,10.9C1649.43,819.27,1648.94,815.67,1648.45,812.02"/>
	
		<linearGradient id="SVGID_37_" gradientUnits="userSpaceOnUse" x1="0" y1="2048" x2="1" y2="2048" gradientTransform="matrix(439.1499 0 0 -439.1499 1271.6538 900275.875)">
		<stop  offset="0" style="stop-color:#2AC0E5"/>
		<stop  offset="0.1633" style="stop-color:#2AC0E5"/>
		<stop  offset="1" style="stop-color:#1094DF"/>
	</linearGradient>
	<path style="fill:url(#SVGID_37_);" d="M1417.17,937.03c-5.07,8.29-10.14,16.56-15.21,24.84c-0.36,0.53-0.67,1.11-1.02,1.65
		c0.18,0.04,0.4,0.09,0.58,0.13c2.91,0.76,5.83,1.53,8.75,2.29L1417.17,937.03 M1434.29,827.62l-19.2,79.7
		c2.48,2.41,4.97,4.8,7.45,7.23l19-79.57C1439.13,832.53,1436.71,830.07,1434.29,827.62"/>
	<path style="fill:#BEECF7;" d="M1441.54,834.98l-19,79.57c0.72,0.7,1.44,1.41,2.16,2.12c1.02,1.07,2.09,2,3.11,3.07
		c-0.76,1.16-1.33,2.36-2.22,3.51c-2.81,4.6-5.61,9.19-8.42,13.78l-6.91,28.91c18.81,4.92,37.63,9.84,56.39,14.93
		c21.84,5.92,43.64,11.65,65.53,17.48c21.75-31.8,43.62-64.13,65.46-96.86c-18.38-3.29-36.71-6.54-55.04-10.01
		c-18.33-3.38-36.66-6.81-55.08-10.41c-0.58,0-1.25-0.13-1.78-0.31c-0.49-0.44-0.8-0.8-1.25-1.33
		C1470.26,864.39,1455.92,849.61,1441.54,834.98"/>
	<path style="fill:#BEECF7;" d="M1434.31,827.55l-0.02,0.07c2.42,2.45,4.84,4.9,7.25,7.36c14.38,14.63,28.71,29.41,42.95,44.44
		c0.44,0.53,0.76,0.89,1.25,1.33c0.53,0.18,1.2,0.31,1.78,0.31c18.42,3.6,36.75,7.03,55.08,10.41c18.33,3.47,36.66,6.72,55.04,10.01
		c-21.84,32.73-43.71,65.06-65.46,96.86l0.01,0c21.76-31.81,43.65-64.16,65.49-96.9c-18.38-3.29-36.71-6.58-55.04-10.01
		c-18.33-3.38-36.66-6.85-55.08-10.41c-0.58,0-1.25-0.13-1.78-0.31c-0.49-0.45-0.8-0.85-1.25-1.33
		C1467.86,861.85,1451.08,844.63,1434.31,827.55"/>
	
		<linearGradient id="SVGID_38_" gradientUnits="userSpaceOnUse" x1="0" y1="2048" x2="1" y2="2048" gradientTransform="matrix(439.1499 0 0 -439.1499 1271.6538 900301.8125)">
		<stop  offset="0" style="stop-color:#2AC0E5"/>
		<stop  offset="0.1633" style="stop-color:#2AC0E5"/>
		<stop  offset="1" style="stop-color:#1094DF"/>
	</linearGradient>
	<path style="fill:url(#SVGID_38_);" d="M1412.1,919.68l-1.48,6.08c1-1.56,1.95-3.13,2.91-4.69
		C1413.05,920.64,1412.58,920.16,1412.1,919.68"/>
	<path style="fill:#BEECF7;" d="M1412.11,919.65l-0.01,0.04c0.48,0.48,0.96,0.95,1.43,1.39c-0.96,1.56-1.91,3.13-2.91,4.69
		l-0.03,0.11c0.98-1.6,1.96-3.2,2.98-4.81C1413.09,920.58,1412.6,920.14,1412.11,919.65"/>
	
		<linearGradient id="SVGID_39_" gradientUnits="userSpaceOnUse" x1="0" y1="2048" x2="1" y2="2048" gradientTransform="matrix(439.1499 0 0 -439.1499 1271.6538 900427.375)">
		<stop  offset="0" style="stop-color:#2AC0E5"/>
		<stop  offset="0.1633" style="stop-color:#2AC0E5"/>
		<stop  offset="1" style="stop-color:#1094DF"/>
	</linearGradient>
	<path style="fill:url(#SVGID_39_);" d="M1742.73,968.28l-0.01,0.01l-0.03,0.13c-4.98,2.54-9.95,5.08-14.93,7.6l-36.35,152.31
		c4.89-2.62,9.78-5.28,14.71-7.88L1742.73,968.28"/>
	<path style="fill:#BEECF7;" d="M1727.76,976.01c-3.57,1.81-7.13,3.61-10.7,5.39c-22.33,10.99-44.71,21.67-66.92,32.17
		c-23.33,53.1-46.66,105.76-69.72,157.89c36.03-13.25,72.41-27.26,108.83-41.99c0.72-0.38,1.44-0.77,2.15-1.15L1727.76,976.01"/>
	<path style="fill:#BEECF7;" d="M1742.72,968.28c-8.54,4.36-17.08,8.72-25.61,12.98c-22.33,10.95-44.71,21.67-66.92,32.12
		c-23.36,53.17-46.72,105.85-69.81,158.08l0.04-0.02c23.06-52.13,46.39-104.78,69.72-157.89c22.2-10.5,44.58-21.18,66.92-32.17
		c3.57-1.78,7.13-3.58,10.7-5.39c4.98-2.52,9.95-5.06,14.93-7.6L1742.72,968.28"/>
	<path style="fill:#FFFFFF;" d="M1509.5,1261.17c-0.18-0.04-0.31-0.09-0.49-0.13c22.65,6.99,43.6,18.82,61.18,34.75l4.58,4.18
		l-21.98,21.53l-4.09-3.65c-16.28-14.5-36.22-24.83-57.57-29.77c-20.73-4.81-42.36-4.54-62.87,0.85l-5.29,1.38l-9.7-29.01
		c-2.36,0.76-4.72,1.56-6.99,2.4l9.7,28.96l-5.03,2.09c-37.28,15.53-64.96,46.45-76.08,84.94l17.71,4.14
		c0.36,0.09,0.71,0.22,1.07,0.31l212.9,48.63l24.52,5.96c6.67-38.53-4.05-77.73-29.54-107.76l-3.51-4.14l21.98-21.53l4.05,4.72
		c9.03,10.46,16.55,21.85,22.6,33.9C1589.99,1307.17,1551.59,1273.41,1509.5,1261.17z"/>
	<path style="fill:#07061C;" d="M1440.58,758.67l-23.54,78.35l-16.95,73.99l-73.19,306.51l-35.02,141.57l-10.01,40.31l348.42,80.58
		l9.34-45.43l2.89-12.41c0.71-2,1.2-3.74,1.65-5.47l106.07-444.08c0.09-0.36,0.18-0.76,0.22-1.16l32.35-136.28L1440.58,758.67z
		 M1751.76,854.24L1718.3,996.8l-95.66,400.47c-2.18-18.6-7.61-36.62-16.02-53.44c-6.05-12.01-13.57-23.4-22.6-33.9l-4.05-4.72
		l-21.98,21.53l3.52,4.14c25.49,30.03,36.22,69.23,29.54,107.76l-24.52-5.96l-212.9-48.63c-0.36-0.09-0.71-0.18-1.07-0.31
		l-17.71-4.14c11.12-38.49,38.8-69.41,76.08-84.94l5.03-2.09l-9.7-28.96l-0.09-0.22l-5.78,2.36
		c-30.12,12.24-55.17,32.57-72.92,58.33l2.18-8.54l95.7-400.7l10.37-45.25l56.91-74.57L1751.76,854.24z"/>
	<path style="fill:#07061C;" d="M1428.3,1288.89c20.56-5.38,42.18-5.65,62.87-0.85c21.36,4.98,41.24,15.26,57.57,29.77l4.09,3.65
		l21.98-21.53l-4.58-4.18c-17.57-15.93-38.53-27.76-61.18-34.75c-3.56-1.11-7.21-2.09-10.86-2.94c-26.03-6.05-53.26-5.61-78.93,1.38
		l-6.01,1.6l0.09,0.22l9.7,29.01L1428.3,1288.89z"/>
	
		<linearGradient id="SVGID_40_" gradientUnits="userSpaceOnUse" x1="0" y1="2048" x2="1" y2="2048" gradientTransform="matrix(432.1703 0 0 -432.1703 1254.7593 885943.8125)">
		<stop  offset="0" style="stop-color:#2AC1E5"/>
		<stop  offset="0.1633" style="stop-color:#2AC1E5"/>
		<stop  offset="1" style="stop-color:#0581DD"/>
	</linearGradient>
	<path style="fill:url(#SVGID_40_);" d="M1458.29,682.55c-27.9,0.13-55.53,9.3-78.8,27.72c-51.83,40.8-64.83,109.45-38.09,169.69
		c14.19,35.37,79.42,123.29,118.3,155.46c38.44-32.48,102.96-120.93,116.84-156.39c26.25-60.46,12.72-129.03-39.46-169.38
		C1513.68,691.4,1485.96,682.46,1458.29,682.55z M1458.51,739.41c38.57-0.18,70.12,32.48,70.3,72.83
		c0.18,40.18-31.14,73.06-69.72,73.19c-38.75,0.18-70.34-32.48-70.52-72.66C1388.44,772.42,1419.76,739.59,1458.51,739.41z"/>
	<path style="fill:#FFFFFF;" d="M1458.74,710.31h-0.44c-27.72,0.13-53.75,11.03-73.28,30.7c-19.53,19.67-30.21,45.78-30.12,73.55
		c0.22,56.99,46.81,103.36,103.8,103.36h0.44c27.72-0.13,53.75-11.03,73.28-30.7s30.21-45.78,30.12-73.55
		C1562.31,756.67,1515.73,710.31,1458.74,710.31z"/>
	<path style="fill:#FFFFFF;" d="M1458.74,710.31v-1.22h-0.44h-0.01c-28.03,0.13-54.38,11.17-74.14,31.06
		c-19.68,19.81-30.48,46.11-30.48,74.06c0,0.11,0,0.23,0,0.35v0c0.23,57.67,47.35,104.56,105.02,104.57h0.44h0.01
		c28.03-0.13,54.38-11.17,74.14-31.06c19.68-19.81,30.48-46.11,30.48-74.06c0-0.12,0-0.23,0-0.35v0
		c-0.23-57.67-47.35-104.56-105.02-104.57V710.31v1.22c56.32,0,102.37,45.82,102.58,102.14v0c0,0.12,0,0.23,0,0.34
		c0,27.32-10.54,52.98-29.77,72.34c-19.31,19.44-45.02,30.21-72.42,30.34h-0.44c-56.32,0-102.37-45.82-102.58-102.14v0
		c0-0.11,0-0.22,0-0.34c0-27.32,10.54-52.98,29.77-72.34c19.31-19.44,45.02-30.21,72.42-30.34h-0.01h0.44V710.31z"/>
	<path style="fill:#07061C;" d="M1418.69,841.03h-41.07v-8.14l19.35-20.64c1.47-1.6,2.67-3.03,3.69-4.36
		c0.98-1.33,1.82-2.54,2.45-3.6c0.62-1.11,1.07-2.14,1.33-3.07s0.4-1.87,0.4-2.71c0-2.67-0.67-4.76-2-6.27
		c-1.33-1.51-3.25-2.27-5.74-2.27c-1.38,0-2.63,0.27-3.74,0.76c-1.07,0.49-2,1.2-2.71,2.09c-0.71,0.89-1.29,1.96-1.65,3.2
		c-0.4,1.25-0.58,2.58-0.58,4.05h-11.92c0-2.67,0.49-5.21,1.42-7.61c0.98-2.4,2.36-4.45,4.14-6.27c1.82-1.78,4-3.2,6.54-4.23
		c2.58-1.02,5.43-1.56,8.68-1.56c3.16,0,5.96,0.4,8.36,1.16c2.45,0.8,4.45,1.91,6.1,3.34c1.65,1.47,2.89,3.25,3.74,5.34
		c0.85,2.09,1.29,4.49,1.29,7.12c0,2-0.31,3.92-0.93,5.78c-0.62,1.87-1.51,3.74-2.67,5.61s-2.54,3.74-4.18,5.65
		c-1.65,1.91-3.47,3.87-5.47,5.96l-10.59,11.17h25.76L1418.69,841.03L1418.69,841.03z"/>
	<path style="fill:#07061C;" d="M1466.25,816.25c0,4.49-0.49,8.36-1.47,11.57c-0.98,3.2-2.36,5.87-4.09,7.96
		c-1.78,2.09-3.92,3.6-6.36,4.58c-2.49,0.98-5.25,1.47-8.23,1.47c-3.03,0-5.78-0.49-8.23-1.47c-2.49-0.98-4.63-2.49-6.41-4.58
		c-1.78-2.09-3.16-4.72-4.14-7.96c-0.98-3.2-1.47-7.07-1.47-11.57v-10.41c0-4.49,0.49-8.36,1.47-11.57c0.98-3.2,2.36-5.87,4.14-7.92
		c1.78-2.09,3.92-3.6,6.36-4.58c2.45-0.98,5.21-1.47,8.23-1.47c3.03,0,5.78,0.49,8.23,1.47c2.49,0.98,4.63,2.49,6.41,4.58
		c1.78,2.09,3.16,4.72,4.14,7.92c0.98,3.2,1.47,7.07,1.47,11.57v10.41H1466.25z M1454.38,804.19c0-2.67-0.18-4.89-0.58-6.72
		c-0.36-1.82-0.93-3.29-1.65-4.36c-0.71-1.11-1.6-1.91-2.67-2.4c-1.02-0.49-2.22-0.76-3.51-0.76c-1.33,0-2.49,0.27-3.51,0.76
		c-1.02,0.49-1.91,1.29-2.63,2.4c-0.71,1.11-1.25,2.58-1.6,4.36c-0.36,1.82-0.58,4.05-0.58,6.72v13.66c0,2.67,0.18,4.94,0.58,6.81
		c0.4,1.82,0.93,3.34,1.65,4.45c0.71,1.16,1.6,1.96,2.63,2.45c1.02,0.49,2.22,0.76,3.56,0.76c1.33,0,2.49-0.27,3.52-0.76
		c1.02-0.49,1.91-1.29,2.63-2.45c0.71-1.16,1.25-2.63,1.6-4.45c0.36-1.82,0.58-4.09,0.58-6.81L1454.38,804.19L1454.38,804.19z"/>
	<path style="fill:#07061C;" d="M1475.42,835.2c0-0.89,0.18-1.74,0.49-2.54s0.76-1.47,1.33-2c0.58-0.58,1.29-1.02,2.14-1.33
		c0.8-0.31,1.74-0.49,2.76-0.49c1.02,0,1.96,0.18,2.76,0.49c0.85,0.31,1.56,0.76,2.14,1.33c0.58,0.58,1.02,1.25,1.33,2
		c0.31,0.8,0.49,1.6,0.49,2.54c0,0.89-0.18,1.74-0.49,2.49c-0.31,0.76-0.76,1.42-1.33,2c-0.58,0.58-1.29,0.98-2.14,1.33
		c-0.85,0.31-1.78,0.49-2.76,0.49c-0.98,0-1.91-0.18-2.76-0.49c-0.85-0.31-1.51-0.76-2.14-1.33c-0.58-0.58-1.02-1.25-1.33-2
		C1475.55,836.94,1475.42,836.09,1475.42,835.2z"/>
	<path style="fill:#07061C;" d="M1530.99,780.52v9.79h-0.71c-2.85,0-5.34,0.36-7.61,1.11c-2.27,0.71-4.18,1.78-5.83,3.11
		c-1.65,1.33-2.94,2.98-3.96,4.89c-1.02,1.91-1.65,4.09-2,6.45c1.47-1.47,3.2-2.67,5.21-3.56c2-0.89,4.32-1.33,6.9-1.33
		c2.8,0,5.29,0.53,7.43,1.65c2.14,1.07,3.92,2.54,5.34,4.4s2.49,4,3.2,6.45c0.71,2.45,1.07,5.07,1.07,7.83
		c0,2.89-0.49,5.61-1.42,8.14c-0.93,2.49-2.31,4.67-4.05,6.54c-1.74,1.82-3.87,3.29-6.36,4.36s-5.25,1.6-8.32,1.6
		c-3.2,0-6.1-0.58-8.72-1.74c-2.63-1.16-4.81-2.8-6.63-4.89c-1.82-2.09-3.25-4.63-4.23-7.52c-0.98-2.94-1.51-6.14-1.51-9.65v-4.63
		c0-4.81,0.67-9.25,2.05-13.3s3.34-7.52,5.96-10.41s5.78-5.16,9.57-6.81c3.78-1.65,8.1-2.45,12.9-2.45h1.74V780.52z M1519.42,810.51
		c-1.07,0-2.05,0.13-2.94,0.44c-0.89,0.27-1.74,0.67-2.45,1.2c-0.76,0.49-1.38,1.11-1.96,1.78c-0.58,0.67-1.02,1.38-1.33,2.14v3.56
		c0,2.09,0.22,3.96,0.67,5.56s1.07,2.94,1.82,3.96c0.8,1.07,1.74,1.82,2.85,2.36s2.31,0.8,3.65,0.8c1.29,0,2.45-0.27,3.51-0.8
		s1.96-1.29,2.71-2.27c0.76-0.98,1.33-2.09,1.74-3.43c0.4-1.33,0.62-2.76,0.62-4.36c0-1.6-0.18-3.07-0.58-4.36
		c-0.4-1.33-0.98-2.49-1.74-3.47c-0.76-0.98-1.69-1.74-2.76-2.27C1522,810.78,1520.8,810.51,1519.42,810.51z"/>
	<path style="fill:#07061C;" d="M1563.07,1361.28l-40.4,1.29c-17.44,0.18-36.44,0.31-45.96,0.36c-1.91-1.47-4.18-2.49-6.72-2.94
		c-8.45-1.51-16.55,4.14-18.06,12.59s4.14,16.55,12.59,18.06c6.54,1.16,12.86-1.96,16.06-7.3l56.59-14.95c0.31-0.09-0.27,0.13,0,0
		L1563.07,1361.28z"/>
	<path style="fill:#F9B280;" d="M1747.52,1377.36c-0.24-0.6-0.44-1.11-0.6-1.59C1747.08,1376.21,1747.28,1376.73,1747.52,1377.36z"
		/>
	<path style="fill:#F9B280;" d="M1747.91,1378.36c1.11,2.94,2.74,7.31,5.16,13.74C1752.36,1390.23,1749.74,1383.2,1747.91,1378.36z"
		/>
	<path style="fill:#F9B280;" d="M1898.68,1191.52c1.35-2.94,2.58-5.84,3.61-8.58c0.87-2.3,1.63-4.53,2.18-6.47
		c4.05-14.93,1.83-31.18-6.12-44.56l-105.41-169.84c-1.59-2.66-3.81-4.93-6.43-6.51c-6.91-4.17-15.65-3.5-21.77,1.71
		c-15.57,13.23-20.06,36.22-13.42,68.36c5.56,26.73,17.71,54.18,26.97,72.57c31.1,50.8,35.43,96.04,26.89,135.08
		c-0.87,1.99-1.31,4.05-1.47,6.2c-13.19,51.2-37.06,87.74-60.61,114.71l-5.48,0.71l-16.6-10.09c8.67,13.13,14.23,20.47,18.07,25.14
		h187.82C1877,1277.02,1890.78,1213.55,1898.68,1191.52z"/>
	<path style="fill:#F9B280;" d="M1747.72,1377.91c-0.07-0.19-0.14-0.38-0.21-0.55C1747.58,1377.54,1747.65,1377.72,1747.72,1377.91z
		"/>
	<path style="fill:#F9B280;" d="M1746.92,1375.77c-0.13-0.34-0.24-0.63-0.35-0.9C1746.67,1375.13,1746.79,1375.42,1746.92,1375.77z"
		/>
</g>
</svg>
