<?xml version="1.0" encoding="utf-8"?>
<!-- Generator: Adobe Illustrator 18.0.0, SVG Export Plug-In . SVG Version: 6.00 Build 0)  -->
<!DOCTYPE svg PUBLIC "-//W3C//DTD SVG 1.0//EN" "http://www.w3.org/TR/2001/REC-SVG-20010904/DTD/svg10.dtd">
<svg version="1.0" id="Layer_1" xmlns="http://www.w3.org/2000/svg" xmlns:xlink="http://www.w3.org/1999/xlink" x="0px" y="0px"
	 viewBox="0 98.38 682 272.29" style="enable-background:new 0 98.38 682 272.29;" xml:space="preserve">
<polygon style="fill:#FFFFFF;" points="682.88,357.26 -0.5,377.26 -0.5,98.38 682.88,98.38 "/>
<linearGradient id="SVGID_1_" gradientUnits="userSpaceOnUse" x1="7" y1="311.5906" x2="689.8804" y2="311.5906">
	<stop  offset="0" style="stop-color:#2A8FE5"/>
	<stop  offset="1" style="stop-color:#0578AB"/>
</linearGradient>
<polygon style="fill:url(#SVGID_1_);" points="689.81,329.32 689.81,330.15 452.02,330.15 439.47,231.18 434.47,225.7 429,225.7 
	429,231.18 426.7,231.18 424.62,303.41 415.5,303.41 413.4,231.33 408.4,225.85 402.75,225.85 402.75,231.44 400.34,231.46 
	388.34,307.02 376.42,307.02 376.42,286.02 371.42,280.54 364,280.54 362.88,285.98 348,285.95 348.02,307.02 337.81,307.02 
	327.96,253.85 321.96,249.37 314.75,249.37 314.75,254.85 312.23,254.85 297.34,330.15 180.05,330.15 180.05,330.13 7.5,330.13 
	7,330.15 7,339.66 7,340.69 7,397.48 689.88,397.48 689.88,329.84 "/>
<linearGradient id="SVGID_2_" gradientUnits="userSpaceOnUse" x1="0" y1="308.852" x2="682.8804" y2="308.852">
	<stop  offset="0" style="stop-color:#2AC1E5"/>
	<stop  offset="1" style="stop-color:#0581DD"/>
</linearGradient>
<polygon style="fill:url(#SVGID_2_);" points="682.81,323.85 682.81,324.67 447.02,324.67 434.47,225.7 419.7,225.7 417.62,297.93 
	410.5,297.93 408.4,225.85 393.34,225.98 381.34,301.54 371.42,301.54 371.42,280.54 341,280.48 341.02,301.54 331.81,301.54 
	321.96,249.37 305.23,249.37 290.34,324.67 173.05,324.67 173.05,324.65 0.5,324.65 0,324.67 0,334.18 0,335.22 0,392 682.88,392 
	682.88,324.36 "/>
<g>
	<linearGradient id="SVGID_3_" gradientUnits="userSpaceOnUse" x1="540.4026" y1="574.2666" x2="677.5842" y2="574.2666">
		<stop  offset="0" style="stop-color:#2A8FE5"/>
		<stop  offset="1" style="stop-color:#0578AB"/>
	</linearGradient>
	<path style="fill:url(#SVGID_3_);" d="M670.25,488.61c-0.08-0.09-0.15-0.16-0.22-0.24c0.57,0.68,1.1,1.4,1.57,2.17
		c2.47,4.07,3.22,8.84,2.1,13.45L647.09,615.4l0.05,0.01l-4.84,19.84l-1.66,7.08c-1.92,7.87-9.34,13.58-17.64,13.58
		c-1.43,0-2.85-0.17-4.22-0.51l-66.28-15.46c-4.61-1.12-8.51-3.98-10.98-8.05c-0.43-0.7-0.78-1.44-1.11-2.18
		c0.36,2.24,1.16,4.42,2.38,6.42c2.47,4.07,6.38,6.93,10.98,8.05l66.28,15.46c1.38,0.34,2.8,0.51,4.22,0.51
		c8.3,0,18.74-5.71,20.66-13.58l2.19-7.08l4.44-19.86l25.73-109.46C678.95,502.67,673.31,492.13,670.25,488.61z"/>
	<g>
		<linearGradient id="SVGID_4_" gradientUnits="userSpaceOnUse" x1="525.6341" y1="560.8599" x2="708.6945" y2="560.8599">
			<stop  offset="0.1633" style="stop-color:#2AC1E5"/>
			<stop  offset="1" style="stop-color:#0581DD"/>
		</linearGradient>
		<path style="fill:url(#SVGID_4_);" d="M659.19,486.75l-66.25-15.46c-1.01-0.25-2.05-0.37-3.08-0.37c-6.04,0-11.25,4.09-12.68,9.96
			l-21.73,90.98l-0.13-0.05l-11.56,47.4c-0.82,3.37-0.28,6.87,1.54,9.85c1.81,2.98,4.68,5.08,8.06,5.9l66.25,15.46
			c1.01,0.25,2.06,0.37,3.1,0.37c6.13,0,11.61-4.19,13.02-9.97l3.58-15.33c0.19-0.56,0.33-1.01,0.44-1.45l29.03-121.54
			c0.82-3.37,0.28-6.87-1.54-9.86C665.43,489.67,662.57,487.58,659.19,486.75z"/>
		<linearGradient id="SVGID_5_" gradientUnits="userSpaceOnUse" x1="525.6341" y1="561.2228" x2="708.6945" y2="561.2228">
			<stop  offset="0.1633" style="stop-color:#2AC1E5"/>
			<stop  offset="1" style="stop-color:#0581DD"/>
		</linearGradient>
		<path style="fill:url(#SVGID_5_);" d="M672.03,490.27c-0.44-0.71-0.96-1.44-1.62-2.23c-2.52-3.03-5.87-5.12-9.68-6.05
			l-66.27-15.46c-5.34-1.3-11.18-0.05-15.54,3.32c-3.27,2.53-5.6,6.13-6.58,10.14l-20.38,85.35l-0.1-0.04l-12.93,53.02
			c-0.95,3.89-0.6,7.9,1.01,11.6c0.38,0.87,0.74,1.58,1.14,2.24c2.54,4.18,6.55,7.13,11.3,8.28l66.27,15.46
			c1.42,0.35,2.88,0.52,4.34,0.52c8.53,0,16.15-5.87,18.13-13.97l1.65-7.08l4.84-19.84l0.07-0.49l0,0l26.5-110.93
			C675.34,499.37,674.58,494.46,672.03,490.27z M668.78,502.51l-29.03,121.54c-0.11,0.44-0.25,0.9-0.44,1.45l-3.58,15.33
			c-1.41,5.78-6.88,9.97-13.02,9.97c-1.04,0-2.09-0.13-3.1-0.37l-66.25-15.46c-3.39-0.83-6.25-2.92-8.06-5.9
			c-1.81-2.98-2.36-6.48-1.54-9.85l11.56-47.4l0.13,0.05l21.73-90.98c1.43-5.86,6.64-9.96,12.68-9.96c1.03,0,2.06,0.12,3.08,0.37
			l66.25,15.46c3.39,0.82,6.25,2.92,8.06,5.9C669.06,495.64,669.61,499.14,668.78,502.51z"/>
	</g>
	<path style="fill:#FFFFFF;" d="M607.94,497.75c0.32-0.17,0.53-0.49,0.64-0.96c0.1-0.45,0.04-0.82-0.17-1.13
		c-0.22-0.3-0.59-0.52-1.12-0.64c-0.19-0.04-0.34-0.08-0.47-0.1c-0.12-0.02-0.25-0.04-0.39-0.04l-0.63,2.73l0.93,0.22
		C607.21,497.94,607.62,497.91,607.94,497.75z"/>
	<path style="fill:#FFFFFF;" d="M604.33,569.35l-0.05,0c-1.05,0.01-2.02,0.49-2.73,1.34l-0.02,0.02l-22.61,26.28
		c-0.92,1.15-1.19,2.65-0.72,4.01c0.43,1.23,1.4,2.1,2.67,2.38l31.79,7.08c0.28,0.06,0.57,0.1,0.84,0.1l0.05,0
		c1.1-0.02,2.14-0.55,2.85-1.48c0.78-1.01,1.05-2.31,0.74-3.58l-9.33-33.41C607.29,570.06,605.61,569.35,604.33,569.35z
		 M601.23,600.72c-0.28,1.28-1.87,2.01-3.53,1.64c-1.67-0.37-2.79-1.71-2.5-2.98c0.28-1.28,1.87-2.01,3.53-1.64
		C600.39,598.11,601.52,599.44,601.23,600.72z M601.53,593.51c-0.28,1.24-0.34,2.35-1.58,2.07l-1.24-0.28
		c-1.24-0.28-0.83-1.3-0.55-2.55l1.69-13.43c0.28-1.24,1.58-2.07,2.82-1.8l1.24,0.28c1.24,0.28,2.07,1.58,1.79,2.83L601.53,593.51z"
		/>
	<path style="fill:#FFFFFF;" d="M591.89,475.65c-0.69-0.17-1.36-0.25-2.04-0.25c-3.9,0-7.41,2.75-8.33,6.53l-28.73,120.3
		c-0.75,3.07-0.26,6.23,1.38,8.92c1.64,2.69,4.23,4.57,7.29,5.31l61.58,14.06c5.63,1.34,11.04-2.14,12.35-7.51l29.04-121.54
		c0.54-2.22,0.18-4.52-1.01-6.48c-1.19-1.96-3.06-3.34-5.27-3.87L591.89,475.65z M631.62,536.82c-0.69-1.39-0.19-3.08,1.15-3.87
		c1.48-0.87,3.38-0.29,4.14,1.25c2.09,4.2,3.25,8.94,3.19,13.94c-0.01,1.11-0.09,2.23-0.22,3.33c-0.18,1.49-1.46,2.61-2.96,2.59
		c-0.23,0-0.46-0.03-0.68-0.09c-1.45-0.36-2.4-1.74-2.22-3.21c0.11-0.89,0.17-1.8,0.18-2.69
		C634.25,544.03,633.31,540.21,631.62,536.82z M626.3,499.25c0.16-0.7,0.71-1.1,1.63-1.18l2.13-0.21l0.65,0.15
		c0.5,0.12,0.87,0.36,1.1,0.72c0.23,0.36,0.28,0.8,0.16,1.3l-2.13,9.17c-0.13-0.01-0.33-0.02-0.59-0.04
		c-0.26-0.02-0.52-0.06-0.78-0.12c-0.26-0.06-0.49-0.13-0.68-0.21c-0.2-0.08-0.35-0.19-0.47-0.33c-0.12-0.14-0.19-0.31-0.23-0.51
		c-0.03-0.2-0.02-0.45,0.05-0.74l1.53-6.59l-1.89,0.14c-0.15-0.16-0.29-0.36-0.41-0.62C626.24,499.94,626.22,499.63,626.3,499.25z
		 M614.9,494.71c0.36-0.1,0.82-0.09,1.4,0.05c0.62,0.14,1.09,0.35,1.39,0.63c0.31,0.28,0.49,0.65,0.56,1.12
		c0.04,0.31,0.08,0.66,0.12,1.05c0.04,0.39,0.07,0.8,0.11,1.21c0.03,0.42,0.06,0.83,0.09,1.24c0.03,0.41,0.05,0.78,0.08,1.1
		l0.09,0.02c0.51-0.92,1.01-1.81,1.51-2.67c0.5-0.86,0.93-1.57,1.31-2.14c0.2-0.05,0.44-0.08,0.73-0.08c0.29,0,0.61,0.04,0.95,0.12
		c0.58,0.13,1.03,0.33,1.35,0.58c0.32,0.25,0.48,0.55,0.46,0.88c-0.01,0.25-0.04,0.62-0.1,1.12c-0.06,0.5-0.13,1.06-0.21,1.69
		c-0.08,0.62-0.17,1.28-0.27,1.98c-0.1,0.69-0.2,1.36-0.29,2c-0.09,0.64-0.18,1.23-0.27,1.76c-0.09,0.53-0.16,0.94-0.21,1.22
		c-0.23,0.07-0.46,0.11-0.68,0.11c-0.23,0-0.51-0.04-0.85-0.11c-0.45-0.1-0.8-0.27-1.07-0.49c-0.27-0.22-0.36-0.56-0.28-1.01
		c0.23-1.3,0.45-2.46,0.67-3.48c0.22-1.03,0.39-1.89,0.52-2.59l-0.09-0.02c-0.22,0.43-0.53,0.97-0.91,1.61
		c-0.38,0.64-0.86,1.46-1.43,2.47c-0.18,0.09-0.4,0.15-0.66,0.17c-0.26,0.02-0.55-0.01-0.86-0.08c-0.42-0.1-0.76-0.23-1.01-0.4
		c-0.25-0.17-0.39-0.39-0.41-0.67c-0.09-1.11-0.16-2.01-0.23-2.7c-0.06-0.69-0.1-1.29-0.1-1.8l-0.09-0.02
		c-0.2,0.68-0.37,1.31-0.52,1.87c-0.15,0.57-0.29,1.12-0.42,1.66c-0.13,0.54-0.27,1.08-0.42,1.63c-0.15,0.55-0.31,1.15-0.5,1.81
		c-0.17,0.02-0.38,0.03-0.63,0.01c-0.26-0.02-0.51-0.05-0.75-0.11c-0.52-0.12-0.9-0.3-1.15-0.53c-0.25-0.23-0.32-0.56-0.22-1
		l2.6-8.86C614.3,494.93,614.55,494.82,614.9,494.71z M601.71,501.25l1.93-8.29c0.06-0.25,0.17-0.42,0.34-0.53
		c0.17-0.1,0.38-0.17,0.63-0.2c0.43-0.05,0.91-0.05,1.44,0.01c0.53,0.05,1.05,0.14,1.56,0.26c1.62,0.38,2.78,1.01,3.47,1.9
		c0.7,0.89,0.91,1.93,0.63,3.12c-0.13,0.58-0.35,1.07-0.63,1.5c-0.29,0.42-0.65,0.76-1.09,1.01c-0.44,0.25-0.95,0.4-1.54,0.46
		c-0.59,0.06-1.24,0-1.96-0.17l-1.25-0.29l-0.75,3.24c-0.14,0.01-0.35-0.01-0.63-0.04c-0.28-0.03-0.56-0.07-0.83-0.14
		c-0.27-0.06-0.5-0.14-0.7-0.23c-0.2-0.09-0.35-0.2-0.47-0.34c-0.12-0.14-0.19-0.31-0.21-0.51
		C601.62,501.81,601.64,501.55,601.71,501.25z M602.76,518.01c2.34-0.53,4.74-0.79,7.19-0.76c8.17,0.1,15.56,3.41,20.98,8.72
		c1.38,1.36,1.08,3.66-0.59,4.64c-1.16,0.68-2.61,0.48-3.57-0.46c-4.37-4.26-10.32-6.92-16.89-7c-1.96-0.02-3.89,0.19-5.75,0.62
		c-1.4,0.32-2.82-0.39-3.39-1.7l-0.01-0.02C600,520.36,600.97,518.42,602.76,518.01z M628.12,541.42l-15.27,6
		c-0.73,1.63-2.41,2.72-4.29,2.61c-2.44-0.14-4.31-2.23-4.18-4.68c0.14-2.44,2.23-4.31,4.68-4.18c0.73,0.04,1.41,0.26,2,0.6
		c3.37-0.42,10.95-1.4,16.6-2.13C628.71,539.51,629.11,541.01,628.12,541.42z M581.09,536.8c2.22-5.74,6.08-10.63,11.17-14.15
		c0.38-0.26,0.76-0.51,1.15-0.76c1.53-0.96,3.57-0.32,4.29,1.34c0.58,1.34,0.09,2.91-1.15,3.68c-4.44,2.78-8,6.95-9.96,12.04
		c-0.44,1.15-1.57,1.92-2.8,1.9c-0.23,0-0.45-0.03-0.68-0.09c-1.04-0.26-1.88-1.07-2.15-2.14
		C580.81,538.02,580.86,537.38,581.09,536.8z M622.26,604.2c0.71,2.84,0.1,5.8-1.67,8.1c-1.7,2.2-4.23,3.49-6.95,3.53
		c-0.04,0-0.08,0-0.12,0c-0.66,0-1.33-0.07-1.99-0.22l-31.79-7.08c-3.05-0.68-5.48-2.85-6.5-5.8c-1.08-3.11-0.47-6.5,1.62-9.09
		l0.04-0.05l22.64-26.31c1.7-2.03,4.08-3.16,6.68-3.2l0.13,0c4.07,0,7.51,2.67,8.57,6.63L622.26,604.2z M642.33,506.48
		c-0.21,0.9-0.51,1.68-0.91,2.33c-0.4,0.65-0.86,1.16-1.39,1.54c-0.53,0.38-1.11,0.62-1.75,0.74c-0.64,0.11-1.3,0.09-1.98-0.07
		c-0.69-0.16-1.3-0.43-1.82-0.81c-0.52-0.38-0.94-0.86-1.25-1.43c-0.31-0.57-0.49-1.24-0.56-1.99c-0.07-0.76,0.01-1.59,0.22-2.49
		c0.21-0.9,0.51-1.68,0.9-2.32c0.39-0.65,0.85-1.16,1.38-1.54c0.53-0.38,1.11-0.62,1.75-0.74c0.64-0.11,1.3-0.09,2,0.07
		c0.68,0.16,1.28,0.43,1.81,0.81c0.52,0.38,0.94,0.86,1.25,1.43c0.31,0.57,0.5,1.24,0.57,1.99
		C642.61,504.75,642.54,505.58,642.33,506.48z"/>
	<path style="fill:#FFFFFF;" d="M638.35,502.14c-0.55-0.13-1.04,0.06-1.46,0.55c-0.42,0.5-0.75,1.26-0.99,2.29
		c-0.24,1.03-0.28,1.87-0.13,2.5c0.16,0.64,0.51,1.02,1.06,1.15c0.55,0.13,1.04-0.06,1.47-0.56c0.43-0.5,0.77-1.27,1.01-2.3
		c0.24-1.03,0.28-1.87,0.11-2.5C639.26,502.65,638.9,502.27,638.35,502.14z"/>
	<path style="fill:#07061C;" d="M576.69,480.76l-21.6,90.44l-0.13-0.04l-11.69,47.94c-0.85,3.5-0.29,7.13,1.59,10.23
		s4.85,5.27,8.37,6.13l66.25,15.46c1.05,0.25,2.13,0.38,3.21,0.38c6.36,0,12.04-4.34,13.5-10.35l3.59-15.33
		c0.17-0.47,0.32-0.95,0.44-1.45l29.04-121.54c0.85-3.5,0.29-7.13-1.6-10.23s-4.85-5.27-8.37-6.13l-66.25-15.46
		c-1.05-0.25-2.12-0.38-3.19-0.38C583.59,470.42,578.17,474.67,576.69,480.76z M663.42,494.98c1.19,1.96,1.55,4.26,1.01,6.48
		L635.4,623c-1.31,5.38-6.72,8.86-12.35,7.51l-61.58-14.06c-3.06-0.74-5.65-2.62-7.29-5.31c-1.64-2.69-2.13-5.85-1.38-8.92
		l28.73-120.3c0.92-3.78,4.42-6.53,8.33-6.53c0.67,0,1.35,0.08,2.04,0.25l66.26,15.46C660.36,491.65,662.23,493.02,663.42,494.98z"
		/>
	<path style="fill:#07061C;" d="M604.34,564.08l-0.13,0c-2.6,0.04-4.97,1.17-6.68,3.2l-22.64,26.31l-0.04,0.05
		c-2.1,2.58-2.7,5.98-1.62,9.09c1.03,2.95,3.46,5.12,6.5,5.8l31.79,7.08c0.66,0.15,1.33,0.22,1.99,0.22c0.04,0,0.08,0,0.12,0
		c2.72-0.04,5.25-1.32,6.95-3.53c1.77-2.3,2.38-5.25,1.67-8.1l-9.35-33.48C611.85,566.74,608.41,564.08,604.34,564.08z
		 M617.15,605.5c0.3,1.26,0.03,2.57-0.74,3.58c-0.71,0.92-1.75,1.46-2.85,1.48l-0.05,0c-0.28,0-0.56-0.03-0.84-0.1l-31.79-7.08
		c-1.27-0.28-2.24-1.15-2.67-2.38c-0.47-1.36-0.21-2.86,0.72-4.01l22.61-26.28l0.02-0.02c0.71-0.85,1.68-1.32,2.73-1.34l0.05,0
		c1.28,0,2.96,0.72,3.5,2.74L617.15,605.5z"/>
	<path style="fill:#07061C;" d="M603.91,577.8l-1.24-0.28c-1.24-0.28-2.55,0.55-2.82,1.8l-1.69,13.43
		c-0.28,1.24-0.69,2.27,0.55,2.55l1.24,0.28c1.24,0.28,1.3-0.83,1.58-2.07l4.17-12.88C605.98,579.38,605.16,578.08,603.91,577.8z"/>
	
		<ellipse transform="matrix(0.2174 -0.9761 0.9761 0.2174 -117.5408 1053.4872)" style="fill:#07061C;" cx="598.21" cy="600.05" rx="2.37" ry="3.09"/>
	<path style="fill:#07061C;" d="M627.64,539.65c-5.65,0.73-13.22,1.71-16.6,2.13c-0.59-0.35-1.27-0.56-2-0.6
		c-2.44-0.14-4.54,1.73-4.68,4.18c-0.14,2.44,1.73,4.54,4.18,4.68c1.89,0.11,3.56-0.98,4.29-2.61l15.27-6
		C629.11,541.01,628.71,539.51,627.64,539.65z"/>
	<path style="fill:#07061C;" d="M636.24,553.97c0.22,0.06,0.45,0.08,0.68,0.09c1.51,0.02,2.78-1.09,2.96-2.59
		c0.13-1.1,0.21-2.22,0.22-3.33c0.06-5-1.09-9.74-3.19-13.94c-0.77-1.54-2.66-2.12-4.14-1.25c-1.34,0.78-1.84,2.47-1.15,3.87
		c1.69,3.39,2.62,7.21,2.57,11.25c-0.01,0.9-0.07,1.8-0.18,2.69C633.84,552.23,634.79,553.61,636.24,553.97z"/>
	<path style="fill:#07061C;" d="M600.73,522.07c0.57,1.32,1.99,2.02,3.39,1.7c1.86-0.43,3.79-0.64,5.75-0.62
		c6.57,0.08,12.52,2.74,16.89,7c0.96,0.94,2.42,1.13,3.57,0.46c1.67-0.98,1.97-3.29,0.59-4.64c-5.42-5.31-12.81-8.62-20.98-8.72
		c-2.44-0.03-4.85,0.23-7.19,0.76c-1.79,0.41-2.76,2.36-2.03,4.04L600.73,522.07z"/>
	<path style="fill:#07061C;" d="M583.11,540.77c0.22,0.06,0.45,0.08,0.68,0.09c1.23,0.01,2.35-0.75,2.8-1.9
		c2.11-5.49,6.09-9.91,11.02-12.67c1.44-3.72-1.93-5.82-4.2-4.4c-0.39,0.24-0.77,0.5-1.15,0.76c-5.09,3.52-8.95,8.41-11.17,14.15
		c-0.23,0.58-0.28,1.23-0.13,1.83C581.23,539.7,582.07,540.51,583.11,540.77z"/>
	<path style="fill:#07061C;" d="M601.86,502.52c0.12,0.14,0.27,0.25,0.47,0.34c0.2,0.09,0.43,0.16,0.7,0.23
		c0.27,0.06,0.55,0.11,0.83,0.14c0.28,0.03,0.49,0.04,0.63,0.04l0.75-3.24l1.25,0.29c0.72,0.17,1.37,0.22,1.96,0.17
		c0.59-0.06,1.1-0.21,1.54-0.46c0.44-0.25,0.8-0.59,1.09-1.01c0.29-0.42,0.5-0.92,0.63-1.5c0.28-1.19,0.06-2.22-0.63-3.12
		c-0.7-0.89-1.85-1.53-3.47-1.9c-0.52-0.12-1.04-0.21-1.56-0.26c-0.53-0.05-1-0.06-1.44-0.01c-0.25,0.03-0.46,0.09-0.63,0.2
		c-0.17,0.1-0.28,0.28-0.34,0.53l-1.93,8.29c-0.07,0.31-0.09,0.56-0.07,0.76C601.68,502.22,601.75,502.39,601.86,502.52z
		 M606.42,494.88c0.13,0.01,0.26,0.02,0.39,0.04c0.12,0.02,0.28,0.06,0.47,0.1c0.53,0.12,0.9,0.34,1.12,0.64
		c0.22,0.3,0.28,0.68,0.17,1.13c-0.11,0.47-0.32,0.79-0.64,0.96c-0.32,0.17-0.72,0.19-1.22,0.08l-0.93-0.22L606.42,494.88z"/>
	<path style="fill:#07061C;" d="M611.8,504.92c0.25,0.23,0.63,0.41,1.15,0.53c0.25,0.06,0.5,0.09,0.75,0.11
		c0.26,0.02,0.47,0.01,0.63-0.01c0.19-0.66,0.36-1.27,0.5-1.81c0.15-0.55,0.28-1.09,0.42-1.63c0.13-0.54,0.27-1.09,0.42-1.66
		c0.15-0.57,0.32-1.19,0.52-1.87l0.09,0.02c0.01,0.51,0.04,1.11,0.1,1.8c0.06,0.69,0.14,1.59,0.23,2.7c0.02,0.28,0.16,0.5,0.41,0.67
		c0.25,0.17,0.59,0.3,1.01,0.4c0.32,0.07,0.6,0.1,0.86,0.08c0.26-0.02,0.48-0.08,0.66-0.17c0.57-1.01,1.04-1.83,1.43-2.47
		c0.38-0.64,0.69-1.18,0.91-1.61l0.09,0.02c-0.13,0.7-0.3,1.56-0.52,2.59c-0.22,1.03-0.44,2.19-0.67,3.48
		c-0.08,0.45,0.01,0.79,0.28,1.01c0.27,0.22,0.63,0.39,1.07,0.49c0.34,0.08,0.63,0.12,0.85,0.11c0.23,0,0.46-0.04,0.68-0.11
		c0.05-0.28,0.12-0.69,0.21-1.22c0.09-0.53,0.18-1.12,0.27-1.76c0.09-0.64,0.19-1.31,0.29-2c0.1-0.69,0.19-1.35,0.27-1.98
		c0.08-0.62,0.15-1.19,0.21-1.69c0.06-0.5,0.09-0.87,0.1-1.12c0.01-0.33-0.14-0.62-0.46-0.88c-0.32-0.25-0.77-0.45-1.35-0.58
		c-0.34-0.08-0.66-0.12-0.95-0.12c-0.29,0-0.54,0.03-0.73,0.08c-0.38,0.57-0.82,1.28-1.31,2.14c-0.5,0.86-1,1.74-1.51,2.67
		l-0.09-0.02c-0.02-0.33-0.05-0.69-0.08-1.1c-0.03-0.41-0.06-0.82-0.09-1.24c-0.03-0.42-0.07-0.82-0.11-1.21
		c-0.04-0.39-0.08-0.74-0.12-1.05c-0.06-0.47-0.25-0.85-0.56-1.12c-0.31-0.28-0.77-0.49-1.39-0.63c-0.58-0.13-1.04-0.15-1.4-0.05
		s-0.6,0.22-0.73,0.35l-2.6,8.86C611.48,504.36,611.55,504.69,611.8,504.92z"/>
	<path style="fill:#07061C;" d="M626.78,500.81l1.89-0.14l-1.53,6.59c-0.07,0.29-0.09,0.54-0.05,0.74c0.03,0.2,0.11,0.37,0.23,0.51
		c0.12,0.14,0.27,0.25,0.47,0.33c0.2,0.08,0.43,0.15,0.68,0.21c0.26,0.06,0.52,0.1,0.78,0.12c0.26,0.02,0.46,0.03,0.59,0.04
		l2.13-9.17c0.12-0.5,0.06-0.94-0.16-1.3c-0.23-0.36-0.59-0.6-1.1-0.72l-0.65-0.15l-2.13,0.21c-0.92,0.08-1.47,0.48-1.63,1.18
		c-0.09,0.38-0.07,0.69,0.06,0.94C626.49,500.45,626.63,500.65,626.78,500.81z"/>
	<path style="fill:#07061C;" d="M641.97,502.01c-0.31-0.57-0.72-1.05-1.25-1.43c-0.52-0.38-1.13-0.65-1.81-0.81
		c-0.69-0.16-1.36-0.19-2-0.07c-0.64,0.11-1.22,0.36-1.75,0.74c-0.53,0.38-0.99,0.89-1.38,1.54c-0.39,0.65-0.69,1.42-0.9,2.32
		c-0.21,0.9-0.28,1.73-0.22,2.49c0.07,0.76,0.25,1.42,0.56,1.99c0.31,0.57,0.72,1.05,1.25,1.43c0.52,0.38,1.13,0.65,1.82,0.81
		c0.68,0.16,1.34,0.18,1.98,0.07c0.64-0.11,1.22-0.36,1.75-0.74c0.53-0.38,0.99-0.89,1.39-1.54c0.4-0.65,0.7-1.43,0.91-2.33
		c0.21-0.9,0.28-1.73,0.21-2.49C642.46,503.24,642.27,502.58,641.97,502.01z M639.32,505.78c-0.24,1.03-0.58,1.8-1.01,2.3
		c-0.43,0.5-0.92,0.69-1.47,0.56c-0.55-0.13-0.91-0.51-1.06-1.15c-0.16-0.64-0.11-1.47,0.13-2.5c0.24-1.03,0.57-1.8,0.99-2.29
		c0.42-0.5,0.9-0.68,1.46-0.55c0.55,0.13,0.91,0.51,1.08,1.14C639.6,503.91,639.56,504.75,639.32,505.78z"/>
</g>
<linearGradient id="SVGID_6_" gradientUnits="userSpaceOnUse" x1="831.9417" y1="462.8182" x2="889.1018" y2="488.2227" gradientTransform="matrix(0.9942 0.1079 -0.1079 0.9942 -146.3447 -4.8068)">
	<stop  offset="0" style="stop-color:#A3704D"/>
	<stop  offset="1" style="stop-color:#F9B280"/>
</linearGradient>
<path style="fill:url(#SVGID_6_);" d="M667.13,536.82c2.78,1.74,2.78,1.74,2.78,1.74l-11.49,51.94l3.72,1.36
	c1.98,0.72,4.01,1.32,6.07,1.75c4.67,0.97,7.71,0.77,9.64,0.25c3.13-0.84,6.46-0.52,9.42,0.8c1.62,0.72,3.3,1.51,5.04,2.35
	C694.84,582.43,697.45,552.53,667.13,536.82z"/>
<path style="fill:#F9B280;" d="M678.81,542.46l-10.42-5.37c0,0-7.26,22.45,17.31,34.84l22.18,12.04l-10.81-28.76l-5.81-8.82
	l-2.5-2.57"/>
<path style="fill:#F9B280;" d="M730.97,579.68v-0.16l-0.12-0.06l0,0c-22.92-11.25-26.38-20.69-26.52-21.1l0-0.01
	c-0.68-2.18-1.09-7.25-1.24-11.28c-0.06-1.6-0.32-7.02-1.1-9.76c-1-3.47-3.4-6.45-6.6-8.17l-41.56-21.22
	c-0.64-0.34-1.36-0.53-2.08-0.53c-1.89,0-3.55,1.19-4.14,2.96c-1.51,4.52,0.36,9.66,5.57,15.28c4.33,4.67,10.08,8.69,14.15,11.24
	c12.35,6.39,18.68,14.92,21.68,23.75c0.07,0.5,0.23,0.97,0.45,1.41c3.54,11.83,1.4,24.03-0.05,32.26l-0.21,1.2l0.09,0.04
	c5.9,2.86,11.02,6.51,16.44,10.37c4.26,3.03,20.74,16.87,26.13,20.13v-0.96l-0.88-9.72V579.68L730.97,579.68z"/>
<path style="opacity:0.3;fill-rule:evenodd;clip-rule:evenodd;fill:#3D3938;" d="M1115.69,107.89c-17.72,1.85-31.83,5.72-31.52,8.7
	c0.3,2.89,14.91,3.77,32.63,1.92c17.62-1.84,31.73-5.71,31.43-8.6C1147.92,106.93,1133.32,106.05,1115.69,107.89L1115.69,107.89z"/>
<linearGradient id="SVGID_7_" gradientUnits="userSpaceOnUse" x1="-0.5" y1="164.7727" x2="682.5029" y2="164.7727">
	<stop  offset="0" style="stop-color:#0B0939"/>
	<stop  offset="1" style="stop-color:#07061C"/>
</linearGradient>
<path style="fill:url(#SVGID_7_);" d="M-0.5,98.38V164l0.05,0.27l0.17,0.15c10.15,8.86,20.3,10.19,25.45,10.19
	c0.48,0,0.96-0.01,1.43-0.03c8.09-0.54,15.56-4.06,21.19-9.93c0.67,7.58,3.96,14.67,9.34,20.09c5.74,5.78,13.37,9.16,21.46,9.53
	c1,0.1,2.06,0.1,3,0c12.5-0.57,23.65-8.38,28.47-19.94c11.35-1.58,21.06-9.1,25.48-19.73c1.81,0.3,3.51,0.44,5.16,0.44
	c3.17,0,6.34-0.48,9.42-1.41c1.39,6.71,7.24,11.52,14.13,11.52c6.03,0,11.51-3.88,13.57-9.53c5.66,4.37,12.66,6.76,19.8,6.76
	c10.47,0,20.3-5.08,26.4-13.62c2.11,1.54,4.37,2.82,6.75,3.8c-0.53,1.99-0.8,4.03-0.8,6.06c0,12.92,10.47,23.43,23.35,23.43
	c5.21,0,10.32-1.8,14.45-5.09c3.72,3.41,11.26,8.76,21.85,8.76c4.02,0,8.18-0.77,12.38-2.29c0.24,2.41,0.99,4.79,2.24,7.09
	c-3.17,3.71-4.92,10.32,0.33,17.23l0.07,0.07c0.47,0.36,0.94,0.69,1.45,1c-2.45,1.9-4.14,4.68-4.67,7.73
	c-0.23,1.35-0.36,3.47,0.38,5.95l0.03,0.11c0.01,0.04,0.26,1.06,0.98,2.39c1.24,2.29,4.3,6.15,10.86,6.18h0.08
	c5.48,0,8.51-2.9,10.08-5.31c0.95-1.35,1.61-2.87,1.96-4.52c0.04-0.16,0.07-0.3,0.1-0.41c4.77-0.12,9.2-2.31,12.22-6.04
	c2.87-3.55,4.1-8.13,3.45-12.71c2.5,0.99,5.05,1.5,7.6,1.5c5.39,0,10.54-2.32,14.11-6.38c3.59-4.07,5.26-9.53,4.57-14.98
	c-0.62-4.96-3.25-9.49-7.26-12.56c4.87-0.56,9.56-2.23,13.66-4.85c2.41,4.34,6.9,7.01,11.87,7.01c1.66,0,3.26-0.3,4.8-0.88
	c-0.29,1.06-0.43,2.15-0.43,3.25c0,3.98,1.88,7.68,5.06,10.03c-3.18,2.35-5.06,6.05-5.06,10.03c0,6.88,5.58,12.48,12.44,12.48
	c5.16,0,9.87-3.19,11.86-7.67c0.86,6.05,6.05,10.71,12.31,10.71c5.87,0,10.97-4.22,12.16-9.93c2.04,1.1,7.28,1.69,9.53,1.69
	c3.21,0,9.29-1.31,11.53-3.6c3.84,2.36,3.24,3.6,7.74,3.6c7.33,0,14.18-3.24,18.85-8.91c2.76,0.9,5.63,1.42,8.51,1.55
	c1,0.1,2.06,0.1,3,0c12.5-0.57,23.64-8.38,28.47-19.94c0.78-0.11,1.37,0.19,2.13,0.02c4.77,6.71,12.89,10.81,21.97,11.27
	c2.69,6.57,9.14,11.2,16.67,11.2c6.58,0,12.32-3.54,15.47-8.81c0.28,0.03,0.56,0.06,0.85,0.09c5.2,9.76,15.91,16.47,28.28,16.47
	c17.47,0,31.64-13.37,31.64-29.85c0-1.82-0.18-3.6-0.51-5.32c0.42,0.27,0.84,0.51,1.25,0.73c3.16,1.7,6.58,2.7,10.19,2.98l0.11,0.02
	c0.04,0.01,1.12,0.17,2.89,0.17c4.73,0,16.6-1.3,24.62-13.32l0.08-0.13V98.38H-0.5z"/>
<path style="fill:#FFFFFF;" d="M934.76,221.39"/>
<g>
	<linearGradient id="SVGID_8_" gradientUnits="userSpaceOnUse" x1="813.6307" y1="217.7266" x2="843.282" y2="261.3707">
		<stop  offset="0" style="stop-color:#A3704D"/>
		<stop  offset="1" style="stop-color:#F9B280"/>
	</linearGradient>
	<path style="fill:url(#SVGID_8_);" d="M849.22,220.12c-3.02-3.39-1.41-0.97-1.41-0.97l-14.4,56.63l-19.49-7.64
		c1.42,1.77,2.96,3.45,4.63,5c3.77,3.5,6.68,5.01,8.75,5.61c3.36,0.97,6.25,3.12,8.25,5.99c1.09,1.57,2.28,3.15,3.41,4.89
		C849.45,277.59,868.46,251.53,849.22,220.12z"/>
	<path style="fill:#07061C;" d="M811.16,257.1l-10.88-0.2c-4.69-0.19-9.8-0.41-12.37-0.52c-0.49-0.42-1.09-0.73-1.76-0.88
		c-2.26-0.52-4.51,0.89-5.03,3.15c-0.52,2.26,0.89,4.51,3.15,5.03c1.74,0.4,3.48-0.35,4.42-1.75l15.42-3.25c0.09-0.02-0.07,0.04,0,0
		L811.16,257.1z"/>
	<g>
		<rect x="860.06" y="160.77" style="fill:none;" width="0" height="0"/>
		<rect x="861.28" y="159.74" style="fill:none;" width="0" height="2.46"/>
		<linearGradient id="SVGID_9_" gradientUnits="userSpaceOnUse" x1="732.9709" y1="226.0659" x2="862.6693" y2="226.0659">
			<stop  offset="0" style="stop-color:#2A8FE5"/>
			<stop  offset="1" style="stop-color:#0578AB"/>
		</linearGradient>
		<path style="fill:url(#SVGID_9_);" d="M858.81,152.29l-9.5,2.77l-76.04-18.05l-5.09,22.22l-14.97,62.66l-0.07-0.02l-9.27,38.03
			l-5.17,20.8l-5.73,7.02l3.67,5.73l90.31,21.58l-0.33,0.11l0.33-0.11l0,0l0,0l0,0l0.29-1.3c0.04-0.13,0.08-0.26,0.39-1.66
			l34.39-148.82l0.13,0l0.33-1.99l0.19-0.83L858.81,152.29z M860.06,160.77L860.06,160.77L860.06,160.77L860.06,160.77
			L860.06,160.77z M860.06,160.77L860.06,160.77l2.43,0.4v0L860.06,160.77z"/>
	</g>
	<g>
		<linearGradient id="SVGID_10_" gradientUnits="userSpaceOnUse" x1="755.6754" y1="209.6357" x2="841.5589" y2="209.6357">
			<stop  offset="0.1633" style="stop-color:#2AC1E5"/>
			<stop  offset="1" style="stop-color:#0581DD"/>
		</linearGradient>
		<polygon style="fill:url(#SVGID_10_);" points="841.56,163.34 836.5,162.1 796.88,152.86 781.35,149.1 779.76,156.04 
			758.25,246.13 755.68,256.26 761.23,257.58 809.01,268.49 815.92,270.17 816.98,265.96 839.2,172.95 		"/>
		<g>
			<linearGradient id="SVGID_11_" gradientUnits="userSpaceOnUse" x1="758.1786" y1="209.6396" x2="839.0742" y2="209.6396">
				<stop  offset="0.1633" style="stop-color:#2AC1E5"/>
				<stop  offset="1" style="stop-color:#0581DD"/>
			</linearGradient>
			<polygon style="fill:url(#SVGID_11_);" points="839.07,164.85 836.01,164.1 796.41,154.86 782.89,151.59 781.76,156.5 
				760.24,246.61 758.18,254.75 761.7,255.58 809.47,266.49 814.43,267.69 814.99,265.46 837.2,172.47 			"/>
			<linearGradient id="SVGID_12_" gradientUnits="userSpaceOnUse" x1="737.095" y1="220.4219" x2="835.7976" y2="220.4219">
				<stop  offset="0.1633" style="stop-color:#2AC1E5"/>
				<stop  offset="1" style="stop-color:#0581DD"/>
			</linearGradient>
			<path style="fill:url(#SVGID_12_);" d="M770.69,132.37l-5,20.82l-15.07,63.1l0,0l-9.24,37.57l-8.4,33.85l88.94,20.77l8.01-35.15
				l0.59-2.54c0.17-0.5,0.3-0.98,0.42-1.45l23.83-99.76c0.05-0.19,0.08-0.37,0.12-0.55l3.93-16.73L770.69,132.37z M814.99,265.46
				l-0.56,2.24l-4.95-1.2l-47.77-10.91l-3.52-0.83l2.06-8.14l21.52-90.11l1.13-4.91l13.52,3.27l39.6,9.24l3.06,0.75l-1.88,7.63
				L814.99,265.46z"/>
		</g>
	</g>
	<linearGradient id="SVGID_13_" gradientUnits="userSpaceOnUse" x1="730.8186" y1="196.0734" x2="881.163" y2="196.0734">
		<stop  offset="0.1633" style="stop-color:#2AC1E5"/>
		<stop  offset="1" style="stop-color:#0581DD"/>
	</linearGradient>
	<path style="fill:url(#SVGID_13_);" d="M781.84,195.82c-0.09,0.17-0.19,0.33-0.27,0.5C781.65,196.15,781.75,195.99,781.84,195.82z"
		/>
	<linearGradient id="SVGID_14_" gradientUnits="userSpaceOnUse" x1="730.8186" y1="183.5457" x2="881.163" y2="183.5457">
		<stop  offset="0.1633" style="stop-color:#2AC1E5"/>
		<stop  offset="1" style="stop-color:#0581DD"/>
	</linearGradient>
	<path style="fill:url(#SVGID_14_);" d="M787.98,183.54c0.01,0,0.03,0.01,0.04,0.01C788.01,183.55,788,183.54,787.98,183.54z"/>
	<linearGradient id="SVGID_15_" gradientUnits="userSpaceOnUse" x1="730.8186" y1="183.6667" x2="881.163" y2="183.6667">
		<stop  offset="0.1633" style="stop-color:#2AC1E5"/>
		<stop  offset="1" style="stop-color:#0581DD"/>
	</linearGradient>
	<path style="fill:url(#SVGID_15_);" d="M786.92,183.69c0.04-0.02,0.09-0.03,0.13-0.04C787,183.66,786.96,183.67,786.92,183.69z"/>
	<linearGradient id="SVGID_16_" gradientUnits="userSpaceOnUse" x1="730.8186" y1="183.5564" x2="881.163" y2="183.5564">
		<stop  offset="0.1633" style="stop-color:#2AC1E5"/>
		<stop  offset="1" style="stop-color:#0581DD"/>
	</linearGradient>
	<path style="fill:url(#SVGID_16_);" d="M787.39,183.57c0.04-0.01,0.09-0.02,0.13-0.02C787.48,183.55,787.44,183.56,787.39,183.57z"
		/>
	<linearGradient id="SVGID_17_" gradientUnits="userSpaceOnUse" x1="730.8186" y1="194.531" x2="881.163" y2="194.531">
		<stop  offset="0.1633" style="stop-color:#2AC1E5"/>
		<stop  offset="1" style="stop-color:#0581DD"/>
	</linearGradient>
	<path style="fill:url(#SVGID_17_);" d="M782.76,194.25c-0.12,0.19-0.25,0.37-0.37,0.57C782.51,194.62,782.64,194.44,782.76,194.25z
		"/>
	<linearGradient id="SVGID_18_" gradientUnits="userSpaceOnUse" x1="730.8186" y1="193.1075" x2="881.163" y2="193.1075">
		<stop  offset="0.1633" style="stop-color:#2AC1E5"/>
		<stop  offset="1" style="stop-color:#0581DD"/>
	</linearGradient>
	<path style="fill:url(#SVGID_18_);" d="M783.77,192.82c-0.15,0.19-0.3,0.38-0.44,0.57C783.47,193.2,783.62,193.01,783.77,192.82z"
		/>
	<linearGradient id="SVGID_19_" gradientUnits="userSpaceOnUse" x1="730.8186" y1="183.6534" x2="881.163" y2="183.6534">
		<stop  offset="0.1633" style="stop-color:#2AC1E5"/>
		<stop  offset="1" style="stop-color:#0581DD"/>
	</linearGradient>
	<path style="fill:url(#SVGID_19_);" d="M788.43,183.63c0.04,0.01,0.09,0.03,0.13,0.04C788.52,183.66,788.47,183.64,788.43,183.63z"
		/>
	<linearGradient id="SVGID_20_" gradientUnits="userSpaceOnUse" x1="730.8186" y1="188.4564" x2="881.163" y2="188.4564">
		<stop  offset="0.1633" style="stop-color:#2AC1E5"/>
		<stop  offset="1" style="stop-color:#0581DD"/>
	</linearGradient>
	<path style="fill:url(#SVGID_20_);" d="M788.74,188.25c-0.21,0.14-0.41,0.28-0.62,0.42C788.32,188.52,788.53,188.38,788.74,188.25z
		"/>
	<linearGradient id="SVGID_21_" gradientUnits="userSpaceOnUse" x1="730.8186" y1="191.788" x2="881.163" y2="191.788">
		<stop  offset="0.1633" style="stop-color:#2AC1E5"/>
		<stop  offset="1" style="stop-color:#0581DD"/>
	</linearGradient>
	<path style="fill:url(#SVGID_21_);" d="M784.87,191.51c-0.17,0.18-0.33,0.36-0.49,0.55C784.54,191.87,784.71,191.7,784.87,191.51z"
		/>
	<linearGradient id="SVGID_22_" gradientUnits="userSpaceOnUse" x1="730.8186" y1="189.4585" x2="881.163" y2="189.4585">
		<stop  offset="0.1633" style="stop-color:#2AC1E5"/>
		<stop  offset="1" style="stop-color:#0581DD"/>
	</linearGradient>
	<path style="fill:url(#SVGID_22_);" d="M787.36,189.22c-0.2,0.15-0.39,0.31-0.58,0.47C786.97,189.53,787.17,189.38,787.36,189.22z"
		/>
	<linearGradient id="SVGID_23_" gradientUnits="userSpaceOnUse" x1="730.8186" y1="190.5706" x2="881.163" y2="190.5706">
		<stop  offset="0.1633" style="stop-color:#2AC1E5"/>
		<stop  offset="1" style="stop-color:#0581DD"/>
	</linearGradient>
	<path style="fill:url(#SVGID_23_);" d="M785.53,190.83c0.18-0.17,0.36-0.34,0.54-0.51C785.89,190.48,785.71,190.65,785.53,190.83z"
		/>
	<linearGradient id="SVGID_24_" gradientUnits="userSpaceOnUse" x1="730.8186" y1="185.377" x2="881.163" y2="185.377">
		<stop  offset="0.1633" style="stop-color:#2AC1E5"/>
		<stop  offset="1" style="stop-color:#0581DD"/>
	</linearGradient>
	<path style="fill:url(#SVGID_24_);" d="M790.14,185.44c-0.01-0.05-0.03-0.09-0.04-0.14C790.11,185.35,790.13,185.4,790.14,185.44z"
		/>
	<linearGradient id="SVGID_25_" gradientUnits="userSpaceOnUse" x1="730.8186" y1="184.9843" x2="881.163" y2="184.9843">
		<stop  offset="0.1633" style="stop-color:#2AC1E5"/>
		<stop  offset="1" style="stop-color:#0581DD"/>
	</linearGradient>
	<path style="fill:url(#SVGID_25_);" d="M790,185c-0.01-0.03-0.03-0.05-0.04-0.08c0.02,0.04,0.04,0.08,0.06,0.12
		C790,185.03,790,185.02,790,185z"/>
	<linearGradient id="SVGID_26_" gradientUnits="userSpaceOnUse" x1="730.8186" y1="183.8406" x2="881.163" y2="183.8406">
		<stop  offset="0.1633" style="stop-color:#2AC1E5"/>
		<stop  offset="1" style="stop-color:#0581DD"/>
	</linearGradient>
	<path style="fill:url(#SVGID_26_);" d="M788.88,183.81c0.04,0.02,0.07,0.04,0.11,0.06C788.95,183.85,788.91,183.83,788.88,183.81z"
		/>
	<linearGradient id="SVGID_27_" gradientUnits="userSpaceOnUse" x1="730.8186" y1="184.541" x2="881.163" y2="184.541">
		<stop  offset="0.1633" style="stop-color:#2AC1E5"/>
		<stop  offset="1" style="stop-color:#0581DD"/>
	</linearGradient>
	<path style="fill:url(#SVGID_27_);" d="M789.68,184.48c0.03,0.04,0.06,0.08,0.08,0.12C789.74,184.56,789.71,184.52,789.68,184.48z"
		/>
	<polyline style="fill:#FFFFFF;" points="750.66,250.09 744.83,272.95 816.5,290.06 822.38,272.74 	"/>
	<linearGradient id="SVGID_28_" gradientUnits="userSpaceOnUse" x1="730.8186" y1="184.1621" x2="881.163" y2="184.1621">
		<stop  offset="0.1633" style="stop-color:#2AC1E5"/>
		<stop  offset="1" style="stop-color:#0581DD"/>
	</linearGradient>
	<path style="fill:url(#SVGID_28_);" d="M789.36,184.14c0.02,0.02,0.04,0.04,0.05,0.05C789.4,184.17,789.38,184.15,789.36,184.14z"
		/>
	<path style="fill:#FFFFFF;" d="M794.87,168.84c-0.15-0.04-0.28-0.06-0.39-0.08c-0.1-0.02-0.21-0.03-0.32-0.04l-0.52,2.24l0.77,0.18
		c0.4,0.09,0.74,0.07,1-0.07c0.26-0.14,0.44-0.4,0.53-0.78c0.08-0.37,0.04-0.67-0.14-0.92
		C795.61,169.11,795.31,168.94,794.87,168.84z"/>
	<path style="fill:#FFFFFF;" d="M776.19,250.83l26.11,5.82c0.23,0.05,0.47,0.08,0.69,0.08l0.04,0c0.9-0.01,1.76-0.45,2.34-1.21
		c0.64-0.83,0.86-1.9,0.61-2.94l-7.66-27.44c-0.44-1.66-1.82-2.25-2.87-2.25l-0.04,0c-0.86,0.01-1.66,0.4-2.24,1.1l-0.02,0.02
		l-18.57,21.58c-0.76,0.94-0.98,2.17-0.59,3.29C774.35,249.88,775.15,250.59,776.19,250.83z M790.38,242.1l1.39-11.03
		c0.23-1.02,1.3-1.7,2.32-1.48l1.02,0.23c1.02,0.23,1.7,1.3,1.47,2.32l-3.43,10.58c-0.23,1.02-0.28,1.93-1.3,1.7l-1.02-0.23
		C789.81,243.97,790.15,243.13,790.38,242.1z M787.95,247.54c0.23-1.05,1.53-1.65,2.9-1.35c1.37,0.31,2.29,1.4,2.06,2.45
		c-0.23,1.05-1.53,1.65-2.9,1.35C788.63,249.68,787.71,248.59,787.95,247.54z"/>
	<path style="fill:#FFFFFF;" d="M843.19,173.91l3.34-13.58l-6.39-1.56c-0.16-0.05-0.32-0.1-0.48-0.14l-2.21-0.52l0,0l0,0
		l-39.62-9.24h0l-19.53-4.73l-2.52,10.98h0l-21.51,90.06l0,0l-3.59,14.14l9.14,2.12c0.15,0.04,0.29,0.09,0.45,0.13l47.85,10.93
		l10.83,2.64l1.88-7.68c0.05-0.17,0.11-0.33,0.15-0.5L843.19,173.91z"/>
	<path style="fill:#FFFFFF;" d="M823.39,167.68c-0.45-0.11-0.85,0.05-1.2,0.45c-0.34,0.41-0.61,1.04-0.81,1.88
		c-0.2,0.85-0.23,1.53-0.1,2.06c0.13,0.52,0.42,0.84,0.87,0.94c0.45,0.11,0.86-0.05,1.21-0.46c0.35-0.41,0.63-1.04,0.83-1.89
		c0.2-0.85,0.23-1.53,0.09-2.05C824.14,168.1,823.84,167.79,823.39,167.68z"/>
	<g>
		<path style="fill:#FFFFFF;" d="M847.96,160c-2.04-0.56-4.07-1.13-6.12-1.69c-5.18-1.42-10.41-2.81-15.62-4.25
			c0.2-0.17,0.39-0.33,0.59-0.5l-5.03-1.5c0.11,0.82,0.22,1.63,0.33,2.45c-3.4,5.15-6.79,10.24-10.13,15.29
			c-4.25-0.78-8.47-1.51-12.72-2.28c-4.22-0.77-8.46-1.55-12.68-2.29c-4.06-4.25-8.15-8.41-12.25-12.53l-0.69,2.86
			c3.78,3.83,7.55,7.7,11.29,11.65c0.1,0.12,0.17,0.2,0.28,0.3c0.12,0.04,0.27,0.07,0.4,0.07c4.14,0.81,8.26,1.58,12.38,2.34
			c4.12,0.78,8.24,1.51,12.37,2.25c-4.91,7.36-9.83,14.63-14.72,21.78c-4.92-1.31-9.82-2.6-14.73-3.93
			c-4.87-1.32-9.76-2.59-14.64-3.87l-0.56,2.31c4.79,1.33,9.59,2.64,14.39,3.95c5.09,1.39,10.2,2.75,15.29,4.14
			c1.61,2.57,3.23,5.13,4.83,7.72c-6.51,3.1-12.93,6.1-19.41,8.96c-6.36,2.79-12.78,5.39-19.11,7.94c-0.95-1.41-1.9-2.8-2.85-4.2
			l-0.74,3.09c0.44,0.66,0.89,1.31,1.33,1.97c-0.66,0.25-1.32,0.49-1.98,0.74l-0.73,3.04c1.4-0.51,2.81-1.02,4.21-1.54
			c2.79,4.29,5.61,8.62,8.41,13c0.02,0.05,0.04,0.1,0.07,0.13c0.05,0.04,0.1,0.1,0.13,0.13c2.91,2.96,5.8,5.97,8.7,8.96
			c-5.87,2.62-11.68,5.14-17.46,7.57c-3.15-1.99-6.28-3.97-9.42-5.95l-0.58,2.4c2.38,1.51,4.78,3.03,7.15,4.54
			c-2.99,1-5.97,1.96-8.94,2.9l-0.62,2.56v0l-0.13,0.5c3.93-1.23,7.86-2.48,11.81-3.78c2.3,8.87,4.53,17.91,6.75,27.09l2.56,0.75
			c-2.32-9.69-4.68-19.26-7.08-28.67c5.93-2.49,11.92-5.08,17.94-7.78c2.85,3.04,5.7,6.12,8.57,9.19
			c-6.14,9.38-12.24,18.57-18.3,27.59l2.73,0.8c6.03-9.02,12.08-18.19,18.2-27.52c0.21-0.31,0.42-0.6,0.6-0.94c0,0,0,0-0.03-0.03
			c4.05-6.67,8.12-13.41,12.19-20.25c5.25,6.44,10.47,13.04,15.67,19.7c-7.52,8.67-14.96,17.14-22.36,25.37
			c-0.23,0.26-0.45,0.51-0.71,0.76c0.23,0.37,0.43,0.71,0.64,1.03c2.03,3.58,4.09,7.16,6.12,10.78l1.02,0.3l2.37,0.74
			c-2.3-4.07-4.63-8.16-6.94-12.19c7.42-8.31,14.92-16.86,22.49-25.63c0.25-0.34,0.52-0.63,0.79-0.94c-0.27-0.36-0.53-0.7-0.77-1.05
			c-5.43-6.9-10.85-13.71-16.31-20.39c8.06-2.93,16.15-6.02,24.29-9.26c0.44,2.27,0.88,4.56,1.32,6.84l1.43-5.93
			c-0.13-0.66-0.26-1.33-0.39-1.99c0.33-0.18,0.66-0.36,1-0.54l0.88-3.64c-1.26,0.68-2.53,1.36-3.79,2.03
			c-8.19,3.31-16.36,6.46-24.47,9.44c5.19-11.73,10.44-23.58,15.69-35.53c4.99-2.36,10.02-4.76,15.04-7.23
			c1.92-0.96,3.84-1.94,5.76-2.92l0.84-3.48c-5.37,2.76-10.73,5.47-16.11,8.05c-8.36,4.01-16.8,7.79-25.14,11.43
			c-1.58-2.58-3.19-5.15-4.83-7.74c8.67-12.75,17.41-25.81,26.24-39.18c5.45,1.51,10.94,3.01,16.39,4.54
			c2.82,0.78,5.65,1.58,8.47,2.38l0.67-2.7L847.96,160z M790.14,255.64c-2.51-2.72-5.04-5.4-7.58-8.13
			c5.86-2.72,11.75-5.58,17.68-8.54C796.85,244.59,793.5,250.14,790.14,255.64z M802.59,206.09c5.33-2.3,10.68-4.67,16.05-7.13
			c-5.29,11.98-10.54,23.82-15.76,35.55c-7.47,3.82-14.93,7.45-22.31,10.92c-3.1-3.21-6.18-6.39-9.29-9.57
			c-2.69-4.19-5.39-8.34-8.09-12.45c6.47-2.59,13.04-5.29,19.55-8.13C789.36,212.37,795.94,209.25,802.59,206.09z"/>
		<path style="fill:#FFFFFF;" d="M772.19,176.28c-0.23-0.24-0.47-0.45-0.7-0.69c-0.72-0.7-1.44-1.4-2.16-2.1l-0.67,2.77
			c0.11,0.11,0.22,0.22,0.33,0.32c-0.22,0.36-0.44,0.72-0.67,1.08l-1.94,8.08c1.77-2.88,3.54-5.78,5.31-8.68
			C771.89,176.81,772.02,176.54,772.19,176.28z"/>
		<path style="fill:#FFFFFF;" d="M810.92,297.35c2.44-2.51,4.88-5.05,7.33-7.61l0.02-0.08c0.06-0.2,0.13-0.4,0.18-0.6l1.17-4.88
			c-3.92,4.13-7.83,8.21-11.72,12.23L810.92,297.35z"/>
		<path style="opacity:0.3;fill:#29BFE5;" d="M841.84,158.32c2.04,0.56,4.08,1.12,6.12,1.69l-5.2-1.62
			c-0.17-0.07-0.33-0.14-0.51-0.19l-2.33-0.7l0,0l-13.11-3.92c-0.2,0.17-0.39,0.34-0.59,0.5
			C831.44,155.5,836.66,156.9,841.84,158.32z"/>
		<path style="opacity:0.3;fill:#29BFE5;" d="M823.97,156.27c-8.83,13.37-17.57,26.43-26.24,39.18c1.64,2.58,3.25,5.15,4.83,7.74
			c8.34-3.64,16.77-7.42,25.14-11.43c5.38-2.58,10.74-5.28,16.11-8.05l1.65-6.85l3.38-13.67c-2.82-0.8-5.65-1.6-8.47-2.38
			C834.91,159.28,829.42,157.78,823.97,156.27z"/>
		<path style="opacity:0.3;fill:#29BFE5;" d="M806.22,235.91c5.46,6.68,10.88,13.49,16.31,20.39c0.23,0.35,0.5,0.69,0.77,1.05
			c-0.27,0.31-0.54,0.6-0.79,0.94c-7.58,8.76-15.07,17.32-22.49,25.63c2.31,4.04,4.63,8.12,6.94,12.19l0.96,0.3
			c3.88-4.02,7.79-8.1,11.72-12.23l12.2-50.7c-0.44-2.28-0.88-4.56-1.32-6.84C822.37,229.89,814.28,232.98,806.22,235.91z"/>
		<path style="opacity:0.3;fill:#29BFE5;" d="M815.99,298.93l2.26-9.18c-2.45,2.56-4.89,5.1-7.33,7.61L815.99,298.93z"/>
		<path style="opacity:0.3;fill:#29BFE5;" d="M833.25,227.55l0.61-2.53c-0.33,0.18-0.66,0.36-1,0.54
			C833,226.22,833.12,226.89,833.25,227.55z"/>
		<path style="opacity:0.5;fill:#29BFE5;" d="M780.83,213.22c6.48-2.86,12.9-5.86,19.41-8.96c-1.61-2.59-3.22-5.14-4.83-7.72
			c-5.09-1.39-10.2-2.75-15.29-4.14c-4.8-1.31-9.59-2.62-14.39-3.95l-6.86,28.51c0.95,1.39,1.9,2.79,2.85,4.2
			C768.05,218.62,774.47,216.01,780.83,213.22z"/>
		<path style="opacity:0.3;fill:#29BFE5;" d="M763.19,223.4c2.71,4.11,5.41,8.26,8.09,12.45c3.11,3.19,6.18,6.37,9.29,9.57
			c7.38-3.47,14.84-7.1,22.31-10.92c5.22-11.73,10.47-23.57,15.76-35.55c-5.37,2.46-10.72,4.82-16.05,7.13
			c-6.65,3.16-13.23,6.28-19.85,9.18C776.23,218.11,769.66,220.81,763.19,223.4z"/>
		<path style="opacity:0.3;fill:#29BFE5;" d="M790.14,255.64c3.36-5.5,6.7-11.05,10.1-16.67c-5.92,2.96-11.82,5.81-17.68,8.54
			C785.1,250.24,787.63,252.92,790.14,255.64z"/>
		<path style="opacity:0.3;fill:#29BFE5;" d="M796.8,283.28c0.26-0.25,0.48-0.5,0.71-0.76c7.41-8.23,14.84-16.7,22.36-25.37
			c-5.2-6.66-10.42-13.26-15.67-19.7c-4.06,6.83-8.13,13.58-12.19,20.25c0.03,0.03,0.03,0.03,0.03,0.03
			c-0.18,0.34-0.39,0.63-0.6,0.94c-6.12,9.33-12.17,18.51-18.2,27.52l30.32,8.9c-2.03-3.61-4.09-7.19-6.12-10.78
			C797.23,283.99,797.03,283.65,796.8,283.28z"/>
		<path style="opacity:0.3;fill:#29BFE5;" d="M748.26,261l-4.2,16.56l9.63,2.86c0.16,0.06,0.31,0.12,0.47,0.17l12.66,3.72
			c-2.21-9.17-4.45-18.21-6.75-27.09C756.13,258.52,752.19,259.77,748.26,261z"/>
		<path style="opacity:0.3;fill:#29BFE5;" d="M780.24,248.61c-6.01,2.69-12,5.29-17.94,7.78c2.4,9.41,4.75,18.98,7.08,28.67
			l1.14,0.33c6.05-9.02,12.15-18.21,18.3-27.59C785.93,254.73,783.09,251.65,780.24,248.61z"/>
		<path style="opacity:0.3;fill:#29BFE5;" d="M778.25,246.48c-2.9-2.99-5.79-6.01-8.7-8.96c-0.02-0.03-0.08-0.09-0.13-0.13
			c-0.03-0.03-0.05-0.08-0.07-0.13c-2.8-4.37-5.61-8.71-8.41-13c-1.41,0.52-2.81,1.03-4.21,1.54l-5.37,22.3
			c3.14,1.98,6.27,3.96,9.42,5.95C766.57,251.62,772.39,249.1,778.25,246.48z"/>
		<path style="opacity:0.3;fill:#29BFE5;" d="M758.12,220.06l-0.65,2.71c0.66-0.25,1.32-0.49,1.98-0.74
			C759.01,221.37,758.56,220.72,758.12,220.06z"/>
		<path style="opacity:0.3;fill:#29BFE5;" d="M750.79,250.5l-1.79,7.44c2.97-0.94,5.94-1.9,8.94-2.9
			C755.57,253.53,753.18,252.02,750.79,250.5z"/>
		<path style="opacity:0.3;fill:#29BFE5;" d="M799.26,167.52c4.25,0.78,8.47,1.51,12.72,2.28c3.34-5.04,6.73-10.14,10.13-15.29
			c-0.11-0.82-0.22-1.63-0.33-2.45l-23.6-7.06l-20.57-6.36l-3.08,13.25l-0.19,0.8c4.1,4.12,8.18,8.28,12.25,12.53
			C790.8,165.98,795.05,166.76,799.26,167.52z"/>
		<path style="fill:none;stroke:#EBE4DD;stroke-width:0;stroke-linecap:round;stroke-linejoin:round;" d="M764.57,168.89
			c0.19,0.18,0.37,0.36,0.56,0.54"/>
		<path style="opacity:0.3;fill:#29BFE5;" d="M795.65,193.95c4.89-7.15,9.81-14.42,14.72-21.78c-4.13-0.74-8.25-1.48-12.37-2.25
			c-4.12-0.76-8.24-1.54-12.38-2.34c-0.13,0-0.28-0.03-0.4-0.07c-0.11-0.1-0.18-0.19-0.28-0.3c-3.75-3.94-7.52-7.81-11.29-11.65
			l-4.32,17.93c0.72,0.7,1.44,1.39,2.16,2.1c0.23,0.24,0.47,0.45,0.7,0.69c-0.17,0.26-0.3,0.53-0.5,0.79
			c-1.77,2.9-3.54,5.79-5.31,8.68c-0.08,0.12-0.15,0.25-0.23,0.37c0.04,0.01,0.09,0.02,0.13,0.03c4.88,1.28,9.77,2.55,14.64,3.87
			C785.84,191.35,790.73,192.63,795.65,193.95z"/>
		<path style="opacity:0.3;fill:#29BFE5;" d="M768.66,176.26l-0.34,1.4c0.22-0.36,0.44-0.72,0.67-1.08
			C768.88,176.47,768.77,176.37,768.66,176.26z"/>
		<path style="opacity:0.3;fill:#29BFE5;" d="M822.17,197.33c-5.25,11.95-10.5,23.79-15.69,35.53c8.1-2.98,16.28-6.13,24.47-9.44
			c1.26-0.67,2.52-1.36,3.79-2.03l8.23-34.2c-1.92,0.98-3.84,1.96-5.76,2.92C832.19,192.57,827.16,194.97,822.17,197.33z"/>
	</g>
	<g>
		<path style="fill:none;" d="M834.55,179.31l-41.83-9.76l-18.73-4.53l-2.33,10.17l-21.51,90.06l-0.49,1.92
			c3.99-5.79,9.62-10.36,16.39-13.11l1.3-0.53l0.02,0.05c0.52-0.19,1.04-0.37,1.57-0.54l-0.02-0.05l1.35-0.36
			c5.78-1.56,11.89-1.67,17.74-0.31c0.82,0.19,1.63,0.42,2.44,0.66c0.04,0.01,0.07,0.02,0.11,0.03
			c9.46,2.75,18.09,10.34,21.83,18.58c1.9,3.78,3.11,7.83,3.6,12.01l21.5-90.01l3.14-12.78l-5.69-1.4
			C834.81,179.38,834.69,179.34,834.55,179.31z"/>
		<path style="fill:#FFFFFF;" d="M790.55,253.02c-0.04-0.01-0.07-0.02-0.11-0.03c5.09,1.57,9.8,4.23,13.75,7.81l1.03,0.94
			l-4.94,4.84l-0.92-0.82c-3.66-3.26-8.14-5.58-12.94-6.69c-4.66-1.08-9.52-1.02-14.13,0.19l-1.19,0.31l-2.18-6.52
			c-0.53,0.17-1.06,0.35-1.57,0.54l2.18,6.51l-1.13,0.47c-8.38,3.49-14.6,10.44-17.1,19.09l3.98,0.93c0.08,0.02,0.16,0.05,0.24,0.07
			l47.85,10.93l5.51,1.34c1.5-8.66-0.91-17.47-6.64-24.22l-0.79-0.93l4.94-4.84l0.91,1.06c2.03,2.35,3.72,4.91,5.08,7.62
			C808.64,263.36,800.01,255.76,790.55,253.02z"/>
		<g>
			<path style="fill:none;" d="M786.3,149.29l-12.31,15.73l-2.33,10.17l-21.51,90.06l-0.49,1.92c3.99-5.79,9.62-10.36,16.39-13.11
				l1.3-0.53l0.02,0.05l2.18,6.51l-1.13,0.47c-8.38,3.49-14.6,10.44-17.1,19.09l3.98,0.93c0.08,0.02,0.16,0.05,0.24,0.07
				l47.85,10.93l5.51,1.34c1.5-8.66-0.91-17.47-6.64-24.22l-0.79-0.93l4.94-4.84l0.91,1.06c2.03,2.35,3.72,4.91,5.08,7.62
				c1.9,3.78,3.11,7.83,3.6,12.01l21.5-90.01l7.04-30.27l0.21-0.92L786.3,149.29z"/>
			<path style="fill:#07061C;" d="M775.07,140.08l-5.29,17.61l-3.81,16.63l-16.45,68.89l-7.87,31.82l-2.25,9.06l78.31,18.11
				l2.1-10.21l0.65-2.79c0.16-0.45,0.27-0.84,0.37-1.23l23.84-99.81c0.02-0.08,0.04-0.17,0.05-0.26l7.27-30.63L775.07,140.08z
				 M845,161.56l-7.51,32.04l-21.5,90.01c-0.49-4.18-1.71-8.23-3.6-12.01c-1.36-2.7-3.05-5.26-5.08-7.62l-0.91-1.06l-4.94,4.84
				l0.79,0.93c5.73,6.75,8.14,15.56,6.64,24.22l-5.51-1.34l-47.85-10.93c-0.08-0.02-0.16-0.04-0.24-0.07l-3.98-0.93
				c2.5-8.65,8.72-15.6,17.1-19.09l1.13-0.47l-2.18-6.51l-0.02-0.05l-1.3,0.53c-6.77,2.75-12.4,7.32-16.39,13.11l0.49-1.92
				l21.51-90.06l2.33-10.17l12.79-16.76L845,161.56L845,161.56z"/>
		</g>
		<path style="fill:#07061C;" d="M772.3,259.25c4.62-1.21,9.48-1.27,14.13-0.19c4.8,1.12,9.27,3.43,12.94,6.69l0.92,0.82l4.94-4.84
			l-1.03-0.94c-3.95-3.58-8.66-6.24-13.75-7.81c-0.8-0.25-1.62-0.47-2.44-0.66c-5.85-1.36-11.97-1.26-17.74,0.31l-1.35,0.36
			l0.02,0.05l2.18,6.52L772.3,259.25z"/>
	</g>
	<linearGradient id="SVGID_29_" gradientUnits="userSpaceOnUse" x1="733.2978" y1="162.6237" x2="830.4317" y2="162.6237">
		<stop  offset="0.1633" style="stop-color:#2AC1E5"/>
		<stop  offset="1" style="stop-color:#0581DD"/>
	</linearGradient>
	<path style="fill-rule:evenodd;clip-rule:evenodd;fill:url(#SVGID_29_);" d="M779.04,122.97c-6.27,0.03-12.48,2.09-17.71,6.23
		c-11.65,9.17-14.57,24.6-8.56,38.14c3.19,7.95,17.85,27.71,26.59,34.94c8.64-7.3,23.14-27.18,26.26-35.15
		c5.9-13.59,2.86-29-8.87-38.07C791.5,124.96,785.26,122.94,779.04,122.97L779.04,122.97z M779.09,135.75
		c8.67-0.04,15.76,7.3,15.8,16.37c0.04,9.03-7,16.42-15.67,16.45c-8.71,0.04-15.81-7.3-15.85-16.33
		C763.34,143.17,770.38,135.78,779.09,135.75L779.09,135.75z"/>
	<path style="fill:#FFFFFF;stroke:#FFFFFF;stroke-width:1.6426;stroke-miterlimit:10;" d="M779.14,129.21h-0.1
		c-6.23,0.03-12.08,2.48-16.47,6.9c-4.39,4.42-6.79,10.29-6.77,16.53c0.05,12.81,10.52,23.23,23.33,23.23h0.1
		c6.23-0.03,12.08-2.48,16.47-6.9c4.39-4.42,6.79-10.29,6.77-16.53C802.42,139.63,791.96,129.21,779.14,129.21z"/>
	<g>
		<path style="fill:#07061C;" d="M770.14,158.59h-9.23v-1.83l4.35-4.64c0.33-0.36,0.6-0.68,0.83-0.98c0.22-0.3,0.41-0.57,0.55-0.81
			c0.14-0.25,0.24-0.48,0.3-0.69s0.09-0.42,0.09-0.61c0-0.6-0.15-1.07-0.45-1.41c-0.3-0.34-0.73-0.51-1.29-0.51
			c-0.31,0-0.59,0.06-0.84,0.17c-0.24,0.11-0.45,0.27-0.61,0.47c-0.16,0.2-0.29,0.44-0.37,0.72c-0.09,0.28-0.13,0.58-0.13,0.91
			h-2.68c0-0.6,0.11-1.17,0.32-1.71c0.22-0.54,0.53-1,0.93-1.41c0.41-0.4,0.9-0.72,1.47-0.95c0.58-0.23,1.22-0.35,1.95-0.35
			c0.71,0,1.34,0.09,1.88,0.26c0.55,0.18,1,0.43,1.37,0.75c0.37,0.33,0.65,0.73,0.84,1.2c0.19,0.47,0.29,1.01,0.29,1.6
			c0,0.45-0.07,0.88-0.21,1.3c-0.14,0.42-0.34,0.84-0.6,1.26c-0.26,0.42-0.57,0.84-0.94,1.27c-0.37,0.43-0.78,0.87-1.23,1.34
			l-2.38,2.51h5.79V158.59z"/>
		<path style="fill:#07061C;" d="M780.84,153.02c0,1.01-0.11,1.88-0.33,2.6c-0.22,0.72-0.53,1.32-0.92,1.79
			c-0.4,0.47-0.88,0.81-1.43,1.03c-0.56,0.22-1.18,0.33-1.85,0.33c-0.68,0-1.3-0.11-1.85-0.33c-0.56-0.22-1.04-0.56-1.44-1.03
			c-0.4-0.47-0.71-1.06-0.93-1.79c-0.22-0.72-0.33-1.59-0.33-2.6v-2.34c0-1.01,0.11-1.88,0.33-2.6c0.22-0.72,0.53-1.32,0.93-1.78
			c0.4-0.47,0.88-0.81,1.43-1.03c0.55-0.22,1.17-0.33,1.85-0.33c0.68,0,1.3,0.11,1.85,0.33c0.56,0.22,1.04,0.56,1.44,1.03
			c0.4,0.47,0.71,1.06,0.93,1.78c0.22,0.72,0.33,1.59,0.33,2.6V153.02z M778.16,150.3c0-0.6-0.04-1.1-0.13-1.51
			c-0.08-0.41-0.21-0.74-0.37-0.98c-0.16-0.25-0.36-0.43-0.6-0.54c-0.23-0.11-0.5-0.17-0.79-0.17c-0.3,0-0.56,0.06-0.79,0.17
			c-0.23,0.11-0.43,0.29-0.59,0.54c-0.16,0.25-0.28,0.58-0.36,0.98c-0.08,0.41-0.13,0.91-0.13,1.51v3.07c0,0.6,0.04,1.11,0.13,1.53
			c0.09,0.41,0.21,0.75,0.37,1c0.16,0.26,0.36,0.44,0.59,0.55c0.23,0.11,0.5,0.17,0.8,0.17c0.3,0,0.56-0.06,0.79-0.17
			c0.23-0.11,0.43-0.29,0.59-0.55c0.16-0.26,0.28-0.59,0.36-1c0.08-0.41,0.13-0.92,0.13-1.53V150.3z"/>
		<path style="fill:#07061C;" d="M782.89,157.27c0-0.2,0.04-0.39,0.11-0.57c0.07-0.18,0.17-0.33,0.3-0.45
			c0.13-0.13,0.29-0.23,0.48-0.3c0.18-0.07,0.39-0.11,0.62-0.11s0.44,0.04,0.62,0.11c0.19,0.07,0.35,0.17,0.48,0.3
			c0.13,0.13,0.23,0.28,0.3,0.45c0.07,0.18,0.11,0.36,0.11,0.57c0,0.2-0.04,0.39-0.11,0.56c-0.07,0.17-0.17,0.32-0.3,0.45
			c-0.13,0.13-0.29,0.22-0.48,0.3c-0.19,0.07-0.4,0.11-0.62,0.11s-0.43-0.04-0.62-0.11c-0.19-0.07-0.34-0.17-0.48-0.3
			c-0.13-0.13-0.23-0.28-0.3-0.45C782.92,157.67,782.89,157.48,782.89,157.27z"/>
		<path style="fill:#07061C;" d="M795.39,144.99v2.2h-0.16c-0.64,0-1.2,0.08-1.71,0.25c-0.51,0.16-0.94,0.4-1.31,0.7
			c-0.37,0.3-0.66,0.67-0.89,1.1c-0.23,0.43-0.37,0.92-0.45,1.45c0.33-0.33,0.72-0.6,1.17-0.8c0.45-0.2,0.97-0.3,1.55-0.3
			c0.63,0,1.19,0.12,1.67,0.37c0.48,0.24,0.88,0.57,1.2,0.99c0.32,0.42,0.56,0.9,0.72,1.45c0.16,0.55,0.24,1.14,0.24,1.76
			c0,0.65-0.11,1.26-0.32,1.83c-0.21,0.56-0.52,1.05-0.91,1.47c-0.39,0.41-0.87,0.74-1.43,0.98c-0.56,0.24-1.18,0.36-1.87,0.36
			c-0.72,0-1.37-0.13-1.96-0.39c-0.59-0.26-1.08-0.63-1.49-1.1c-0.41-0.47-0.73-1.04-0.95-1.69c-0.22-0.66-0.34-1.38-0.34-2.17
			v-1.04c0-1.08,0.15-2.08,0.46-2.99s0.75-1.69,1.34-2.34c0.59-0.65,1.3-1.16,2.15-1.53s1.82-0.55,2.9-0.55H795.39z M792.78,151.73
			c-0.24,0-0.46,0.03-0.66,0.1c-0.2,0.06-0.39,0.15-0.55,0.27c-0.17,0.11-0.31,0.25-0.44,0.4c-0.13,0.15-0.23,0.31-0.3,0.48v0.8
			c0,0.47,0.05,0.89,0.15,1.25c0.1,0.36,0.24,0.66,0.41,0.89c0.18,0.24,0.39,0.41,0.64,0.53c0.25,0.12,0.52,0.18,0.82,0.18
			c0.29,0,0.55-0.06,0.79-0.18c0.24-0.12,0.44-0.29,0.61-0.51c0.17-0.22,0.3-0.47,0.39-0.77c0.09-0.3,0.14-0.62,0.14-0.98
			c0-0.36-0.04-0.69-0.13-0.98c-0.09-0.3-0.22-0.56-0.39-0.78c-0.17-0.22-0.38-0.39-0.62-0.51
			C793.36,151.79,793.09,151.73,792.78,151.73z"/>
	</g>
	<path style="fill:#07061C;" d="M802.6,275.52l-9.08,0.29c-3.92,0.04-8.19,0.07-10.33,0.08c-0.43-0.33-0.94-0.56-1.51-0.66
		c-1.9-0.34-3.72,0.93-4.06,2.83c-0.34,1.9,0.93,3.72,2.83,4.06c1.47,0.26,2.89-0.44,3.61-1.64l12.72-3.36c0.07-0.02-0.06,0.03,0,0
		L802.6,275.52z"/>
	<g>
		<path style="fill:none;" d="M840.91,291.09c-0.1-0.26-0.16-0.42-0.19-0.49C840.76,290.68,840.82,290.86,840.91,291.09z"/>
		<path style="fill:none;" d="M841.16,291.75c-0.03-0.09-0.07-0.18-0.1-0.25C841.1,291.58,841.13,291.66,841.16,291.75z"/>
		<path style="fill:#F9B280;" d="M841.07,291.5c-0.06-0.15-0.11-0.28-0.15-0.4C840.96,291.21,841.01,291.34,841.07,291.5z"/>
		<path style="fill:#F9B280;" d="M840.73,290.6C840.71,290.54,840.7,290.54,840.73,290.6L840.73,290.6z"/>
		<path style="fill:#F9B280;" d="M842.46,295.21C842.53,295.38,842.52,295.36,842.46,295.21L842.46,295.21z"/>
		<path style="fill:#F9B280;" d="M841.07,291.5c-0.06-0.16-0.11-0.29-0.15-0.4c-0.09-0.24-0.16-0.41-0.19-0.49
			c-0.02-0.06-0.02-0.06,0,0c0.03,0.07,0.09,0.23,0.19,0.49C840.96,291.21,841.01,291.35,841.07,291.5c0.03,0.08,0.06,0.17,0.1,0.25
			c0.46,1.22,1.12,2.99,1.3,3.46h46.77c-1.08-2.02-1.78-3.33-2.21-4.13c-0.14-0.25-0.28-0.5-0.43-0.78
			c-13-23.76-9.48-39.99-7.47-45.59c0.34-0.74,0.65-1.47,0.91-2.16v0c0.22-0.58,0.41-1.14,0.55-1.63c1.02-3.76,0.46-7.85-1.54-11.22
			l-26.54-42.76c-0.4-0.67-0.96-1.24-1.62-1.64c-1.74-1.05-3.94-0.88-5.48,0.43c-3.92,3.33-5.05,9.12-3.38,17.21
			c1.4,6.73,4.46,13.64,6.79,18.27c7.83,12.79,8.92,24.18,6.77,34.01c-0.22,0.5-0.33,1.02-0.37,1.56
			c-3.32,12.89-9.33,22.09-15.26,28.88l-1.38,0.18l-4.18-2.54c6.7,10.15,6.04,6.57,8.06,11.93c-0.61-1.62-1.03-2.72-1.3-3.46
			C841.13,291.66,841.1,291.58,841.07,291.5z"/>
		<path style="fill:#F9B280;" d="M841.16,291.75c0.28,0.74,0.69,1.84,1.3,3.46h0C842.29,294.74,841.62,292.97,841.16,291.75z"/>
	</g>
</g>
<g>
	<linearGradient id="SVGID_30_" gradientUnits="userSpaceOnUse" x1="518.1475" y1="247.2088" x2="547.7988" y2="290.8529">
		<stop  offset="0" style="stop-color:#A3704D"/>
		<stop  offset="1" style="stop-color:#F9B280"/>
	</linearGradient>
	<path style="fill:url(#SVGID_30_);" d="M553.74,249.6c-3.02-3.39-1.41-0.97-1.41-0.97l-14.4,56.63l-19.49-7.64
		c1.42,1.77,2.96,3.45,4.63,5c3.77,3.5,6.68,5.01,8.75,5.61c3.36,0.97,6.25,3.12,8.25,5.99c1.09,1.57,2.28,3.15,3.41,4.89
		C553.96,307.08,572.97,281.01,553.74,249.6z"/>
	<path style="fill:#07061C;" d="M515.67,286.59l-10.88-0.2c-4.69-0.19-9.8-0.41-12.37-0.52c-0.49-0.42-1.09-0.73-1.76-0.88
		c-2.26-0.52-4.51,0.89-5.03,3.15c-0.52,2.26,0.89,4.51,3.15,5.03c1.74,0.4,3.48-0.35,4.42-1.75l15.42-3.25c0.09-0.02-0.07,0.04,0,0
		L515.67,286.59z"/>
	<g>
		<rect x="564.58" y="190.25" style="fill:none;" width="0" height="0"/>
		<rect x="565.79" y="189.22" style="fill:none;" width="0" height="2.46"/>
		<linearGradient id="SVGID_31_" gradientUnits="userSpaceOnUse" x1="437.4877" y1="255.5481" x2="567.186" y2="255.5481">
			<stop  offset="0" style="stop-color:#2A8FE5"/>
			<stop  offset="1" style="stop-color:#0578AB"/>
		</linearGradient>
		<path style="fill:url(#SVGID_31_);" d="M563.33,181.77l-9.5,2.77l-76.04-18.05l-5.09,22.22l-14.97,62.66l-0.07-0.02l-9.27,38.03
			l-5.17,20.8l-5.73,7.02l3.67,5.73l90.31,21.58l-0.33,0.11l0.33-0.11l0,0l0,0l0,0l0.29-1.3c0.04-0.13,0.08-0.26,0.39-1.66
			l34.39-148.82l0.13,0l0.33-1.99l0.19-0.83L563.33,181.77z M564.58,190.25L564.58,190.25L564.58,190.25L564.58,190.25
			L564.58,190.25z M564.58,190.25L564.58,190.25l2.43,0.4v0L564.58,190.25z"/>
	</g>
	<g>
		<linearGradient id="SVGID_32_" gradientUnits="userSpaceOnUse" x1="460.1922" y1="239.118" x2="546.0757" y2="239.118">
			<stop  offset="0.1633" style="stop-color:#2AC1E5"/>
			<stop  offset="1" style="stop-color:#0581DD"/>
		</linearGradient>
		<polygon style="fill:url(#SVGID_32_);" points="546.08,192.82 541.02,191.59 501.4,182.34 485.87,178.58 484.28,185.52 
			462.76,275.61 460.19,285.75 465.75,287.06 513.53,297.97 520.44,299.65 521.5,295.44 543.71,202.43 		"/>
		<g>
			<linearGradient id="SVGID_33_" gradientUnits="userSpaceOnUse" x1="462.6953" y1="239.1218" x2="543.5909" y2="239.1218">
				<stop  offset="0.1633" style="stop-color:#2AC1E5"/>
				<stop  offset="1" style="stop-color:#0581DD"/>
			</linearGradient>
			<polygon style="fill:url(#SVGID_33_);" points="543.59,194.33 540.53,193.58 500.93,184.34 487.41,181.07 486.28,185.98 
				464.76,276.09 462.7,284.23 466.22,285.06 513.99,295.97 518.94,297.18 519.5,294.94 541.72,201.96 			"/>
			<linearGradient id="SVGID_34_" gradientUnits="userSpaceOnUse" x1="441.6118" y1="249.9041" x2="540.3144" y2="249.9041">
				<stop  offset="0.1633" style="stop-color:#2AC1E5"/>
				<stop  offset="1" style="stop-color:#0581DD"/>
			</linearGradient>
			<path style="fill:url(#SVGID_34_);" d="M475.2,161.85l-5,20.82l-15.07,63.1l0,0l-9.24,37.57l-8.4,33.85l88.94,20.77l8.01-35.15
				l0.59-2.54c0.17-0.5,0.3-0.98,0.42-1.45l23.83-99.76c0.05-0.19,0.08-0.37,0.12-0.55l3.93-16.73L475.2,161.85z M519.5,294.94
				l-0.56,2.24l-4.95-1.2l-47.77-10.91l-3.52-0.83l2.06-8.14l21.52-90.11l1.13-4.91l13.52,3.27l39.6,9.24l3.06,0.75l-1.88,7.63
				L519.5,294.94z"/>
		</g>
	</g>
	<linearGradient id="SVGID_35_" gradientUnits="userSpaceOnUse" x1="435.3354" y1="225.5556" x2="585.6798" y2="225.5556">
		<stop  offset="0.1633" style="stop-color:#2AC1E5"/>
		<stop  offset="1" style="stop-color:#0581DD"/>
	</linearGradient>
	<path style="fill:url(#SVGID_35_);" d="M486.36,225.3c-0.09,0.17-0.19,0.33-0.27,0.5C486.17,225.64,486.27,225.47,486.36,225.3z"/>
	<linearGradient id="SVGID_36_" gradientUnits="userSpaceOnUse" x1="435.3354" y1="213.0279" x2="585.6798" y2="213.0279">
		<stop  offset="0.1633" style="stop-color:#2AC1E5"/>
		<stop  offset="1" style="stop-color:#0581DD"/>
	</linearGradient>
	<path style="fill:url(#SVGID_36_);" d="M492.5,213.02c0.01,0,0.03,0.01,0.04,0.01C492.53,213.03,492.51,213.03,492.5,213.02z"/>
	<linearGradient id="SVGID_37_" gradientUnits="userSpaceOnUse" x1="435.3354" y1="213.149" x2="585.6798" y2="213.149">
		<stop  offset="0.1633" style="stop-color:#2AC1E5"/>
		<stop  offset="1" style="stop-color:#0581DD"/>
	</linearGradient>
	<path style="fill:url(#SVGID_37_);" d="M491.43,213.17c0.04-0.02,0.09-0.03,0.13-0.04C491.52,213.14,491.48,213.15,491.43,213.17z"
		/>
	<linearGradient id="SVGID_38_" gradientUnits="userSpaceOnUse" x1="435.3354" y1="213.0386" x2="585.6798" y2="213.0386">
		<stop  offset="0.1633" style="stop-color:#2AC1E5"/>
		<stop  offset="1" style="stop-color:#0581DD"/>
	</linearGradient>
	<path style="fill:url(#SVGID_38_);" d="M491.91,213.05c0.04-0.01,0.09-0.02,0.13-0.02C492,213.03,491.95,213.04,491.91,213.05z"/>
	<linearGradient id="SVGID_39_" gradientUnits="userSpaceOnUse" x1="435.3354" y1="224.0132" x2="585.6798" y2="224.0132">
		<stop  offset="0.1633" style="stop-color:#2AC1E5"/>
		<stop  offset="1" style="stop-color:#0581DD"/>
	</linearGradient>
	<path style="fill:url(#SVGID_39_);" d="M487.28,223.73c-0.12,0.19-0.25,0.37-0.37,0.57C487.03,224.1,487.15,223.92,487.28,223.73z"
		/>
	<linearGradient id="SVGID_40_" gradientUnits="userSpaceOnUse" x1="435.3354" y1="222.5897" x2="585.6798" y2="222.5897">
		<stop  offset="0.1633" style="stop-color:#2AC1E5"/>
		<stop  offset="1" style="stop-color:#0581DD"/>
	</linearGradient>
	<path style="fill:url(#SVGID_40_);" d="M488.29,222.3c-0.15,0.19-0.3,0.38-0.44,0.57C487.99,222.68,488.14,222.49,488.29,222.3z"/>
	<linearGradient id="SVGID_41_" gradientUnits="userSpaceOnUse" x1="435.3354" y1="213.1356" x2="585.6798" y2="213.1356">
		<stop  offset="0.1633" style="stop-color:#2AC1E5"/>
		<stop  offset="1" style="stop-color:#0581DD"/>
	</linearGradient>
	<path style="fill:url(#SVGID_41_);" d="M492.95,213.11c0.04,0.01,0.09,0.03,0.13,0.04C493.03,213.14,492.99,213.13,492.95,213.11z"
		/>
	<linearGradient id="SVGID_42_" gradientUnits="userSpaceOnUse" x1="435.3354" y1="217.9386" x2="585.6798" y2="217.9386">
		<stop  offset="0.1633" style="stop-color:#2AC1E5"/>
		<stop  offset="1" style="stop-color:#0581DD"/>
	</linearGradient>
	<path style="fill:url(#SVGID_42_);" d="M493.25,217.73c-0.21,0.14-0.41,0.28-0.62,0.42C492.84,218.01,493.04,217.86,493.25,217.73z
		"/>
	<linearGradient id="SVGID_43_" gradientUnits="userSpaceOnUse" x1="435.3354" y1="221.2702" x2="585.6798" y2="221.2702">
		<stop  offset="0.1633" style="stop-color:#2AC1E5"/>
		<stop  offset="1" style="stop-color:#0581DD"/>
	</linearGradient>
	<path style="fill:url(#SVGID_43_);" d="M489.39,221c-0.17,0.18-0.33,0.36-0.49,0.55C489.06,221.36,489.22,221.18,489.39,221z"/>
	<linearGradient id="SVGID_44_" gradientUnits="userSpaceOnUse" x1="435.3354" y1="218.9407" x2="585.6798" y2="218.9407">
		<stop  offset="0.1633" style="stop-color:#2AC1E5"/>
		<stop  offset="1" style="stop-color:#0581DD"/>
	</linearGradient>
	<path style="fill:url(#SVGID_44_);" d="M491.88,218.71c-0.2,0.15-0.39,0.31-0.58,0.47C491.49,219.02,491.68,218.86,491.88,218.71z"
		/>
	<linearGradient id="SVGID_45_" gradientUnits="userSpaceOnUse" x1="435.3354" y1="220.0528" x2="585.6798" y2="220.0528">
		<stop  offset="0.1633" style="stop-color:#2AC1E5"/>
		<stop  offset="1" style="stop-color:#0581DD"/>
	</linearGradient>
	<path style="fill:url(#SVGID_45_);" d="M490.05,220.31c0.18-0.17,0.36-0.34,0.54-0.51C490.41,219.97,490.23,220.13,490.05,220.31z"
		/>
	<linearGradient id="SVGID_46_" gradientUnits="userSpaceOnUse" x1="435.3354" y1="214.8592" x2="585.6798" y2="214.8592">
		<stop  offset="0.1633" style="stop-color:#2AC1E5"/>
		<stop  offset="1" style="stop-color:#0581DD"/>
	</linearGradient>
	<path style="fill:url(#SVGID_46_);" d="M494.65,214.93c-0.01-0.05-0.03-0.09-0.04-0.14C494.63,214.84,494.64,214.88,494.65,214.93z
		"/>
	<linearGradient id="SVGID_47_" gradientUnits="userSpaceOnUse" x1="435.3354" y1="214.4665" x2="585.6798" y2="214.4665">
		<stop  offset="0.1633" style="stop-color:#2AC1E5"/>
		<stop  offset="1" style="stop-color:#0581DD"/>
	</linearGradient>
	<path style="fill:url(#SVGID_47_);" d="M494.51,214.49c-0.01-0.03-0.03-0.05-0.04-0.08c0.02,0.04,0.04,0.08,0.06,0.12
		C494.52,214.51,494.52,214.5,494.51,214.49z"/>
	<linearGradient id="SVGID_48_" gradientUnits="userSpaceOnUse" x1="435.3354" y1="213.3228" x2="585.6798" y2="213.3228">
		<stop  offset="0.1633" style="stop-color:#2AC1E5"/>
		<stop  offset="1" style="stop-color:#0581DD"/>
	</linearGradient>
	<path style="fill:url(#SVGID_48_);" d="M493.39,213.29c0.04,0.02,0.07,0.04,0.11,0.06C493.47,213.33,493.43,213.31,493.39,213.29z"
		/>
	<linearGradient id="SVGID_49_" gradientUnits="userSpaceOnUse" x1="435.3354" y1="214.0232" x2="585.6798" y2="214.0232">
		<stop  offset="0.1633" style="stop-color:#2AC1E5"/>
		<stop  offset="1" style="stop-color:#0581DD"/>
	</linearGradient>
	<path style="fill:url(#SVGID_49_);" d="M494.2,213.96c0.03,0.04,0.06,0.08,0.08,0.12C494.26,214.04,494.23,214,494.2,213.96z"/>
	<polyline style="fill:#FFFFFF;" points="455.18,279.57 449.35,302.44 521.02,319.55 526.89,302.22 	"/>
	<linearGradient id="SVGID_50_" gradientUnits="userSpaceOnUse" x1="435.3354" y1="213.6443" x2="585.6798" y2="213.6443">
		<stop  offset="0.1633" style="stop-color:#2AC1E5"/>
		<stop  offset="1" style="stop-color:#0581DD"/>
	</linearGradient>
	<path style="fill:url(#SVGID_50_);" d="M493.88,213.62c0.02,0.02,0.04,0.04,0.05,0.05C493.91,213.65,493.9,213.63,493.88,213.62z"
		/>
	<path style="fill:#FFFFFF;" d="M499.39,198.32c-0.15-0.04-0.28-0.06-0.38-0.08c-0.1-0.02-0.21-0.03-0.32-0.04l-0.52,2.24l0.77,0.18
		c0.4,0.09,0.74,0.07,1-0.07c0.26-0.14,0.44-0.4,0.53-0.78c0.08-0.37,0.04-0.67-0.14-0.92C500.13,198.6,499.82,198.42,499.39,198.32
		z"/>
	<path style="fill:#FFFFFF;" d="M480.71,280.31l26.11,5.82c0.23,0.05,0.47,0.08,0.69,0.08l0.04,0c0.9-0.01,1.76-0.45,2.34-1.21
		c0.64-0.83,0.86-1.9,0.61-2.94l-7.66-27.44c-0.44-1.66-1.82-2.25-2.87-2.25l-0.04,0c-0.86,0.01-1.66,0.4-2.24,1.1l-0.02,0.02
		l-18.57,21.58c-0.76,0.94-0.98,2.17-0.59,3.29C478.86,279.36,479.66,280.08,480.71,280.31z M494.9,271.59l1.39-11.03
		c0.23-1.02,1.3-1.7,2.32-1.48l1.02,0.23c1.02,0.23,1.7,1.3,1.47,2.32l-3.43,10.58c-0.23,1.02-0.28,1.93-1.3,1.7l-1.02-0.23
		C494.33,273.45,494.67,272.61,494.9,271.59z M492.46,277.02c0.23-1.05,1.53-1.65,2.9-1.35c1.37,0.31,2.29,1.4,2.06,2.45
		c-0.23,1.05-1.53,1.65-2.9,1.35C493.15,279.17,492.23,278.07,492.46,277.02z"/>
	<path style="fill:#FFFFFF;" d="M547.71,203.39l3.34-13.58l-6.39-1.56c-0.16-0.05-0.32-0.1-0.48-0.14l-2.21-0.52l0,0l0,0
		l-39.62-9.24h0l-19.53-4.73l-2.52,10.98h0l-21.51,90.06l0,0l-3.59,14.14l9.14,2.12c0.15,0.04,0.29,0.09,0.45,0.13l47.85,10.93
		l10.83,2.64l1.88-7.68c0.05-0.17,0.11-0.33,0.15-0.5L547.71,203.39z"/>
	<path style="fill:#FFFFFF;" d="M527.9,197.16c-0.45-0.11-0.85,0.05-1.2,0.45c-0.34,0.41-0.61,1.04-0.81,1.88
		c-0.2,0.85-0.23,1.53-0.1,2.06c0.13,0.52,0.42,0.84,0.87,0.94c0.45,0.11,0.86-0.05,1.21-0.46c0.35-0.41,0.63-1.04,0.83-1.89
		c0.2-0.85,0.23-1.53,0.09-2.05C528.65,197.58,528.36,197.27,527.9,197.16z"/>
	<g>
		<path style="fill:#FFFFFF;" d="M552.48,189.49c-2.04-0.56-4.07-1.13-6.12-1.69c-5.18-1.42-10.41-2.81-15.62-4.25
			c0.2-0.17,0.39-0.33,0.59-0.5l-5.03-1.5c0.11,0.82,0.22,1.63,0.33,2.45c-3.4,5.15-6.79,10.24-10.13,15.29
			c-4.25-0.78-8.47-1.51-12.72-2.28c-4.22-0.77-8.46-1.55-12.68-2.29c-4.06-4.25-8.15-8.41-12.25-12.53l-0.69,2.86
			c3.78,3.83,7.55,7.7,11.29,11.65c0.1,0.12,0.17,0.2,0.28,0.3c0.12,0.04,0.27,0.07,0.4,0.07c4.14,0.81,8.26,1.58,12.38,2.34
			c4.12,0.78,8.24,1.51,12.37,2.25c-4.91,7.36-9.83,14.63-14.72,21.78c-4.92-1.31-9.82-2.6-14.73-3.93
			c-4.87-1.32-9.76-2.59-14.64-3.87l-0.56,2.31c4.79,1.33,9.59,2.64,14.39,3.95c5.09,1.39,10.2,2.75,15.29,4.14
			c1.61,2.57,3.23,5.13,4.83,7.72c-6.51,3.1-12.93,6.1-19.41,8.96c-6.36,2.79-12.78,5.39-19.11,7.94c-0.95-1.41-1.9-2.8-2.85-4.2
			l-0.74,3.09c0.44,0.66,0.89,1.31,1.33,1.97c-0.66,0.25-1.32,0.49-1.98,0.74l-0.73,3.04c1.4-0.51,2.81-1.02,4.21-1.54
			c2.79,4.29,5.61,8.62,8.41,13c0.02,0.05,0.04,0.1,0.07,0.13c0.05,0.04,0.1,0.1,0.13,0.13c2.91,2.96,5.8,5.97,8.7,8.96
			c-5.87,2.62-11.68,5.14-17.46,7.57c-3.15-1.99-6.28-3.97-9.42-5.95l-0.58,2.4c2.38,1.51,4.78,3.03,7.15,4.54
			c-2.99,1-5.97,1.96-8.94,2.9l-0.62,2.56v0l-0.13,0.5c3.93-1.23,7.86-2.48,11.81-3.78c2.3,8.87,4.53,17.91,6.75,27.09l2.56,0.75
			c-2.32-9.69-4.68-19.26-7.08-28.67c5.93-2.49,11.92-5.08,17.94-7.78c2.85,3.04,5.7,6.12,8.57,9.19
			c-6.14,9.38-12.24,18.57-18.3,27.59l2.73,0.8c6.03-9.02,12.08-18.19,18.2-27.52c0.21-0.31,0.42-0.6,0.6-0.94c0,0,0,0-0.03-0.03
			c4.05-6.67,8.12-13.41,12.19-20.25c5.25,6.44,10.47,13.04,15.67,19.7c-7.52,8.67-14.96,17.14-22.36,25.37
			c-0.23,0.26-0.45,0.51-0.71,0.76c0.23,0.37,0.43,0.71,0.64,1.03c2.03,3.58,4.09,7.16,6.12,10.78l1.02,0.3l2.37,0.74
			c-2.3-4.07-4.63-8.16-6.94-12.19c7.43-8.31,14.92-16.86,22.49-25.63c0.25-0.34,0.52-0.63,0.79-0.94c-0.27-0.36-0.53-0.7-0.77-1.05
			c-5.43-6.9-10.85-13.71-16.31-20.39c8.06-2.93,16.15-6.02,24.29-9.26c0.44,2.27,0.88,4.56,1.32,6.84l1.43-5.93
			c-0.13-0.66-0.26-1.33-0.39-1.99c0.33-0.18,0.66-0.36,1-0.54l0.88-3.64c-1.26,0.68-2.53,1.36-3.79,2.03
			c-8.19,3.31-16.36,6.46-24.47,9.44c5.19-11.73,10.44-23.58,15.69-35.53c4.99-2.36,10.02-4.76,15.04-7.23
			c1.92-0.96,3.84-1.94,5.76-2.92l0.84-3.48c-5.37,2.76-10.73,5.47-16.11,8.05c-8.36,4.01-16.8,7.79-25.14,11.43
			c-1.58-2.58-3.19-5.15-4.83-7.74c8.67-12.75,17.41-25.81,26.24-39.18c5.45,1.51,10.94,3.01,16.39,4.54
			c2.82,0.78,5.65,1.58,8.47,2.38l0.67-2.7L552.48,189.49z M494.66,285.13c-2.51-2.72-5.04-5.4-7.58-8.13
			c5.86-2.72,11.75-5.58,17.68-8.54C501.36,274.07,498.02,279.62,494.66,285.13z M507.11,235.57c5.33-2.3,10.68-4.67,16.05-7.13
			c-5.29,11.98-10.54,23.82-15.76,35.55c-7.47,3.82-14.93,7.45-22.31,10.92c-3.1-3.21-6.18-6.39-9.29-9.57
			c-2.69-4.19-5.39-8.34-8.09-12.45c6.47-2.59,13.04-5.29,19.55-8.13C493.88,241.85,500.46,238.73,507.11,235.57z"/>
		<path style="fill:#FFFFFF;" d="M476.7,205.76c-0.23-0.24-0.47-0.45-0.7-0.69c-0.72-0.7-1.44-1.4-2.16-2.1l-0.67,2.77
			c0.11,0.11,0.22,0.22,0.33,0.32c-0.22,0.36-0.44,0.72-0.67,1.08l-1.94,8.08c1.77-2.88,3.54-5.78,5.31-8.68
			C476.4,206.29,476.54,206.02,476.7,205.76z"/>
		<path style="fill:#FFFFFF;" d="M515.44,326.83c2.44-2.51,4.88-5.05,7.33-7.61l0.02-0.08c0.06-0.2,0.13-0.4,0.18-0.6l1.17-4.88
			c-3.92,4.13-7.83,8.21-11.72,12.23L515.44,326.83z"/>
		<path style="opacity:0.3;fill:#29BFE5;" d="M546.36,187.8c2.04,0.56,4.08,1.12,6.12,1.69l-5.2-1.62
			c-0.17-0.07-0.33-0.14-0.51-0.19l-2.33-0.7l0,0l-13.11-3.92c-0.2,0.17-0.39,0.34-0.59,0.5
			C535.95,184.99,541.18,186.38,546.36,187.8z"/>
		<path style="opacity:0.3;fill:#29BFE5;" d="M528.49,185.75c-8.83,13.37-17.57,26.43-26.24,39.18c1.64,2.58,3.25,5.15,4.83,7.74
			c8.34-3.64,16.77-7.42,25.14-11.43c5.38-2.58,10.74-5.28,16.11-8.05l1.65-6.85l3.38-13.67c-2.82-0.8-5.65-1.6-8.47-2.38
			C539.43,188.76,533.94,187.26,528.49,185.75z"/>
		<path style="opacity:0.3;fill:#29BFE5;" d="M510.73,265.39c5.46,6.68,10.88,13.49,16.31,20.39c0.23,0.35,0.5,0.69,0.77,1.05
			c-0.27,0.31-0.54,0.6-0.79,0.94c-7.58,8.76-15.07,17.32-22.49,25.63c2.31,4.04,4.63,8.12,6.94,12.19l0.96,0.3
			c3.88-4.02,7.79-8.1,11.72-12.23l12.2-50.7c-0.44-2.28-0.88-4.56-1.32-6.84C526.89,259.37,518.79,262.46,510.73,265.39z"/>
		<path style="opacity:0.3;fill:#29BFE5;" d="M520.51,328.41l2.26-9.18c-2.45,2.56-4.89,5.1-7.33,7.61L520.51,328.41z"/>
		<path style="opacity:0.3;fill:#29BFE5;" d="M537.77,257.04l0.61-2.53c-0.33,0.18-0.66,0.36-1,0.54
			C537.51,255.71,537.64,256.37,537.77,257.04z"/>
		<path style="opacity:0.5;fill:#29BFE5;" d="M485.35,242.71c6.48-2.86,12.9-5.86,19.41-8.96c-1.61-2.59-3.22-5.14-4.83-7.72
			c-5.09-1.39-10.2-2.75-15.29-4.14c-4.8-1.31-9.59-2.62-14.39-3.95l-6.86,28.51c0.95,1.39,1.9,2.79,2.85,4.2
			C472.57,248.1,478.98,245.5,485.35,242.71z"/>
		<path style="opacity:0.3;fill:#29BFE5;" d="M467.7,252.88c2.71,4.11,5.41,8.26,8.09,12.45c3.11,3.19,6.18,6.37,9.29,9.57
			c7.38-3.47,14.84-7.1,22.31-10.92c5.22-11.73,10.47-23.57,15.76-35.55c-5.37,2.46-10.72,4.82-16.05,7.13
			c-6.65,3.16-13.23,6.28-19.85,9.18C480.75,247.59,474.18,250.29,467.7,252.88z"/>
		<path style="opacity:0.3;fill:#29BFE5;" d="M494.66,285.13c3.36-5.5,6.7-11.05,10.1-16.67c-5.92,2.96-11.82,5.81-17.68,8.54
			C489.62,279.72,492.15,282.41,494.66,285.13z"/>
		<path style="opacity:0.3;fill:#29BFE5;" d="M501.32,312.76c0.26-0.25,0.48-0.5,0.71-0.76c7.41-8.23,14.84-16.7,22.36-25.37
			c-5.2-6.66-10.42-13.26-15.67-19.7c-4.06,6.83-8.13,13.58-12.19,20.25c0.03,0.03,0.03,0.03,0.03,0.03
			c-0.18,0.34-0.39,0.63-0.6,0.94c-6.12,9.33-12.17,18.51-18.2,27.52l30.32,8.9c-2.03-3.61-4.09-7.19-6.12-10.78
			C501.75,313.47,501.55,313.13,501.32,312.76z"/>
		<path style="opacity:0.3;fill:#29BFE5;" d="M452.78,290.48l-4.2,16.56l9.63,2.86c0.16,0.06,0.31,0.12,0.47,0.17l12.66,3.72
			c-2.21-9.17-4.45-18.21-6.75-27.09C460.64,288,456.71,289.26,452.78,290.48z"/>
		<path style="opacity:0.3;fill:#29BFE5;" d="M484.75,278.09c-6.01,2.69-12,5.29-17.94,7.78c2.4,9.41,4.75,18.98,7.08,28.67
			l1.14,0.33c6.05-9.02,12.15-18.21,18.3-27.59C490.45,284.21,487.61,281.13,484.75,278.09z"/>
		<path style="opacity:0.3;fill:#29BFE5;" d="M482.77,275.96c-2.9-2.99-5.79-6.01-8.7-8.96c-0.02-0.03-0.08-0.09-0.13-0.13
			c-0.03-0.03-0.05-0.08-0.07-0.13c-2.8-4.37-5.61-8.71-8.41-13c-1.41,0.52-2.81,1.03-4.21,1.54l-5.37,22.3
			c3.14,1.98,6.27,3.96,9.42,5.95C471.09,281.11,476.9,278.58,482.77,275.96z"/>
		<path style="opacity:0.3;fill:#29BFE5;" d="M462.64,249.54l-0.65,2.71c0.66-0.25,1.32-0.49,1.98-0.74
			C463.53,250.85,463.08,250.2,462.64,249.54z"/>
		<path style="opacity:0.3;fill:#29BFE5;" d="M455.31,279.98l-1.79,7.44c2.97-0.94,5.94-1.9,8.94-2.9
			C460.09,283.01,457.69,281.5,455.31,279.98z"/>
		<path style="opacity:0.3;fill:#29BFE5;" d="M503.78,197.01c4.25,0.78,8.47,1.51,12.72,2.28c3.34-5.04,6.73-10.14,10.13-15.29
			c-0.11-0.82-0.22-1.63-0.33-2.45l-23.6-7.06l-20.57-6.36l-3.08,13.25l-0.19,0.8c4.1,4.12,8.18,8.28,12.25,12.53
			C495.32,195.46,499.56,196.24,503.78,197.01z"/>
		<path style="fill:none;stroke:#EBE4DD;stroke-width:0;stroke-linecap:round;stroke-linejoin:round;" d="M469.09,198.38
			c0.19,0.18,0.37,0.36,0.56,0.54"/>
		<path style="opacity:0.3;fill:#29BFE5;" d="M500.17,223.43c4.89-7.15,9.81-14.42,14.72-21.78c-4.13-0.74-8.25-1.48-12.37-2.25
			c-4.12-0.76-8.24-1.54-12.38-2.34c-0.13,0-0.28-0.03-0.4-0.07c-0.11-0.1-0.18-0.19-0.28-0.3c-3.75-3.94-7.52-7.81-11.29-11.65
			l-4.32,17.93c0.72,0.7,1.44,1.39,2.16,2.1c0.23,0.24,0.47,0.45,0.7,0.69c-0.17,0.26-0.3,0.53-0.5,0.79
			c-1.77,2.9-3.54,5.79-5.31,8.68c-0.08,0.12-0.15,0.25-0.23,0.37c0.04,0.01,0.09,0.02,0.13,0.03c4.88,1.28,9.77,2.55,14.64,3.87
			C490.35,220.83,495.25,222.12,500.17,223.43z"/>
		<path style="opacity:0.3;fill:#29BFE5;" d="M473.18,205.74l-0.34,1.4c0.22-0.36,0.44-0.72,0.67-1.08
			C473.4,205.95,473.29,205.85,473.18,205.74z"/>
		<path style="opacity:0.3;fill:#29BFE5;" d="M526.69,226.81c-5.25,11.95-10.5,23.79-15.69,35.53c8.1-2.98,16.28-6.13,24.47-9.44
			c1.26-0.67,2.52-1.36,3.79-2.03l8.23-34.2c-1.92,0.98-3.84,1.96-5.76,2.92C536.71,222.05,531.68,224.46,526.69,226.81z"/>
	</g>
	<g>
		<path style="fill:none;" d="M539.07,208.79l-41.83-9.76l-18.73-4.53l-2.33,10.17l-21.51,90.06l-0.49,1.92
			c3.99-5.79,9.62-10.36,16.39-13.11l1.3-0.53l0.02,0.05c0.52-0.19,1.04-0.37,1.57-0.54l-0.02-0.05l1.35-0.36
			c5.78-1.56,11.89-1.67,17.74-0.31c0.82,0.19,1.63,0.42,2.44,0.66c0.04,0.01,0.07,0.02,0.11,0.03
			c9.46,2.75,18.09,10.34,21.83,18.58c1.9,3.78,3.11,7.83,3.6,12.01l21.5-90.01l3.14-12.78l-5.69-1.4
			C539.33,208.86,539.2,208.82,539.07,208.79z"/>
		<path style="fill:#FFFFFF;" d="M495.07,282.5c-0.04-0.01-0.07-0.02-0.11-0.03c5.09,1.57,9.8,4.23,13.75,7.81l1.03,0.94l-4.94,4.84
			l-0.92-0.82c-3.66-3.26-8.14-5.58-12.94-6.69c-4.66-1.08-9.52-1.02-14.13,0.19l-1.19,0.31l-2.18-6.52
			c-0.53,0.17-1.06,0.35-1.57,0.54l2.18,6.51l-1.13,0.47c-8.38,3.49-14.6,10.44-17.1,19.09l3.98,0.93c0.08,0.02,0.16,0.05,0.24,0.07
			l47.85,10.93l5.51,1.34c1.5-8.66-0.91-17.47-6.64-24.22l-0.79-0.93l4.94-4.84l0.91,1.06c2.03,2.35,3.72,4.91,5.08,7.62
			C513.16,292.84,504.53,285.25,495.07,282.5z"/>
		<g>
			<path style="fill:none;" d="M490.82,178.77l-12.31,15.73l-2.33,10.17l-21.51,90.06l-0.49,1.92c3.99-5.79,9.62-10.36,16.39-13.11
				l1.3-0.53l0.02,0.05l2.18,6.51l-1.13,0.47c-8.38,3.49-14.6,10.44-17.1,19.09l3.98,0.93c0.08,0.02,0.16,0.05,0.24,0.07
				l47.85,10.93l5.51,1.34c1.5-8.66-0.91-17.47-6.64-24.22l-0.79-0.93l4.94-4.84l0.91,1.06c2.03,2.35,3.72,4.91,5.08,7.62
				c1.9,3.78,3.11,7.83,3.6,12.01l21.5-90.01l7.04-30.27l0.21-0.92L490.82,178.77z"/>
			<path style="fill:#07061C;" d="M479.58,169.56l-5.29,17.61l-3.81,16.63l-16.45,68.89l-7.87,31.82l-2.25,9.06l78.31,18.11
				l2.1-10.21l0.65-2.79c0.16-0.45,0.27-0.84,0.37-1.23l23.84-99.81c0.02-0.08,0.04-0.17,0.05-0.26l7.27-30.63L479.58,169.56z
				 M549.52,191.04L542,223.08l-21.5,90.01c-0.49-4.18-1.71-8.23-3.6-12.01c-1.36-2.7-3.05-5.26-5.08-7.62l-0.91-1.06l-4.94,4.84
				l0.79,0.93c5.73,6.75,8.14,15.56,6.64,24.22l-5.51-1.34l-47.85-10.93c-0.08-0.02-0.16-0.04-0.24-0.07l-3.98-0.93
				c2.5-8.65,8.72-15.6,17.1-19.09l1.13-0.47l-2.18-6.51l-0.02-0.05l-1.3,0.53c-6.77,2.75-12.4,7.32-16.39,13.11l0.49-1.92
				l21.51-90.06l2.33-10.17l12.79-16.76L549.52,191.04L549.52,191.04z"/>
		</g>
		<path style="fill:#07061C;" d="M476.82,288.73c4.62-1.21,9.48-1.27,14.13-0.19c4.8,1.12,9.27,3.43,12.94,6.69l0.92,0.82l4.94-4.84
			l-1.03-0.94c-3.95-3.58-8.66-6.24-13.75-7.81c-0.8-0.25-1.62-0.47-2.44-0.66c-5.85-1.36-11.97-1.26-17.74,0.31l-1.35,0.36
			l0.02,0.05l2.18,6.52L476.82,288.73z"/>
	</g>
	<linearGradient id="SVGID_51_" gradientUnits="userSpaceOnUse" x1="437.8146" y1="192.1059" x2="534.9485" y2="192.1059">
		<stop  offset="0.1633" style="stop-color:#2AC1E5"/>
		<stop  offset="1" style="stop-color:#0581DD"/>
	</linearGradient>
	<path style="fill-rule:evenodd;clip-rule:evenodd;fill:url(#SVGID_51_);" d="M483.56,152.45c-6.27,0.03-12.48,2.09-17.71,6.23
		c-11.65,9.17-14.57,24.6-8.56,38.14c3.19,7.95,17.85,27.71,26.59,34.94c8.64-7.3,23.14-27.18,26.26-35.15
		c5.9-13.59,2.86-29-8.87-38.07C496.01,154.44,489.78,152.43,483.56,152.45L483.56,152.45z M483.61,165.23
		c8.67-0.04,15.76,7.3,15.8,16.37c0.04,9.03-7,16.42-15.67,16.45c-8.71,0.04-15.81-7.3-15.85-16.33
		C467.86,172.65,474.9,165.27,483.61,165.23L483.61,165.23z"/>
	<path style="fill:#FFFFFF;stroke:#FFFFFF;stroke-width:1.6426;stroke-miterlimit:10;" d="M483.66,158.69h-0.1
		c-6.23,0.03-12.08,2.48-16.47,6.9c-4.39,4.42-6.79,10.29-6.77,16.53c0.05,12.81,10.52,23.23,23.33,23.23h0.1
		c6.23-0.03,12.08-2.48,16.47-6.9c4.39-4.42,6.79-10.29,6.77-16.53C506.94,169.11,496.47,158.69,483.66,158.69z"/>
	<g>
		<path style="fill:#07061C;" d="M474.66,188.07h-9.23v-1.83l4.35-4.64c0.33-0.36,0.6-0.68,0.83-0.98c0.22-0.3,0.41-0.57,0.55-0.81
			c0.14-0.25,0.24-0.48,0.3-0.69c0.06-0.21,0.09-0.42,0.09-0.61c0-0.6-0.15-1.07-0.45-1.41c-0.3-0.34-0.73-0.51-1.29-0.51
			c-0.31,0-0.59,0.06-0.84,0.17c-0.24,0.11-0.45,0.27-0.61,0.47c-0.16,0.2-0.29,0.44-0.37,0.72c-0.09,0.28-0.13,0.58-0.13,0.91
			h-2.68c0-0.6,0.11-1.17,0.32-1.71c0.22-0.54,0.53-1,0.93-1.41c0.41-0.4,0.9-0.72,1.47-0.95c0.58-0.23,1.22-0.35,1.95-0.35
			c0.71,0,1.34,0.09,1.88,0.26c0.55,0.18,1,0.43,1.37,0.75c0.37,0.33,0.65,0.73,0.84,1.2c0.19,0.47,0.29,1.01,0.29,1.6
			c0,0.45-0.07,0.88-0.21,1.3c-0.14,0.42-0.34,0.84-0.6,1.26c-0.26,0.42-0.57,0.84-0.94,1.27c-0.37,0.43-0.78,0.87-1.23,1.34
			l-2.38,2.51h5.79V188.07z"/>
		<path style="fill:#07061C;" d="M485.35,182.5c0,1.01-0.11,1.88-0.33,2.6c-0.22,0.72-0.53,1.32-0.92,1.79
			c-0.4,0.47-0.88,0.81-1.43,1.03c-0.56,0.22-1.18,0.33-1.85,0.33c-0.68,0-1.3-0.11-1.85-0.33c-0.56-0.22-1.04-0.56-1.44-1.03
			c-0.4-0.47-0.71-1.06-0.93-1.79c-0.22-0.72-0.33-1.59-0.33-2.6v-2.34c0-1.01,0.11-1.88,0.33-2.6c0.22-0.72,0.53-1.32,0.93-1.78
			c0.4-0.47,0.88-0.81,1.43-1.03c0.55-0.22,1.17-0.33,1.85-0.33c0.68,0,1.3,0.11,1.85,0.33c0.56,0.22,1.04,0.56,1.44,1.03
			c0.4,0.47,0.71,1.06,0.93,1.78c0.22,0.72,0.33,1.59,0.33,2.6V182.5z M482.68,179.79c0-0.6-0.04-1.1-0.13-1.51
			c-0.08-0.41-0.21-0.74-0.37-0.98c-0.16-0.25-0.36-0.43-0.6-0.54c-0.23-0.11-0.5-0.17-0.79-0.17c-0.3,0-0.56,0.06-0.79,0.17
			c-0.23,0.11-0.43,0.29-0.59,0.54c-0.16,0.25-0.28,0.58-0.36,0.98c-0.08,0.41-0.13,0.91-0.13,1.51v3.07c0,0.6,0.04,1.11,0.13,1.53
			c0.09,0.41,0.21,0.75,0.37,1c0.16,0.26,0.36,0.44,0.59,0.55c0.23,0.11,0.5,0.17,0.8,0.17c0.3,0,0.56-0.06,0.79-0.17
			c0.23-0.11,0.43-0.29,0.59-0.55c0.16-0.26,0.28-0.59,0.36-1c0.08-0.41,0.13-0.92,0.13-1.53V179.79z"/>
		<path style="fill:#07061C;" d="M487.41,186.76c0-0.2,0.04-0.39,0.11-0.57c0.07-0.18,0.17-0.33,0.3-0.45
			c0.13-0.13,0.29-0.23,0.48-0.3c0.18-0.07,0.39-0.11,0.62-0.11s0.44,0.04,0.62,0.11c0.19,0.07,0.35,0.17,0.48,0.3
			c0.13,0.13,0.23,0.28,0.3,0.45c0.07,0.18,0.11,0.36,0.11,0.57c0,0.2-0.04,0.39-0.11,0.56c-0.07,0.17-0.17,0.32-0.3,0.45
			c-0.13,0.13-0.29,0.22-0.48,0.3c-0.19,0.07-0.4,0.11-0.62,0.11s-0.43-0.04-0.62-0.11c-0.19-0.07-0.34-0.17-0.48-0.3
			c-0.13-0.13-0.23-0.28-0.3-0.45C487.44,187.15,487.41,186.96,487.41,186.76z"/>
		<path style="fill:#07061C;" d="M499.9,174.47v2.2h-0.16c-0.64,0-1.2,0.08-1.71,0.25c-0.51,0.16-0.94,0.4-1.31,0.7
			c-0.37,0.3-0.66,0.67-0.89,1.1c-0.23,0.43-0.37,0.92-0.45,1.45c0.33-0.33,0.72-0.6,1.17-0.8c0.45-0.2,0.97-0.3,1.55-0.3
			c0.63,0,1.19,0.12,1.67,0.37c0.48,0.24,0.88,0.57,1.2,0.99c0.32,0.42,0.56,0.9,0.72,1.45c0.16,0.55,0.24,1.14,0.24,1.76
			c0,0.65-0.11,1.26-0.32,1.83c-0.21,0.56-0.52,1.05-0.91,1.47c-0.39,0.41-0.87,0.74-1.43,0.98c-0.56,0.24-1.18,0.36-1.87,0.36
			c-0.72,0-1.37-0.13-1.96-0.39c-0.59-0.26-1.08-0.63-1.49-1.1c-0.41-0.47-0.73-1.04-0.95-1.69c-0.22-0.66-0.34-1.38-0.34-2.17
			v-1.04c0-1.08,0.15-2.08,0.46-2.99c0.31-0.91,0.75-1.69,1.34-2.34c0.59-0.65,1.3-1.16,2.15-1.53s1.82-0.55,2.9-0.55H499.9z
			 M497.3,181.21c-0.24,0-0.46,0.03-0.66,0.1c-0.2,0.06-0.39,0.15-0.55,0.27c-0.17,0.11-0.31,0.25-0.44,0.4
			c-0.13,0.15-0.23,0.31-0.3,0.48v0.8c0,0.47,0.05,0.89,0.15,1.25c0.1,0.36,0.24,0.66,0.41,0.89c0.18,0.24,0.39,0.41,0.64,0.53
			c0.25,0.12,0.52,0.18,0.82,0.18c0.29,0,0.55-0.06,0.79-0.18c0.24-0.12,0.44-0.29,0.61-0.51c0.17-0.22,0.3-0.47,0.39-0.77
			c0.09-0.3,0.14-0.62,0.14-0.98c0-0.36-0.04-0.69-0.13-0.98c-0.09-0.3-0.22-0.56-0.39-0.78c-0.17-0.22-0.38-0.39-0.62-0.51
			C497.88,181.27,497.61,181.21,497.3,181.21z"/>
	</g>
	<path style="fill:#07061C;" d="M507.11,305l-9.08,0.29c-3.92,0.04-8.19,0.07-10.33,0.08c-0.43-0.33-0.94-0.56-1.51-0.66
		c-1.9-0.34-3.72,0.93-4.06,2.83c-0.34,1.9,0.93,3.72,2.83,4.06c1.47,0.26,2.89-0.44,3.61-1.64l12.72-3.36c0.07-0.02-0.06,0.03,0,0
		L507.11,305z"/>
	<g>
		<path style="fill:none;" d="M545.43,320.58c-0.1-0.26-0.16-0.42-0.19-0.49C545.28,320.16,545.34,320.34,545.43,320.58z"/>
		<path style="fill:none;" d="M545.68,321.23c-0.03-0.09-0.07-0.18-0.1-0.25C545.61,321.06,545.65,321.15,545.68,321.23z"/>
		<path style="fill:#F9B280;" d="M545.58,320.98c-0.06-0.15-0.11-0.28-0.15-0.4C545.47,320.69,545.52,320.82,545.58,320.98z"/>
		<path style="fill:#F9B280;" d="M545.25,320.08C545.22,320.02,545.22,320.02,545.25,320.08L545.25,320.08z"/>
		<path style="fill:#F9B280;" d="M546.98,324.69C547.05,324.87,547.04,324.84,546.98,324.69L546.98,324.69z"/>
		<path style="fill:#F9B280;" d="M545.58,320.98c-0.06-0.16-0.11-0.29-0.15-0.4c-0.09-0.24-0.16-0.41-0.19-0.49
			c-0.02-0.06-0.02-0.06,0,0c0.03,0.07,0.09,0.23,0.19,0.49C545.48,320.7,545.53,320.83,545.58,320.98c0.03,0.08,0.06,0.17,0.1,0.25
			c0.46,1.22,1.12,2.99,1.3,3.46h46.77c-1.08-2.02-1.78-3.33-2.21-4.13c-0.14-0.25-0.28-0.5-0.43-0.78
			c-13-23.76-9.48-39.99-7.47-45.59c0.34-0.74,0.65-1.47,0.91-2.16v0c0.22-0.58,0.41-1.14,0.55-1.63c1.02-3.76,0.46-7.85-1.54-11.22
			l-26.54-42.76c-0.4-0.67-0.96-1.24-1.62-1.64c-1.74-1.05-3.94-0.88-5.48,0.43c-3.92,3.33-5.05,9.12-3.38,17.21
			c1.4,6.73,4.46,13.64,6.79,18.27c7.83,12.79,8.92,24.18,6.77,34.01c-0.22,0.5-0.33,1.02-0.37,1.56
			c-3.32,12.89-9.33,22.09-15.26,28.88l-1.38,0.18l-4.18-2.54c6.7,10.15,6.04,6.57,8.06,11.93c-0.61-1.62-1.03-2.72-1.3-3.46
			C545.65,321.15,545.61,321.06,545.58,320.98z"/>
		<path style="fill:#F9B280;" d="M545.68,321.23c0.28,0.74,0.69,1.84,1.3,3.46h0C546.8,324.22,546.14,322.45,545.68,321.23z"/>
	</g>
</g>
</svg>
