<?xml version="1.0" encoding="utf-8"?>
<!-- Generator: Adobe Illustrator 18.0.0, SVG Export Plug-In . SVG Version: 6.00 Build 0)  -->
<!DOCTYPE svg PUBLIC "-//W3C//DTD SVG 1.0//EN" "http://www.w3.org/TR/2001/REC-SVG-20010904/DTD/svg10.dtd">
<svg version="1.0" id="Layer_1" xmlns="http://www.w3.org/2000/svg" xmlns:xlink="http://www.w3.org/1999/xlink" x="0px" y="0px"
	 viewBox="0 0 684.04 270.23" style="enable-background:new 0 0 684.04 270.23;" xml:space="preserve">
<path style="fill:#FFFFFF;" d="M122.33,121.19c-0.03,0.02-0.06,0.04-0.09,0.06l0.81,1.37L122.33,121.19z"/>
<g>
	<g>
		<path style="fill:#FFFFFF;" d="M108.52,101.71l-48.1-20.54L80.69,33.7l1.13,0.77c11.04,7.55,24.69,27.66,30.04,41
			c0.35,0.87,0.69,1.76,1,2.65l2.61,7.33l13.37-31.3l-0.42-1.14c-3.29-8.86-13.31-21.98-17.99-26.84
			C101.67,17.1,91.28,9.96,79.56,4.95L67.96,0L28.23,93.04l71.04,30.34L108.52,101.71z"/>
		<path style="fill:#FFFFFF;" d="M136.77,168.52l48.1,20.54l-20.27,47.47l-1.13-0.77c-11.04-7.55-24.69-27.67-30.04-41
			c-0.35-0.87-0.68-1.76-1-2.65l-2.6-7.35l-13.38,31.32l0.42,1.14c3.29,8.85,13.31,21.98,18,26.83
			c8.75,9.08,19.13,16.22,30.86,21.23l11.6,4.95l39.73-93.04l-71.04-30.34L136.77,168.52z"/>
		<path style="fill:#FFFFFF;" d="M149.17,43.67l-63.71,149.2L33.77,170.8c0,0,4.22-10.9,24.19-23.19l-1.02-2.03l1.15,1.95
			c7.28-4.47,16.65-9.12,28.66-13.5l-29.63-12.65l-1.18,0.48c-11.11,4.54-21.12,11.05-29.75,19.34c-6.85,6.6-12.66,14.19-17.2,22.47
			l-0.11,0.2c-0.71,1.3-1.4,2.62-2.05,3.96c-0.67,1.38-1.31,2.77-1.92,4.18L0,183.48l96.12,41.05l63.71-149.19l51.69,22.07
			c0,0-5.42,12.6-23.88,23.79l0.72,1.43l-0.81-1.37c-7.73,4.67-17.75,9.09-30.61,12.24l31.24,13.34l1.18-0.48
			c11.11-4.54,21.12-11.05,29.75-19.34c6.85-6.6,12.66-14.19,17.31-22.67c0.71-1.3,1.4-2.62,2.05-3.96
			c0.67-1.37,1.31-2.77,1.92-4.18l4.91-11.47L149.17,43.67z"/>
	</g>
	<g>
		<path style="fill:#FFFFFF;" d="M400.03,78.3L400.03,78.3c-12.86,0-23.38,10.52-23.38,23.38v0c0,12.86,10.52,23.38,23.38,23.38h0
			c12.86,0,23.38-10.52,23.38-23.38v0C423.4,88.82,412.88,78.3,400.03,78.3z"/>
		<g>
			<g>
				<path style="fill:#FFFFFF;" d="M309.8,82.63h-0.09l-13.4-31.3l-13.43,31.3h-0.06l-56.99,133.91h29.82l12.16-29.82h56.22
					l12.16,29.82h30.58L309.8,82.63z M278.27,160.89l17.67-43.12l17.67,43.12H278.27z"/>
			</g>
			<g>
				<path style="fill:#FFFFFF;" d="M400.03,137.65c-5.1,0-9.97-1.03-14.44-2.86v81.75h28.87v-81.75
					C410,136.62,405.13,137.65,400.03,137.65L400.03,137.65z"/>
			</g>
			<g>
				<path style="fill:#FFFFFF;" d="M513.39,119.61c2.22-5.19,4.97-9.98,8.25-14.37c1.97-2.63,4.12-5.12,6.47-7.47
					c0.22-0.22,0.45-0.42,0.67-0.64c-51.8,3.19-58.29,38.11-58.29,38.11v-20.51h-28.87v101.81h28.87v-37.61
					c0-12.28,3.11-21.02,8.26-27.16c7.7-9.19,19.4-14.21,30.26-16.93c0.33-1.99,0.71-3.97,1.21-5.91
					C511.05,125.75,512.1,122.64,513.39,119.61z"/>
			</g>
			<g>
				<path style="fill:#FFFFFF;" d="M677.88,205.76c-1.87-0.03-4.07-0.1-6.42-0.38c-2.35-0.27-4.84-0.71-7.23-1.47
					c-2.39-0.73-4.63-1.84-6.6-3.13c-1.98-1.32-3.73-2.85-5.39-4.75c-1.25-1.42-2.48-3.01-3.69-4.8c0.78-1.03,1.52-2.04,2.16-2.99
					c3.8-5.57,6.71-11.59,8.74-18.04c2.02-6.46,3.04-13.17,3.04-20.13v-0.38c0-9.5-1.74-18.39-5.22-26.69
					c-3.48-8.29-8.36-15.51-14.63-21.65c-6.27-6.14-13.71-11.02-22.32-14.63c-8.61-3.61-18.05-5.41-28.3-5.41s-19.73,1.8-28.4,5.41
					c-6.48,2.7-12.29,6.14-17.43,10.32c-1.74,1.41-3.4,2.91-4.99,4.5c-2.35,2.35-4.51,4.84-6.47,7.47
					c-3.28,4.4-6.03,9.19-8.25,14.37c-1.29,3.03-2.35,6.14-3.17,9.32c-1.43,5.55-2.15,11.33-2.15,17.37v0.38
					c0,9.5,1.74,18.4,5.22,26.69c3.48,8.3,8.36,15.51,14.63,21.65c6.27,6.14,13.71,11.02,22.32,14.63
					c8.61,3.61,18.05,5.41,28.3,5.41c5.55,0,10.86-0.55,15.93-1.63c0.13-0.03,0.26-0.06,0.39-0.09c1.61-0.36,3.21-0.76,4.77-1.22
					c1.97-0.59,3.89-1.27,5.77-2.02c-9.08-8.9-12.98-17.86-14.64-23.89c-1.52,0.53-2.59,0.96-4.41,1.27
					c-2.41,0.4-4.89,0.62-7.43,0.62c-5.95,0-11.37-1.11-16.24-3.32c-4.88-2.22-9.12-5.22-12.73-9.02c-3.61-3.8-6.4-8.23-8.36-13.3
					c-1.96-5.06-2.94-10.45-2.94-16.14v-0.38c0-5.7,0.98-11.05,2.94-16.05c1.96-5,4.68-9.4,8.17-13.2c3.48-3.8,7.66-6.77,12.54-8.93
					c4.87-2.15,10.29-3.23,16.24-3.23c5.82,0,11.21,1.11,16.15,3.32c4.94,2.22,9.21,5.22,12.82,9.02c3.61,3.8,6.39,8.23,8.36,13.3
					c1.96,5.07,2.94,10.45,2.94,16.15v0.38c0,3.4-0.3,6.62-0.9,9.64c-0.03,0.17-0.08,0.34-0.11,0.5c-0.03,0.14-0.06,0.27-0.09,0.41
					c-0.21,0.96-0.49,1.89-0.76,2.81c-2.3-2.1-4.8-4.02-7.53-5.6c-4.58-2.68-9.68-4.36-14.51-4.9c-4.84-0.57-9.34,0-13.1,1.05
					c-3.78,1.11-6.87,2.69-9.34,4.34c-0.24,0.16-0.46,0.33-0.69,0.49c-2.13,1.5-3.81,3.02-5.09,4.39c-2.83,3.04-3.82,5.25-3.82,5.25
					s2.41-0.17,6.15-0.14c3.72,0.05,8.86,0.37,13.68,1.85c2.41,0.72,4.68,1.82,6.68,3.12c2.01,1.31,3.78,2.86,5.47,4.72
					c1.91,2.09,3.77,4.71,5.57,7.69c1.36,2.25,2.69,4.69,4,7.3l1.63,3.05c0.27,0.48,0.43,0.84,0.8,1.43l1.08,1.72
					c1.43,2.38,2.96,4.32,4.57,6.32c0.89,1.08,1.86,2.13,2.87,3.15c0.05,0.05,0.11,0.1,0.16,0.15c2.63,2.63,5.6,5.01,8.83,6.94
					c4.53,2.74,9.66,4.47,14.5,5.04c4.86,0.61,9.39,0.04,13.17-1c0.87-0.25,1.69-0.54,2.49-0.84c2.68-1.01,4.97-2.24,6.88-3.52
					c2.48-1.67,4.36-3.39,5.77-4.93c2.82-3.06,3.79-5.29,3.79-5.29S681.62,205.78,677.88,205.76z"/>
			</g>
		</g>
	</g>
</g>
</svg>
