<?xml version="1.0" encoding="utf-8"?>
<!-- Generator: Adobe Illustrator 18.0.0, SVG Export Plug-In . SVG Version: 6.00 Build 0)  -->
<!DOCTYPE svg PUBLIC "-//W3C//DTD SVG 1.0//EN" "http://www.w3.org/TR/2001/REC-SVG-20010904/DTD/svg10.dtd">
<svg version="1.0" id="Layer_1" xmlns="http://www.w3.org/2000/svg" xmlns:xlink="http://www.w3.org/1999/xlink" x="0px" y="0px"
	 viewBox="0 1024 2048 752.21" style="enable-background:new 0 1024 2048 752.21;" xml:space="preserve">
<g>
	
		<linearGradient id="SVGID_1_" gradientUnits="userSpaceOnUse" x1="604.89" y1="1037.3049" x2="813.79" y2="1037.3049" gradientTransform="matrix(1 0 0 -1 0 2419.375)">
		<stop  offset="0" style="stop-color:#2AC1E5"/>
		<stop  offset="1" style="stop-color:#0581DD"/>
	</linearGradient>
	<path style="fill:url(#SVGID_1_);" d="M604.89,1306.08L604.89,1306.08l190.98,138.71l17.92,13.04c-0.05,0.07-0.09,0.15-0.14,0.22
		c0.05-0.07,0.09-0.15,0.14-0.22l-17.92-13.04L604.89,1306.08z"/>
	
		<linearGradient id="SVGID_2_" gradientUnits="userSpaceOnUse" x1="527.93" y1="1020.535" x2="604.83" y2="1020.535" gradientTransform="matrix(1 0 0 -1 0 2419.375)">
		<stop  offset="0" style="stop-color:#2AC1E5"/>
		<stop  offset="1" style="stop-color:#0581DD"/>
	</linearGradient>
	<path style="fill:url(#SVGID_2_);" d="M527.93,1491.52c12.7-65.94,39.04-129.44,76.9-185.35
		C566.97,1362.03,540.63,1425.53,527.93,1491.52z"/>
	<polygon style="fill:none;" points="538.36,1724.67 538.36,1724.67 538.6,1724.59 	"/>
	<path style="fill:none;" d="M783.06,1531.92c0-0.02,0.01-0.03,0.01-0.05C783.06,1531.89,783.06,1531.9,783.06,1531.92
		L783.06,1531.92z"/>
	<path style="fill:none;" d="M847.72,1116.48c3.27-1.2,6.56-2.35,9.85-3.48C854.27,1114.14,850.99,1115.28,847.72,1116.48z"/>
	
		<linearGradient id="SVGID_3_" gradientUnits="userSpaceOnUse" x1="624.48" y1="1064.335" x2="894.36" y2="1064.335" gradientTransform="matrix(1 0 0 -1 0 2419.375)">
		<stop  offset="0" style="stop-color:#2AC1E5"/>
		<stop  offset="1" style="stop-color:#0581DD"/>
	</linearGradient>
	<path style="fill:url(#SVGID_3_);" d="M833.38,1430.88l-208.87-151.73c-0.01,0.01-0.02,0.02-0.03,0.04l208.9,151.75
		c17.26-20.59,37.95-38.23,60.98-52.05l-0.02-0.04C871.32,1392.71,850.63,1410.35,833.38,1430.88z"/>
	
		<linearGradient id="SVGID_4_" gradientUnits="userSpaceOnUse" x1="518.94" y1="763.995" x2="538.35" y2="763.995" gradientTransform="matrix(1 0 0 -1 0 2419.375)">
		<stop  offset="0" style="stop-color:#2AC1E5"/>
		<stop  offset="1" style="stop-color:#0581DD"/>
	</linearGradient>
	<path style="fill:url(#SVGID_4_);" d="M538.35,1724.63c-12.86-44.82-19.41-91.35-19.41-138.49
		C518.95,1633.28,525.43,1679.81,538.35,1724.63z"/>
	
		<linearGradient id="SVGID_5_" gradientUnits="userSpaceOnUse" x1="519.4832" y1="864.1" x2="520.4403" y2="864.1" gradientTransform="matrix(1 0 0 -1 0 2419.375)">
		<stop  offset="0" style="stop-color:#2AC1E5"/>
		<stop  offset="1" style="stop-color:#0581DD"/>
	</linearGradient>
	<path style="fill:url(#SVGID_5_);" d="M519.48,1562.99c0.24-5.15,0.56-10.29,0.96-15.44
		C520.04,1552.69,519.72,1557.84,519.48,1562.99z"/>
	<path style="fill:none;" d="M1412.81,1279.16l0.06-0.05c-41.5-53.1-93.77-97.77-152.64-130.39l-0.03,0.07
		C1319.05,1181.36,1371.37,1226.03,1412.81,1279.16z"/>
	<polygon style="fill:none;" points="1183.42,1419.98 1188.11,1413.91 1188.1,1413.9 	"/>
	<path style="fill:none;" d="M871.6,1108.42c3.56-1.1,7.13-2.15,10.72-3.17C878.74,1106.28,875.16,1107.32,871.6,1108.42z"/>
	
		<linearGradient id="SVGID_6_" gradientUnits="userSpaceOnUse" x1="518.9448" y1="840.955" x2="519.184" y2="840.955" gradientTransform="matrix(1 0 0 -1 0 2419.375)">
		<stop  offset="0" style="stop-color:#2AC1E5"/>
		<stop  offset="1" style="stop-color:#0581DD"/>
	</linearGradient>
	<path style="fill:url(#SVGID_6_);" d="M518.94,1586.13L518.94,1586.13c0-5.13,0.08-10.27,0.24-15.41
		C519.02,1575.85,518.94,1580.99,518.94,1586.13z"/>
	<path style="fill:none;" d="M884.98,1104.51c3.6-1,7.22-1.97,10.84-2.89C892.19,1102.53,888.58,1103.51,884.98,1104.51z"/>
	<path style="fill:none;" d="M1509.36,1491.57c0-0.02-0.01-0.04-0.01-0.05l-255.11,40.39c-5.99-26.12-16.47-51.24-30.72-74.03
		l-0.02,0.02c14.26,22.8,24.75,47.94,30.74,74.07L1509.36,1491.57z"/>
	<path style="fill:none;" d="M982.91,1087.67c4.23-0.3,8.47-0.54,12.71-0.73C991.37,1087.14,987.13,1087.39,982.91,1087.67z"/>
	<path style="fill:none;" d="M1230.55,1133.58c-61.59-28.96-127.12-44.67-195.25-46.89v0.11c68.12,2.16,133.63,17.91,195.21,46.86
		L1230.55,1133.58z"/>
	<path style="fill:none;" d="M1253.24,1644.78c4.77-19.09,7.16-38.78,7.16-58.7c0-7.03-0.33-14.12-0.94-21.2l-0.06,0.01
		c0.61,7.05,0.94,14.2,0.94,21.25c0,19.92-2.39,39.62-7.16,58.7l245.69,79.9c0.01-0.04,0.02-0.08,0.03-0.12L1253.24,1644.78z"/>
	<path style="fill:none;" d="M914.18,1097.33c5.78-1.23,11.59-2.35,17.42-3.38C925.77,1094.98,919.96,1096.1,914.18,1097.33z"/>
	<path style="fill:none;" d="M938.93,1092.72c4.15-0.66,8.31-1.28,12.48-1.83C947.24,1091.44,943.08,1092.05,938.93,1092.72z"/>
	<path style="fill:none;" d="M901.92,1100.11c4.07-0.98,8.16-1.9,12.26-2.78C910.08,1098.2,905.99,1099.14,901.92,1100.11z"/>
	<path style="fill:#FFFFFF;" d="M1219.17,1155.94l11.33-22.27c-61.58-28.95-127.09-44.7-195.21-46.86v258.12
		c27.02,1.83,53.16,8.1,78.01,18.75L1219.17,1155.94z"/>
	<path style="fill:#FFFFFF;" d="M982.91,1087.67c-10.57,0.74-21.07,1.81-31.5,3.21c-4.17,0.56-8.33,1.17-12.48,1.83
		c-2.45,0.39-4.89,0.81-7.33,1.24c-5.83,1.02-11.64,2.15-17.42,3.38c-4.1,0.87-8.19,1.8-12.26,2.78c-2.04,0.49-4.07,0.99-6.1,1.51
		c-3.62,0.92-7.24,1.89-10.84,2.89c-0.89,0.25-1.77,0.5-2.66,0.75c-3.58,1.02-7.15,2.07-10.72,3.17c-2,0.62-4.01,1.25-6,1.9
		c-2.69,0.87-5.36,1.77-8.04,2.68c-3.29,1.13-6.58,2.28-9.85,3.48c-13.84,5.06-27.5,10.77-40.97,17.1l117.24,230.1
		c1.55-0.67,3.11-1.31,4.68-1.95c23.45-9.47,48-15.09,73.34-16.81v-258.24c-2.13,0.07-4.26,0.15-6.38,0.25
		C991.37,1087.14,987.13,1087.39,982.91,1087.67z"/>
	
		<linearGradient id="SVGID_7_" gradientUnits="userSpaceOnUse" x1="518.94" y1="794.8151" x2="784.05" y2="794.8151" gradientTransform="matrix(1 0 0 -1 0 2419.375)">
		<stop  offset="0" style="stop-color:#2AC1E5"/>
		<stop  offset="1" style="stop-color:#0581DD"/>
	</linearGradient>
	<path style="fill:url(#SVGID_7_);" d="M784.05,1644.82c-4.77-19.14-7.16-38.78-7.16-58.7c0-7.05,0.33-14.15,0.94-21.25
		l-240.86-38.17l-14.2-2.27c-0.96,7.7-1.73,15.41-2.33,23.13c-0.4,5.15-0.72,10.29-0.96,15.44c-0.12,2.57-0.22,5.15-0.3,7.72
		c-0.16,5.14-0.24,10.28-0.24,15.41c0,0,0,0,0,0.01c0,47.14,6.54,93.68,19.41,138.49c0,0.02,0.01,0.03,0.01,0.05l0.23-0.08
		L784.05,1644.82z"/>
	
		<linearGradient id="SVGID_8_" gradientUnits="userSpaceOnUse" x1="1142.9901" y1="1129.54" x2="1412.8101" y2="1129.54" gradientTransform="matrix(1 0 0 -1 0 2419.375)">
		<stop  offset="0" style="stop-color:#2AC1E5"/>
		<stop  offset="1" style="stop-color:#0581DD"/>
	</linearGradient>
	<path style="fill:url(#SVGID_8_);" d="M1284.2,1289.21l-96.1,124.68c0,0,0,0,0.01,0.01l0.05-0.06c5.55,5.44,10.82,11.1,15.81,17.03
		l208.84-151.71c-41.44-53.14-93.75-97.8-152.61-130.37l-117.21,230.03c4.33,2.61,8.54,5.38,12.71,8.27l-0.06,0.05l0,0l0.06-0.05
		L1284.2,1289.21z"/>
	
		<linearGradient id="SVGID_9_" gradientUnits="userSpaceOnUse" x1="527.94" y1="1000.38" x2="813.8" y2="1000.38" gradientTransform="matrix(1 0 0 -1 0 2419.375)">
		<stop  offset="0" style="stop-color:#2AC1E5"/>
		<stop  offset="1" style="stop-color:#0581DD"/>
	</linearGradient>
	<path style="fill:url(#SVGID_9_);" d="M795.87,1444.81l-190.98-138.72c-0.02,0.03-0.04,0.05-0.05,0.08
		c-37.87,55.91-64.2,119.41-76.9,185.35l255.12,40.39c0-0.02,0.01-0.03,0.01-0.05c5.97-26.03,16.41-51.07,30.59-73.81
		c0.05-0.07,0.09-0.15,0.14-0.22L795.87,1444.81z"/>
	
		<linearGradient id="SVGID_10_" gradientUnits="userSpaceOnUse" x1="624.51" y1="1129.545" x2="894.34" y2="1129.545" gradientTransform="matrix(1 0 0 -1 0 2419.375)">
		<stop  offset="0" style="stop-color:#2AC1E5"/>
		<stop  offset="1" style="stop-color:#0581DD"/>
	</linearGradient>
	<path style="fill:url(#SVGID_10_);" d="M894.34,1378.84l-117.22-230.06c-58.86,32.56-111.17,77.27-152.61,130.36l208.87,151.73
		C850.63,1410.35,871.32,1392.71,894.34,1378.84z"/>
	<path style="fill:#FFFFFF;" d="M1253.24,1644.78l245.67,79.84c12.85-44.8,19.39-91.31,19.39-138.43c0-20.53-1.28-41.17-3.83-61.7
		l-39.28,6.21l-215.72,34.17c0.61,7.09,0.94,14.17,0.94,21.2C1260.4,1605.98,1258.01,1625.69,1253.24,1644.78z"/>
	
		<linearGradient id="SVGID_11_" gradientUnits="userSpaceOnUse" x1="518.94" y1="1013.665" x2="1518.2902" y2="1013.665" gradientTransform="matrix(1 0 0 -1 0 2419.375)">
		<stop  offset="0" style="stop-color:#2AC1E5"/>
		<stop  offset="1" style="stop-color:#0581DD"/>
	</linearGradient>
	<path style="fill:url(#SVGID_11_);" d="M538.36,1724.67c0-0.02-0.01-0.03-0.01-0.05c-12.92-44.82-19.41-91.35-19.41-138.49
		c0,0,0,0,0-0.01l0,0c0-5.13,0.08-10.27,0.24-15.41c0.08-2.57,0.18-5.14,0.3-7.72c0.24-5.15,0.56-10.29,0.96-15.44
		c0.6-7.72,1.38-15.43,2.33-23.13l14.2,2.27l240.86,38.17c-0.61,7.1-0.94,14.2-0.94,21.25c0,19.92,2.39,39.56,7.16,58.7
		l-245.46,79.77L538.36,1724.67L538.36,1724.67z M813.66,1458.06c-14.18,22.73-24.62,47.77-30.59,73.81c0,0.02-0.01,0.03-0.01,0.05
		l0,0l-255.12-40.39c12.7-66,39.04-129.5,76.9-185.35c0.02-0.03,0.04-0.05,0.05-0.08l0,0l190.98,138.71l17.92,13.04
		C813.75,1457.92,813.7,1457.98,813.66,1458.06z M833.38,1430.93l-208.9-151.75c0.01-0.01,0.02-0.02,0.03-0.04
		c41.44-53.08,93.76-97.79,152.61-130.36l117.22,230.06l0.02,0.04C871.33,1392.7,850.64,1410.34,833.38,1430.93z M1002,1344.92
		c-25.33,1.72-49.88,7.33-73.34,16.81c-1.56,0.63-3.12,1.28-4.68,1.95l-117.24-230.1c13.47-6.34,27.13-12.04,40.97-17.1
		c3.27-1.2,6.56-2.35,9.85-3.48c2.67-0.91,5.35-1.82,8.04-2.68c2-0.65,4-1.28,6-1.9c3.56-1.1,7.13-2.15,10.72-3.17
		c0.88-0.25,1.77-0.5,2.66-0.75c3.6-1,7.22-1.97,10.84-2.89c2.03-0.52,4.07-1.02,6.1-1.51c4.07-0.98,8.16-1.9,12.26-2.78
		c5.78-1.23,11.59-2.35,17.42-3.38c2.44-0.43,4.88-0.84,7.33-1.24c4.15-0.66,8.31-1.28,12.48-1.83c10.43-1.4,20.93-2.47,31.5-3.21
		c4.23-0.3,8.47-0.54,12.71-0.73c2.12-0.1,4.25-0.18,6.38-0.25V1344.92z M1035.29,1086.8v-0.11
		c68.14,2.22,133.66,17.92,195.25,46.89l-0.05,0.09l-11.33,22.27l-105.86,207.74c-24.86-10.65-50.99-16.92-78.01-18.75V1086.8z
		 M1223.5,1457.9l0.02-0.02c-0.01-0.01-0.02-0.03-0.02-0.04l208.9-151.75c37.9,55.87,64.25,119.4,76.96,185.43h-0.01
		c0,0.02,0.01,0.04,0.01,0.05l-255.12,40.39C1248.25,1505.83,1237.76,1480.7,1223.5,1457.9z M1253.18,1644.82
		c4.77-19.09,7.16-38.78,7.16-58.7c0-7.05-0.33-14.2-0.94-21.25l0.06-0.01l215.72-34.17l39.28-6.21c2.55,20.53,3.83,41.17,3.83,61.7
		c0,47.12-6.54,93.63-19.39,138.43c-0.01,0.04-0.02,0.08-0.03,0.12L1253.18,1644.82z"/>
	<path style="fill:#07061C;" d="M1188.1,1413.9l96.1-124.68l-128.5,97.88l-0.06,0.05l-28.07,21.37l-75.9,57.82
		c-35.23-14.15-77.07-7.05-105.7,21.47c-38.4,38.17-38.56,100.32-0.39,138.71c38.17,38.4,100.32,38.56,138.71,0.39
		c28.85-28.69,36.12-70.91,21.75-106.42l61.59-79.95l0.02-0.03l15.77-20.51L1188.1,1413.9z M1014.76,1612.31
		c-30.4,0-55.04-24.64-55.04-55.04s24.64-55.04,55.04-55.04c30.4,0,55.04,24.64,55.04,55.04
		C1069.8,1587.67,1045.16,1612.31,1014.76,1612.31z"/>
	<circle style="fill:#FFFFFF;" cx="1014.76" cy="1557.28" r="55.04"/>
</g>
</svg>
