<?xml version="1.0" encoding="utf-8"?>
<!-- Generator: Adobe Illustrator 18.0.0, SVG Export Plug-In . SVG Version: 6.00 Build 0)  -->
<!DOCTYPE svg PUBLIC "-//W3C//DTD SVG 1.0//EN" "http://www.w3.org/TR/2001/REC-SVG-20010904/DTD/svg10.dtd">
<svg version="1.0" id="Layer_1" xmlns="http://www.w3.org/2000/svg" xmlns:xlink="http://www.w3.org/1999/xlink" x="0px" y="0px"
	 viewBox="0 1040 2048 724" style="enable-background:new 0 1040 2048 724;" xml:space="preserve">
<g>
	
		<linearGradient id="SVGID_1_" gradientUnits="userSpaceOnUse" x1="1330.6864" y1="756.6495" x2="1481.5236" y2="756.6495" gradientTransform="matrix(1 0 0 -1 0 2419.375)">
		<stop  offset="0" style="stop-color:#2AC1E5"/>
		<stop  offset="1" style="stop-color:#0581DD"/>
	</linearGradient>
	<polygon style="fill:url(#SVGID_1_);" points="1330.69,1744 1481.52,1744 1481.52,1611.63 1330.69,1581.45 	"/>
	
		<linearGradient id="SVGID_2_" gradientUnits="userSpaceOnUse" x1="1139.6602" y1="898.045" x2="1290.5078" y2="898.045" gradientTransform="matrix(1 0 0 -1 0 2419.375)">
		<stop  offset="0" style="stop-color:#2AC1E5"/>
		<stop  offset="1" style="stop-color:#0581DD"/>
	</linearGradient>
	<polygon style="fill:url(#SVGID_2_);" points="1139.66,1744 1290.51,1744 1290.51,1328.83 1139.66,1298.66 	"/>
	
		<linearGradient id="SVGID_3_" gradientUnits="userSpaceOnUse" x1="948.5814" y1="965.17" x2="1099.4187" y2="965.17" gradientTransform="matrix(1 0 0 -1 0 2419.375)">
		<stop  offset="0" style="stop-color:#2AC1E5"/>
		<stop  offset="1" style="stop-color:#0581DD"/>
	</linearGradient>
	<polygon style="fill:url(#SVGID_3_);" points="948.58,1744 1099.42,1744 1099.42,1194.58 948.58,1164.41 	"/>
	
		<linearGradient id="SVGID_4_" gradientUnits="userSpaceOnUse" x1="757.4922" y1="817.3472" x2="908.3399" y2="817.3472" gradientTransform="matrix(1 0 0 -1 0 2419.375)">
		<stop  offset="0" style="stop-color:#2AC1E5"/>
		<stop  offset="1" style="stop-color:#0581DD"/>
	</linearGradient>
	<polygon style="fill:url(#SVGID_4_);" points="757.49,1744 908.34,1744 908.34,1490.23 757.49,1460.06 	"/>
	
		<linearGradient id="SVGID_5_" gradientUnits="userSpaceOnUse" x1="566.4764" y1="732.8748" x2="717.3137" y2="732.8748" gradientTransform="matrix(1 0 0 -1 0 2419.375)">
		<stop  offset="0" style="stop-color:#2AC1E5"/>
		<stop  offset="1" style="stop-color:#0581DD"/>
	</linearGradient>
	<polygon style="fill:url(#SVGID_5_);" points="566.48,1744 717.31,1744 717.31,1659.17 566.48,1629 	"/>
	<polygon style="fill:#07061C;" points="566.48,1615.36 566.48,1622.85 566.48,1629 717.31,1659.17 717.31,1653.01 717.31,1615.36 
		717.31,1557.99 566.48,1557.99 	"/>
	<polygon style="fill:#07061C;" points="757.49,1416.79 757.49,1453.9 757.49,1460.06 908.34,1490.23 908.34,1484.08 
		908.34,1416.79 908.34,1389.04 757.49,1389.04 	"/>
	<polygon style="fill:#07061C;" points="948.58,1114.33 948.58,1158.26 948.58,1164.41 1099.42,1194.58 1099.42,1188.42 
		1099.42,1114.33 1099.42,1093.4 948.58,1093.4 	"/>
	<polygon style="fill:#07061C;" points="1139.66,1246.11 1139.66,1246.11 1139.66,1298.66 1290.51,1328.83 1290.51,1322.67 
		1290.51,1246.11 1290.51,1227.65 1139.66,1227.65 	"/>
	<polygon style="fill:#07061C;" points="1330.69,1510.5 1330.69,1527.21 1330.69,1575.36 1330.69,1581.45 1481.52,1611.63 
		1481.52,1605.52 1481.52,1527.21 1481.52,1510.5 	"/>
</g>
</svg>
