<?xml version="1.0" encoding="utf-8"?>
<!-- Generator: Adobe Illustrator 18.0.0, SVG Export Plug-In . SVG Version: 6.00 Build 0)  -->
<!DOCTYPE svg PUBLIC "-//W3C//DTD SVG 1.0//EN" "http://www.w3.org/TR/2001/REC-SVG-20010904/DTD/svg10.dtd">
<svg version="1.0" id="Layer_1" xmlns="http://www.w3.org/2000/svg" xmlns:xlink="http://www.w3.org/1999/xlink" x="0px" y="0px"
	 viewBox="0 956 2048 812" style="enable-background:new 0 956 2048 812;" xml:space="preserve">
<g>
	
		<linearGradient id="SVGID_1_" gradientUnits="userSpaceOnUse" x1="631.99" y1="931.0599" x2="1335.59" y2="931.0599" gradientTransform="matrix(1 0 0 -1 0 2419.375)">
		<stop  offset="0" style="stop-color:#2AC1E5"/>
		<stop  offset="1" style="stop-color:#0581DD"/>
	</linearGradient>
	<path style="fill:url(#SVGID_1_);" d="M717.77,1268.86l-42.89,88.81l-42.89,88.81h53.13c17.13,59.57,49.07,112.96,91.77,155.6
		c65.37,65.37,155.6,105.68,255.23,105.68s189.86-40.38,255.23-105.68c18.1-18.1,34.26-38.19,48.24-59.83h-91.97
		c-2.64,2.83-5.28,5.54-7.92,8.24c-52.17,52.17-124.1,84.37-203.64,84.37c-79.47,0-151.54-32.2-203.64-84.37
		c-29.17-29.17-52.17-64.53-66.66-104.01h41.8l-42.89-88.81L717.77,1268.86z"/>
	
		<linearGradient id="SVGID_2_" gradientUnits="userSpaceOnUse" x1="715.1201" y1="1190.955" x2="1441.7201" y2="1190.955" gradientTransform="matrix(1 0 0 -1 0 2419.375)">
		<stop  offset="0" style="stop-color:#2AC1E5"/>
		<stop  offset="1" style="stop-color:#0581DD"/>
	</linearGradient>
	<path style="fill:url(#SVGID_2_);" d="M1353.55,1470.77l-44.05-88.81l-44.12-88.81h49.65c-11.01-58.03-39.22-109.81-79.34-149.86
		c-52.17-52.17-124.1-84.37-203.64-84.37c-79.47,0-151.54,32.2-203.64,84.37c-9.66,9.66-18.68,19.96-26.86,30.98h-86.43
		c16.62-30.4,37.42-58.16,61.83-82.44c65.3-65.37,155.6-105.75,255.23-105.75s189.86,40.38,255.23,105.75
		c53.39,53.39,90.03,123.27,101.69,201.45h52.62l-44.05,88.81L1353.55,1470.77z"/>
	<g>
		<path style="fill:#07061C;" d="M1030.5,1154.94c-85.78,0-155.4,69.55-155.4,155.4c0,14.94,2,29.63,6.12,43.99
			c9.72,33.62,30.4,63.11,52.04,90.1c29.11,36.32,60.99,70.78,90.74,106.71c4.32,5.22,8.57,5.22,12.88,0
			c29.75-35.94,61.7-70.46,90.74-106.71c21.64-27.05,42.31-56.48,52.04-90.1c4.12-14.36,6.12-29.05,6.12-43.99
			C1185.84,1224.48,1116.22,1154.94,1030.5,1154.94"/>
		<circle style="fill:#FFFFFF;" cx="1031.15" cy="1311.18" r="62.34"/>
	</g>
</g>
</svg>
