<?xml version="1.0" encoding="utf-8"?>
<!-- Generator: Adobe Illustrator 18.0.0, SVG Export Plug-In . SVG Version: 6.00 Build 0)  -->
<!DOCTYPE svg PUBLIC "-//W3C//DTD SVG 1.0//EN" "http://www.w3.org/TR/2001/REC-SVG-20010904/DTD/svg10.dtd">
<svg version="1.0" id="Layer_1" xmlns="http://www.w3.org/2000/svg" xmlns:xlink="http://www.w3.org/1999/xlink" x="0px" y="0px"
	 viewBox="80 352 2140 1288" style="enable-background:new 80 352 2140 1288;" xml:space="preserve">
<path style="fill:#26A7DF;" d="M2029.01,1261.46c-0.04,0.02-0.07,0.04-0.09,0.06l0.88,1.48L2029.01,1261.46z"/>
<g>
	<path style="fill:#26A7DF;" d="M310.42,1326.43l-47.85-20.45l20.17-47.24l1.13,0.77c10.97,7.5,24.56,27.52,29.88,40.8
		c0.36,0.86,0.68,1.74,0.99,2.65l2.59,7.3l13.3-31.14l-0.41-1.13c-3.26-8.82-13.24-21.87-17.9-26.69
		c-8.7-9.02-19.04-16.13-30.71-21.12l-11.54-4.93l-39.53,92.58l70.68,30.18L310.42,1326.43z"/>
	<path style="fill:#26A7DF;" d="M338.53,1392.89l47.85,20.45l-20.17,47.24l-1.13-0.77c-10.97-7.5-24.57-27.52-29.88-40.78
		c-0.36-0.86-0.68-1.74-0.99-2.63l-2.59-7.32l-13.3,31.16l0.41,1.13c3.26,8.82,13.24,21.87,17.9,26.69
		c8.7,9.02,19.04,16.13,30.71,21.12l11.54,4.93l39.53-92.58l-70.68-30.18L338.53,1392.89z"/>
	<path style="fill:#0F0B2C;" d="M350.85,1268.67l-63.39,148.44l-51.42-21.95c0,0,4.2-10.84,24.07-23.07l-1.01-2.03l1.14,1.93
		c7.24-4.45,16.56-9.08,28.51-13.43l-29.47-12.59l-1.16,0.49c-11.05,4.52-21.01,10.99-29.6,19.25
		c-6.83,6.57-12.59,14.13-17.11,22.36l-0.11,0.21c-0.71,1.29-1.39,2.61-2.04,3.94c-0.68,1.37-1.31,2.76-1.91,4.16l-4.9,11.41
		l95.63,40.84l63.39-148.44l51.42,21.95c0,0-5.4,12.53-23.77,23.67l0.71,1.43l-0.81-1.37c-7.69,4.65-17.67,9.04-30.46,12.17
		l31.08,13.26l1.16-0.49c11.05-4.52,21.01-10.99,29.6-19.25c6.83-6.57,12.59-14.13,17.22-22.57c0.71-1.29,1.39-2.61,2.04-3.94
		c0.68-1.37,1.31-2.76,1.91-4.16l4.9-11.41L350.85,1268.67z"/>
</g>
<rect x="1057.24" y="695.69" style="fill:#26A7DF;" width="214.66" height="30.45"/>
<g>
	<path style="fill:#0F0B2C;" d="M1067.62,1342.5h-30.46v150.39h34.16v-146.68C1071.33,1344.17,1069.66,1342.5,1067.62,1342.5z"/>
	<path style="fill:#0F0B2C;" d="M1288.28,1342.5h-30.45v150.39h30.45c2.06,0,3.71-1.65,3.71-3.7v-142.98
		C1291.97,1344.17,1290.34,1342.5,1288.28,1342.5z"/>
	<path style="fill:#26A7DF;" d="M1121.02,1298.14h-34.18v194.72h34.18V1298.14z"/>
	<path style="fill:#26A7DF;" d="M1233.58,1298.14h-34.18v194.72h34.18V1298.14z"/>
	<path style="fill:#0F0B2C;" d="M1173,1325.15h-30.48v167.69H1173c2.06,0,3.71-1.65,3.71-3.7v-160.31
		C1176.7,1326.82,1175.07,1325.15,1173,1325.15z"/>
	<path style="fill:#0F0B2C;" d="M1274.88,1272.18c-2.96,0-5.83,0.83-8.37,2.38l-29.98-20.32c0.15-0.79,0.26-1.71,0.26-2.68
		c0-8.89-7.24-16.13-16.13-16.13c-8.05,0-14.8,5.98-15.93,13.84l-35.75,10.45c-3.06-3.55-7.52-5.63-12.19-5.63
		c-3.38,0-6.57,1.05-9.32,3.02l-27.41-15.89c-0.26-8.69-7.39-15.66-16.13-15.66c-8.89,0-16.13,7.24-16.13,16.13
		c0,1.78,0.32,3.56,0.94,5.33l-26.47,19.06c-2.42-1.41-5.18-2.16-8.03-2.16c-8.89,0-16.13,7.24-16.13,16.13
		c0,8.89,7.24,16.13,16.13,16.13s16.13-7.24,16.13-16.13c0-1.01-0.11-2.03-0.36-3.13l28.1-20.22c1.89,0.75,3.85,1.13,5.82,1.13
		c4.05,0,7.86-1.5,10.84-4.24l25.96,15.03c-0.06,0.54-0.09,1.09-0.09,1.59c0,8.89,7.24,16.13,16.13,16.13
		c8.05,0,14.8-5.98,15.91-13.84l35.77-10.47c3.06,3.55,7.52,5.63,12.19,5.63c2.96,0,5.83-0.83,8.37-2.4l30,20.35
		c-0.15,0.83-0.28,1.74-0.28,2.68c0,8.91,7.24,16.15,16.13,16.15c8.91,0,16.17-7.24,16.17-16.15
		C1291.05,1279.42,1283.8,1272.18,1274.88,1272.18z"/>
</g>
<g>
	<path style="fill:#26A7DF;" d="M1895.77,663.39v25.17c0,19.72,47.67,35.7,102.39,35.7c54.72,0,102.39-16,102.39-35.7v-25.17
		c-24.69,17.75-71.6,23.09-102.39,23.09C1967.51,686.5,1920.53,681.19,1895.77,663.39z"/>
	<path style="fill:#0F0B2C;" d="M1998.16,549.95c54.72,0,102.39-16,102.39-35.7c0-19.72-47.67-35.72-102.39-35.72
		c-54.72,0-102.39,16-102.39,35.72C1895.77,533.97,1943.46,549.95,1998.16,549.95z"/>
	<path style="fill:#26A7DF;" d="M1895.77,547.33v24.99c0,19.72,47.67,35.7,102.39,35.7c54.72,0,102.39-16,102.39-35.7v-24.99
		c-24.76,17.8-71.72,23.09-102.39,23.09C1967.39,570.44,1920.48,565.07,1895.77,547.33z"/>
	<path style="fill:#0F0B2C;" d="M1895.77,605.39v24.91c0,19.72,47.67,35.7,102.39,35.7c54.72,0,102.39-16,102.39-35.7v-24.91
		c-24.76,17.8-71.72,23.09-102.39,23.09C1967.39,628.5,1920.48,623.13,1895.77,605.39z"/>
</g>
<g>
	<path style="fill:#0F0B2C;" d="M1984.62,1248.93c13.47-0.19,25.94,1.74,37.71,7.17c11.76,5.42,20.33,13.84,24.35,26.45
		c0.43,1.37,1.5,2.59,2.49,3.71c9.15,10.35,16.3,21.8,19.94,35.3c2.68,9.92,0.41,19.38-1.74,28.96c-2.12,9.4-5.57,17.8-13,24.54
		c-5.72,5.18-6.12,12.68-2.18,19.19c2.53,4.2,2.95,8.4,0.84,12.96c-6.23,13.54-12.27,27.18-18.48,40.74
		c-2.44,5.35-6.58,8.55-12.51,9.51c-1.44,0.24-2.91,1.29-4.05,2.31c-9.72,8.76-20.79,14.11-34.16,13.68
		c-12.4-0.39-22.64-5.68-31.65-13.86c-1.13-1.01-2.65-1.93-4.11-2.18c-5.5-0.96-9.55-3.86-11.84-8.82
		c-6.47-13.96-12.81-27.97-19.13-41.98c-1.86-4.13-1.41-8.16,0.94-12.02c3.96-6.55,4.05-14.09-1.52-18.95
		c-9.77-8.52-12.19-19.94-14.95-31.55c-4.78-20.15,3.17-36.52,14.82-51.85c3.73-4.9,7.33-9.62,9.9-15.44
		c5.89-13.34,17.56-20.09,30.97-24.18C1966.36,1249.87,1975.71,1248.71,1984.62,1248.93z M1948.75,1310.13c0-0.02,0-0.02,0-0.04
		c-5.01,0-10.04-0.04-15.04,0c-10.04,0.11-17.61,7.24-17.99,17.18c-0.23,6.06-0.23,12.14,0.02,18.2c0.39,9.55,7.5,17.56,16.49,18.46
		c7.94,0.81,15.65-0.51,22.6-4.58c12.51-7.32,18.46-19.38,22.42-32.55c2.61-8.67-3.7-16.55-12.74-16.68
		C1959.25,1310.07,1954,1310.13,1948.75,1310.13z M2021.87,1310.09c0,0.02,0,0.02,0,0.04c-5.37,0-10.73-0.08-16.1,0.02
		c-8.84,0.17-15.01,8.07-12.59,16.53c1.29,4.56,3.13,9.02,5.25,13.26c6.53,12.96,15.98,22.04,31.27,23.96
		c14.01,1.74,24.39-5.61,24.91-18.61c0.24-5.95,0.28-11.91,0.06-17.84c-0.38-10.26-7.8-17.28-18.12-17.35
		C2031.66,1310.05,2026.77,1310.09,2021.87,1310.09z M1985.14,1453.91c19.58,0.04,35.47-15.7,35.55-35.21
		c0.07-19.36-15.89-35.4-35.36-35.55c-19.34-0.15-35.44,15.89-35.45,35.34C1949.86,1438.16,1965.5,1453.86,1985.14,1453.91z"/>
	<path style="fill:#0F0B2C;" d="M1892.9,1492.61c-9.15-0.34-15.36-3.9-18.67-11.26c-6.98-15.51-13.73-31.1-20.26-46.82
		c-3.88-9.36,0.21-19.88,9.36-24.33c8.07-3.9,16.34-7.41,24.65-10.77c5.68-2.31,11.31,0.19,13.84,6
		c8.91,20.39,17.73,40.8,26.47,61.27c2.51,5.89,0.19,11.72-5.57,14.31c-7.86,3.53-15.78,6.92-23.77,10.19
		C1896.75,1492.11,1894.25,1492.31,1892.9,1492.61z"/>
	<path style="fill:#0F0B2C;" d="M2076.97,1492.61c-1.43-0.39-4.2-0.84-6.73-1.89c-7.32-3.02-14.56-6.23-21.8-9.42
		c-6.66-2.95-8.91-8.44-6.02-15.16c8.59-20.02,17.2-40.01,25.91-59.97c3.08-7.05,8.57-9.14,15.72-6.1
		c7.18,3.06,14.35,6.15,21.48,9.3c10.66,4.71,15.08,15.8,10.52,26.47c-6.27,14.67-12.64,29.3-18.97,43.93
		C2093.51,1487.96,2087.36,1492.31,2076.97,1492.61z"/>
	<path style="fill:#26A7DF;" d="M2010.3,1418.63c0.02,13.92-11.18,25.16-25.1,25.21c-13.75,0.04-25.16-11.42-25.14-25.27
		c0.02-13.86,11.29-25.1,25.21-25.12C1999.21,1393.43,2010.3,1404.58,2010.3,1418.63z"/>
</g>
<g>
	<g>
		<path style="fill:#26A7DF;" d="M339.8,550.97c-30.64,0-55.58,24.93-55.58,55.58s24.93,55.58,55.58,55.58s55.58-24.93,55.58-55.58
			S370.45,550.97,339.8,550.97z"/>
	</g>
	<path style="fill:#0F0B2C;" d="M442.49,611.95c0,0-0.02-0.02-0.02-0.02c0.53-10.04-0.45-20.05-2.89-29.86c0-0.02,0-0.02,0.02-0.02
		l21.33-13.81l-21.55-40.54L416,537.67c-0.02,0-0.02,0-0.02,0c-6.77-7.5-14.54-13.92-23.15-19.1l-0.02-0.02l5.31-24.86l-43.93-13.43
		l-9.49,23.56c0,0.02-0.02,0.02-0.02,0.02c-10.07-0.51-20.11,0.47-29.86,2.89c-0.02,0-0.02,0-0.02-0.02l-13.81-21.33l-40.54,21.55
		l9.96,23.37c0,0.02,0,0.02,0,0.02c-7.5,6.77-13.9,14.54-19.1,23.13l-0.02,0.02l-24.86-5.31l-13.43,43.93l23.56,9.49
		c0.02,0,0.02,0.02,0.02,0.02c-0.51,10.04,0.45,20.05,2.89,29.86c0,0.02,0,0.02-0.02,0.02l-21.33,13.83l21.55,40.54l23.37-9.96
		c0.02,0,0.02,0,0.04,0c6.75,7.48,14.52,13.9,23.15,19.1l0.02,0.02l-5.31,24.86l43.93,13.43l9.49-23.56c0-0.02,0.02-0.02,0.02-0.02
		c10.05,0.53,20.07-0.47,29.86-2.89c0.02,0,0.02,0,0.02,0.02l13.81,21.33l40.54-21.55l-9.96-23.37c0-0.02,0-0.02,0-0.04
		c7.48-6.77,13.9-14.52,19.08-23.13l0.02-0.02l24.86,5.31l13.43-43.93L442.49,611.95z M403.23,626.26
		c-8.63,28.21-34.22,47.16-63.69,47.16c-6.58,0-13.15-0.99-19.49-2.93c-35.14-10.75-54.98-48.06-44.23-83.2
		c8.63-28.21,34.22-47.16,63.69-47.16c6.58,0,13.15,0.99,19.49,2.93C394.11,553.82,413.96,591.15,403.23,626.26z"/>
</g>
<g>
	<path style="fill:#BEECF7;" d="M577.83,487.79c-0.26,0.24,3.58-3.11,11.27-8.31c7.65-5.2,19.06-12.27,33.56-19.25
		c14.44-7.07,32.02-13.94,51.46-19.13c19.4-5.33,40.71-8.59,62.11-9.38c21.4-0.84,42.9,0.88,62.69,4.56
		c2.48,0.45,4.93,0.84,7.37,1.35c2.4,0.56,4.8,1.13,7.15,1.69c4.73,1.13,9.36,2.12,13.77,3.55c4.43,1.33,8.78,2.53,12.92,3.86
		c4.11,1.46,8.09,2.89,11.89,4.24c1.89,0.69,3.79,1.29,5.59,2.04c1.78,0.75,3.53,1.48,5.23,2.19c3.41,1.43,6.64,2.78,9.68,4.05
		c0.75,0.32,1.5,0.64,2.23,0.94c0.24,0.13,0.51,0.24,0.75,0.36c0.23,0.11,0.45,0.23,0.68,0.32c0.43,0.21,0.83,0.39,1.18,0.58
		c1.44,0.69,2.25,1.09,2.25,1.09l-9.38,20.02c5.33-0.62,10.75-1.2,16.28-1.74c5.44-0.32,10.96-0.56,16.56-0.77
		c2.8-0.09,5.65-0.21,8.48-0.26l8.44,0.13c5.67,0.11,11.42,0.28,17.26,0.51c-2.66-5.05-5.42-10.15-8.25-15.31l-4.31-7.77
		c-1.5-2.53-3.08-5.01-4.63-7.52c-3.15-5.03-6.38-10.11-9.72-15.21c-3.47-4.9-7.03-9.83-10.71-14.82l-9.38,20.02
		c0,0-0.88-0.43-2.42-1.16c-0.38-0.19-0.81-0.39-1.28-0.62c-0.23-0.11-0.47-0.23-0.71-0.36c-0.26-0.13-0.53-0.26-0.79-0.38
		c-0.79-0.34-1.58-0.68-2.4-1.01c-3.25-1.37-6.72-2.81-10.35-4.35c-1.82-0.77-3.7-1.54-5.61-2.34c-1.91-0.79-3.96-1.44-5.98-2.19
		c-4.09-1.46-8.37-2.98-12.77-4.54c-4.46-1.43-9.15-2.74-13.92-4.16c-4.75-1.52-9.77-2.61-14.88-3.83c-2.55-0.6-5.14-1.2-7.75-1.82
		c-2.63-0.54-5.29-0.98-7.97-1.46c-21.46-3.98-44.85-5.87-68.17-4.95c-23.32,0.88-46.54,4.45-67.63,10.22
		c-21.12,5.65-40.2,13.11-55.9,20.8c-15.76,7.58-28.21,15.29-36.75,21.09c-8.54,5.78-13.19,9.75-13.45,9.98L577.83,487.79z"/>
</g>
<g>
	<path style="fill:#BEECF7;" d="M1456.41,1301.18c-0.26,0.24,3.58-3.11,11.27-8.31c7.65-5.2,19.06-12.27,33.56-19.25
		c14.44-7.07,32.02-13.94,51.46-19.13c19.4-5.33,40.71-8.59,62.11-9.38c21.4-0.84,42.9,0.88,62.69,4.56
		c2.48,0.45,4.93,0.84,7.37,1.35c2.4,0.56,4.8,1.13,7.17,1.69c4.73,1.13,9.36,2.12,13.77,3.55c4.43,1.33,8.78,2.53,12.93,3.86
		c4.11,1.46,8.09,2.89,11.89,4.24c1.89,0.69,3.79,1.29,5.59,2.04c1.78,0.75,3.55,1.48,5.23,2.19c3.41,1.43,6.64,2.78,9.68,4.05
		c0.75,0.32,1.5,0.64,2.23,0.94c0.24,0.13,0.51,0.24,0.75,0.36c0.23,0.11,0.45,0.23,0.68,0.32c0.43,0.21,0.83,0.39,1.18,0.58
		c1.44,0.69,2.25,1.09,2.25,1.09l-9.38,20.02c5.33-0.62,10.75-1.22,16.28-1.74c5.44-0.32,10.96-0.56,16.56-0.77
		c2.8-0.09,5.65-0.21,8.48-0.26l8.44,0.13c5.67,0.11,11.42,0.28,17.26,0.51c-2.66-5.05-5.42-10.15-8.25-15.31l-4.31-7.77
		c-1.5-2.53-3.08-5.01-4.63-7.52c-3.15-5.03-6.38-10.11-9.72-15.21c-3.47-4.9-7.03-9.83-10.71-14.82l-9.38,20.02
		c0,0-0.88-0.43-2.42-1.16c-0.38-0.19-0.81-0.39-1.28-0.62c-0.23-0.11-0.47-0.23-0.71-0.36c-0.26-0.13-0.53-0.26-0.79-0.38
		c-0.79-0.34-1.58-0.68-2.4-1.01c-3.25-1.37-6.72-2.81-10.35-4.35c-1.82-0.77-3.7-1.54-5.61-2.34c-1.91-0.79-3.96-1.44-5.98-2.19
		c-4.09-1.46-8.37-2.98-12.78-4.54c-4.46-1.43-9.15-2.74-13.92-4.16c-4.75-1.52-9.77-2.61-14.88-3.83c-2.55-0.6-5.14-1.2-7.75-1.82
		c-2.63-0.54-5.29-0.98-7.97-1.46c-21.46-3.98-44.85-5.87-68.17-4.95c-23.32,0.88-46.54,4.45-67.63,10.22
		c-21.12,5.65-40.2,13.11-55.9,20.8c-15.76,7.58-28.21,15.29-36.75,21.09c-8.54,5.78-13.19,9.75-13.45,9.98L1456.41,1301.18z"/>
</g>
<g>
	<g>
		<path style="fill:#BEECF7;" d="M1367.16,850.81c0.28,0.23,4.93,4.2,13.45,9.98c8.54,5.8,20.99,13.51,36.75,21.09
			c15.7,7.69,34.78,15.14,55.9,20.8c21.09,5.78,44.31,9.34,67.63,10.22c23.32,0.92,46.71-0.98,68.17-4.95
			c2.68-0.49,5.36-0.92,7.97-1.46c2.61-0.62,5.2-1.22,7.75-1.82c5.1-1.2,10.13-2.31,14.88-3.83c4.78-1.43,9.45-2.74,13.92-4.16
			c4.41-1.58,8.69-3.1,12.77-4.54c2.04-0.75,4.07-1.41,5.98-2.19c1.91-0.81,3.79-1.58,5.61-2.34c3.64-1.54,7.11-2.98,10.36-4.35
			c0.81-0.34,1.61-0.68,2.4-1.01c0.26-0.13,0.53-0.26,0.79-0.38c0.24-0.11,0.49-0.24,0.71-0.36c0.47-0.23,0.88-0.43,1.28-0.62
			c1.54-0.75,2.42-1.16,2.42-1.16l9.38,20.02c3.68-4.97,7.24-9.92,10.71-14.82c3.34-5.1,6.57-10.19,9.72-15.21
			c1.56-2.53,3.13-4.99,4.63-7.52l4.31-7.77c2.83-5.16,5.57-10.24,8.25-15.31c-5.83,0.23-11.57,0.38-17.26,0.51l-8.44,0.13
			c-2.83-0.04-5.68-0.15-8.48-0.24c-5.61-0.21-11.14-0.45-16.56-0.77c-5.53-0.54-10.96-1.13-16.28-1.74l9.38,20.02
			c0,0-0.83,0.39-2.25,1.09c-0.36,0.17-0.75,0.38-1.18,0.58c-0.23,0.11-0.45,0.21-0.68,0.32c-0.24,0.11-0.49,0.24-0.75,0.36
			c-0.73,0.32-1.48,0.62-2.23,0.94c-3.04,1.28-6.27,2.63-9.68,4.05c-1.71,0.71-3.45,1.44-5.23,2.19c-1.8,0.75-3.68,1.33-5.59,2.04
			c-3.81,1.35-7.79,2.78-11.89,4.24c-4.15,1.31-8.5,2.53-12.93,3.86c-4.41,1.43-9.06,2.42-13.77,3.55
			c-2.36,0.56-4.75,1.13-7.17,1.69c-2.42,0.51-4.9,0.88-7.37,1.35c-19.79,3.66-41.29,5.4-62.69,4.56
			c-21.4-0.81-42.71-4.07-62.11-9.38c-19.43-5.2-37.01-12.06-51.46-19.13c-14.5-6.98-25.91-14.05-33.56-19.25
			c-7.69-5.22-11.54-8.55-11.27-8.31L1367.16,850.81z"/>
	</g>
</g>
<g>
	<path style="fill:#BEECF7;" d="M557.77,1516.89c0.28,0.23,4.93,4.2,13.45,9.98c8.54,5.8,20.99,13.51,36.75,21.09
		c15.7,7.69,34.78,15.14,55.9,20.8c21.09,5.78,44.31,9.34,67.63,10.22c23.32,0.92,46.71-0.98,68.17-4.95
		c2.68-0.49,5.37-0.92,7.97-1.46c2.61-0.62,5.2-1.22,7.75-1.82c5.1-1.22,10.13-2.31,14.88-3.83c4.78-1.43,9.45-2.74,13.92-4.16
		c4.41-1.58,8.69-3.1,12.77-4.54c2.04-0.75,4.07-1.41,5.98-2.19c1.91-0.81,3.79-1.58,5.61-2.34c3.64-1.54,7.11-2.98,10.35-4.35
		c0.81-0.34,1.61-0.68,2.4-1.01c0.26-0.13,0.53-0.26,0.79-0.38c0.24-0.11,0.49-0.24,0.71-0.36c0.47-0.23,0.88-0.43,1.28-0.62
		c1.54-0.75,2.42-1.16,2.42-1.16l9.38,20.02c3.68-4.97,7.24-9.92,10.71-14.82c3.34-5.1,6.57-10.19,9.72-15.21
		c1.56-2.51,3.13-4.99,4.63-7.52l4.31-7.77c2.83-5.16,5.57-10.24,8.25-15.31c-5.83,0.23-11.57,0.38-17.26,0.51l-8.44,0.13
		c-2.83-0.04-5.68-0.15-8.48-0.24c-5.61-0.21-11.14-0.45-16.56-0.77c-5.53-0.54-10.96-1.13-16.28-1.74l9.38,20.02
		c0,0-0.83,0.39-2.25,1.09c-0.36,0.17-0.75,0.38-1.18,0.58c-0.23,0.11-0.45,0.21-0.68,0.32c-0.24,0.11-0.49,0.24-0.75,0.36
		c-0.73,0.32-1.48,0.62-2.23,0.94c-3.04,1.28-6.27,2.63-9.68,4.05c-1.71,0.71-3.45,1.44-5.23,2.19c-1.8,0.75-3.68,1.33-5.59,2.04
		c-3.81,1.35-7.78,2.78-11.89,4.24c-4.15,1.31-8.48,2.53-12.93,3.86c-4.41,1.43-9.06,2.42-13.77,3.55
		c-2.36,0.56-4.75,1.13-7.15,1.69c-2.42,0.51-4.9,0.88-7.37,1.33c-19.79,3.66-41.29,5.4-62.69,4.56
		c-21.4-0.81-42.71-4.07-62.11-9.38c-19.43-5.2-37.01-12.06-51.46-19.13c-14.5-6.98-25.91-14.05-33.56-19.25
		c-7.69-5.22-11.54-8.55-11.27-8.31L557.77,1516.89z"/>
</g>
<g>
	<path style="fill:#BEECF7;" d="M1900.97,871.91c0.08-0.13-0.61,1.07-2.13,3.45c-1.52,2.38-3.87,5.95-7.18,10.54
		c-6.59,9.17-16.86,22.45-31.66,38.19c-14.8,15.72-34.08,33.97-58.67,52.43c-24.57,18.44-54.4,37.12-89.54,53.33
		c-35.14,16.15-75.54,29.71-119.87,38.49c-44.3,8.84-92.42,12.76-142.15,11.39c-49.75-1.35-101.01-7.99-152.09-18.74
		c-25.56-5.31-51.01-11.95-76.34-19.25c-6.32-1.89-12.67-3.62-18.95-5.65c-6.29-1.99-12.57-3.98-18.86-5.98
		c-6.27-2.03-12.51-4.22-18.76-6.34l-18.93-6.45c-25.39-8.85-51.26-16.88-77.52-23.77c-26.25-6.87-53.01-12.46-80.02-15.95
		c-27.01-3.53-54.19-4.86-80.86-4.33c-26.67,0.51-52.78,2.72-78.15,5.53c-12.63,1.31-25.45,3.04-37.94,5.01
		c-12.51,2.04-24.84,4.43-36.95,7.13c-24.17,5.53-47.52,12.29-69.5,20.56c-21.98,8.27-42.8,17.69-61.83,28.48
		c-19.07,10.73-36.53,22.53-52.08,35.06c-15.58,12.51-29.28,25.74-41.12,39.13c-11.85,13.39-21.83,26.94-30.3,40.09
		c-2.06,3.32-4.11,6.58-6.08,9.79c-0.46,0.81-0.91,1.59-1.35,2.38c-0.13,0.21-0.23,0.43-0.36,0.62c-0.23,0.39-0.42,0.77-0.61,1.09
		c-0.74,1.33-1.16,2.08-1.16,2.08l-19.26-8.59c0.55,21.42,3.41,42,7.98,61.59c16.82-13.36,34.38-25.02,52.38-34.63l-19.26-8.59
		c0,0,0.4-0.71,1.09-1.95c0.17-0.32,0.36-0.66,0.57-1.03c0.11-0.19,0.21-0.38,0.34-0.58c0.4-0.73,0.82-1.48,1.24-2.23
		c1.87-3,3.77-6.06,5.71-9.15c15.77-24.59,37.43-50.52,66.57-73.85c14.53-11.69,30.82-22.72,48.72-32.79
		c17.85-10.11,37.47-18.98,58.27-26.83c20.8-7.84,42.99-14.26,66.06-19.53c11.56-2.57,23.33-4.86,35.31-6.81
		c12.02-1.89,24.06-3.53,36.59-4.82c24.91-2.76,50.17-4.9,75.66-5.37c25.47-0.51,51.18,0.77,76.82,4.11
		c25.66,3.32,51.26,8.65,76.65,15.29c25.39,6.66,50.63,14.46,75.58,23.17l18.93,6.45c6.38,2.16,12.74,4.39,19.14,6.47
		c6.42,2.04,12.86,4.07,19.28,6.12c6.4,2.06,12.93,3.85,19.39,5.78c25.92,7.47,51.98,14.28,78.25,19.72
		c52.46,11.05,105.37,17.93,156.99,19.32c51.58,1.43,101.81-2.65,148.19-11.89c46.42-9.17,88.88-23.43,125.79-40.41
		c36.93-17.03,68.27-36.67,94.06-56.03c25.81-19.4,46.06-38.55,61.64-55.1c15.58-16.58,26.46-30.61,33.52-40.46
		c3.54-4.93,6.11-8.82,7.81-11.5c1.71-2.68,2.57-4.18,2.65-4.31L1900.97,871.91z"/>
</g>
<path style="fill:#0F0B2C;" d="M1211.95,548.41v-71.06h-96.14v71.06h-80.25l129.02,130.13l0,0l19.38-18.14
	c29.81-29.77,55.56-55.4,86.54-86.35c0.21-0.21,0.41-0.41,0.6-0.64l25.04-25.01L1211.95,548.41L1211.95,548.41z"/>
<rect x="1142.54" y="1325.15" style="fill:#0F0B2C;" width="34.16" height="167.29"/>
<rect x="1257.81" y="1343.48" style="fill:#0F0B2C;" width="34.16" height="149.42"/>
<g>
	<path style="fill:#0F0B2C;" d="M323.61,805.7h-14.46l-2.74,8.24h-8.76l14.89-40.01h7.63l14.97,40.01h-8.76L323.61,805.7z
		 M311.4,799.02h10l-5.03-14.97L311.4,799.02z"/>
	<path style="fill:#0F0B2C;" d="M347.14,799.84v14.09h-8.24v-40.01h15.61c2.36,0,4.46,0.34,6.34,0.99c1.86,0.66,3.43,1.58,4.73,2.76
		s2.27,2.59,2.95,4.2c0.68,1.63,1.01,3.38,1.01,5.29c0,1.95-0.34,3.7-1.01,5.25c-0.68,1.56-1.67,2.89-2.95,3.98
		c-1.29,1.11-2.87,1.95-4.73,2.55s-3.98,0.9-6.34,0.9H347.14z M347.14,793.16h7.37c1.18,0,2.18-0.15,3.04-0.43
		c0.84-0.3,1.54-0.69,2.08-1.22c0.54-0.53,0.94-1.14,1.2-1.88s0.39-1.54,0.39-2.38c0-0.84-0.13-1.69-0.39-2.49
		c-0.26-0.79-0.66-1.5-1.2-2.12c-0.54-0.62-1.24-1.11-2.08-1.46c-0.86-0.38-1.86-0.54-3.04-0.54h-7.37V793.16z"/>
	<path style="fill:#0F0B2C;" d="M383.96,813.95h-8.24v-40.01h8.24V813.95z"/>
</g>
<g>
	<path style="fill:#0F0B2C;" d="M1145.8,808.88c-0.47,0.56-1.13,1.18-1.95,1.82c-0.83,0.64-1.86,1.26-3.11,1.82
		s-2.72,1.03-4.41,1.41c-1.69,0.38-3.64,0.56-5.83,0.56c-2.59,0-4.93-0.43-7.07-1.28c-2.14-0.84-3.96-2.1-5.48-3.75
		c-1.52-1.65-2.7-3.68-3.53-6.08c-0.83-2.4-1.26-5.14-1.26-8.24v-2.36c0-3.1,0.39-5.85,1.2-8.25c0.81-2.4,1.93-4.45,3.38-6.08
		c1.46-1.65,3.23-2.91,5.29-3.77c2.06-0.86,4.37-1.29,6.9-1.29c2.61,0,4.86,0.32,6.75,0.98s3.49,1.56,4.76,2.74
		c1.28,1.18,2.27,2.57,2.98,4.2s1.18,3.41,1.41,5.37h-8.03c-0.17-1.01-0.41-1.91-0.77-2.74c-0.36-0.81-0.83-1.5-1.43-2.08
		s-1.35-1.01-2.23-1.33c-0.88-0.32-1.95-0.47-3.17-0.47c-2.81,0-4.97,1.07-6.43,3.21s-2.19,5.29-2.19,9.49v2.42
		c0,4.2,0.79,7.37,2.38,9.51s3.92,3.21,7.02,3.21c0.99,0,1.86-0.06,2.59-0.19c0.73-0.13,1.37-0.28,1.88-0.49
		c0.53-0.19,0.96-0.39,1.31-0.64c0.36-0.23,0.64-0.45,0.84-0.68V799h-7.5v-6.08h15.74v15.96H1145.8z"/>
	<path style="fill:#0F0B2C;" d="M1176.55,796.62h-15.83v10.71h18.57v6.62h-26.83v-40.01h26.77v6.68h-18.52v9.53h15.83
		L1176.55,796.62L1176.55,796.62z"/>
	<path style="fill:#0F0B2C;" d="M1214.8,780.61h-12.25v33.33h-8.24v-33.33h-12.1v-6.68h32.58L1214.8,780.61L1214.8,780.61z"/>
</g>
<g>
	<path style="fill:#0F0B2C;" d="M1854.54,813.95v-40.01h12.31c2.7,0,5.16,0.47,7.41,1.39c2.25,0.92,4.16,2.23,5.78,3.9
		c1.59,1.67,2.85,3.68,3.75,6.02c0.9,2.34,1.35,4.95,1.35,7.8v1.82c0,2.85-0.45,5.46-1.33,7.78c-0.88,2.34-2.14,4.33-3.77,6.02
		c-1.61,1.67-3.56,2.96-5.82,3.88s-4.73,1.37-7.45,1.37h-12.23V813.95z M1862.78,780.61v26.71h3.98c3.26,0,5.74-1.07,7.45-3.23
		c1.71-2.16,2.55-5.23,2.55-9.21v-1.88c0-4.07-0.84-7.15-2.53-9.25c-1.69-2.1-4.15-3.15-7.39-3.15H1862.78z"/>
	<path style="fill:#0F0B2C;" d="M1913.13,805.7h-14.46l-2.74,8.24h-8.76l14.89-40.01h7.64l14.97,40.01h-8.76L1913.13,805.7z
		 M1900.89,799.02h10l-5.03-14.97L1900.89,799.02z"/>
	<path style="fill:#0F0B2C;" d="M1955.22,780.61h-12.25v33.33h-8.24v-33.33h-12.1v-6.68h32.58L1955.22,780.61L1955.22,780.61z"/>
	<path style="fill:#0F0B2C;" d="M1979.21,805.7h-14.46l-2.74,8.24h-8.76l14.89-40.01h7.63l14.97,40.01h-8.76L1979.21,805.7z
		 M1966.98,799.02h10l-5.03-14.97L1966.98,799.02z"/>
	<path style="fill:#0F0B2C;" d="M1994.48,813.95v-40.01h14.01c2.33,0,4.41,0.23,6.25,0.66c1.84,0.43,3.38,1.11,4.65,2.03
		c1.28,0.9,2.25,2.04,2.91,3.41c0.68,1.37,0.99,3,0.99,4.86c0,0.92-0.11,1.8-0.34,2.65c-0.23,0.84-0.58,1.63-1.05,2.36
		s-1.05,1.41-1.78,1.99c-0.71,0.6-1.56,1.09-2.55,1.46c1.18,0.3,2.18,0.73,3,1.33c0.83,0.6,1.52,1.29,2.06,2.08s0.94,1.65,1.18,2.57
		s0.38,1.88,0.38,2.85c0,3.88-1.26,6.81-3.75,8.8c-2.49,1.97-6.06,2.96-10.67,2.96L1994.48,813.95L1994.48,813.95z M2002.74,790.71
		h6.1c2.1-0.04,3.68-0.49,4.69-1.33c1.03-0.84,1.54-2.06,1.54-3.64c0-1.82-0.53-3.11-1.58-3.92c-1.05-0.81-2.72-1.2-4.99-1.2h-5.78
		v10.09H2002.74z M2002.74,796.52v10.81h7.05c1.07,0,1.97-0.13,2.74-0.39c0.77-0.26,1.41-0.64,1.93-1.11
		c0.51-0.47,0.9-1.01,1.14-1.65s0.38-1.33,0.38-2.08c0-0.86-0.11-1.63-0.34-2.33s-0.56-1.28-1.03-1.76
		c-0.47-0.49-1.07-0.86-1.82-1.11c-0.75-0.24-1.65-0.39-2.7-0.39h-7.35V796.52z"/>
	<path style="fill:#0F0B2C;" d="M2052.99,805.7h-14.46l-2.74,8.24h-8.76l14.89-40.01h7.64l14.97,40.01h-8.76L2052.99,805.7z
		 M2040.76,799.02h10l-5.03-14.97L2040.76,799.02z"/>
	<path style="fill:#0F0B2C;" d="M2089.01,803.44c0-0.69-0.09-1.33-0.3-1.88c-0.21-0.56-0.58-1.07-1.16-1.56
		c-0.58-0.47-1.37-0.94-2.38-1.41c-1.01-0.45-2.33-0.94-3.94-1.46c-1.84-0.58-3.56-1.24-5.18-1.97c-1.63-0.73-3.04-1.59-4.26-2.59
		c-1.22-0.99-2.18-2.16-2.89-3.45s-1.05-2.81-1.05-4.56c0-1.67,0.36-3.19,1.09-4.58c0.73-1.39,1.74-2.57,3.06-3.53
		c1.31-0.98,2.87-1.73,4.67-2.27s3.79-0.81,5.95-0.81c2.21,0,4.24,0.3,6.04,0.92c1.82,0.62,3.36,1.46,4.65,2.57s2.27,2.4,2.96,3.92
		c0.69,1.52,1.05,3.17,1.05,4.95h-8.24c0-0.84-0.13-1.61-0.39-2.34c-0.26-0.73-0.68-1.33-1.22-1.84c-0.54-0.51-1.24-0.92-2.06-1.2
		s-1.8-0.43-2.91-0.43c-1.09,0-2.03,0.11-2.81,0.36c-0.79,0.24-1.46,0.56-1.97,0.99c-0.53,0.41-0.92,0.92-1.18,1.48
		c-0.26,0.56-0.39,1.18-0.39,1.82c0,1.31,0.68,2.42,2.03,3.32c1.35,0.88,3.32,1.73,5.93,2.49c2.18,0.68,4.09,1.43,5.76,2.25
		c1.65,0.83,3.04,1.76,4.15,2.8c1.11,1.03,1.95,2.21,2.51,3.53c0.56,1.31,0.84,2.78,0.84,4.43c0,1.76-0.34,3.32-1.03,4.69
		s-1.67,2.53-2.93,3.47c-1.26,0.94-2.79,1.67-4.58,2.18c-1.78,0.51-3.77,0.75-5.98,0.75c-1.31,0-2.65-0.11-3.96-0.34
		c-1.31-0.23-2.59-0.58-3.77-1.05c-1.2-0.47-2.31-1.07-3.34-1.78c-1.03-0.71-1.91-1.56-2.68-2.53c-0.77-0.98-1.35-2.08-1.78-3.32
		s-0.64-2.61-0.64-4.11h8.27c0,1.2,0.19,2.23,0.58,3.08s0.92,1.52,1.61,2.04c0.69,0.53,1.52,0.9,2.49,1.14
		c0.98,0.24,2.04,0.36,3.25,0.36c1.07,0,1.99-0.11,2.78-0.34s1.44-0.54,1.95-0.96c0.51-0.41,0.9-0.88,1.14-1.44
		C2088.9,804.7,2089.01,804.08,2089.01,803.44z"/>
	<path style="fill:#0F0B2C;" d="M2126.94,796.62h-15.83v10.71h18.57v6.62h-26.83v-40.01h26.77v6.68h-18.52v9.53h15.83V796.62
		L2126.94,796.62z"/>
</g>
<g>
	<path style="fill:#0F0B2C;" d="M281.09,1571.42h-14.46l-2.74,8.24h-8.76l14.89-40.01h7.63l14.97,40.01h-8.76L281.09,1571.42z
		 M268.85,1564.74h10l-5.03-14.97L268.85,1564.74z"/>
	<path style="fill:#0F0B2C;" d="M305.12,1579.66h-8.24v-40.01h8.24V1579.66z"/>
	<path style="fill:#0F0B2C;" d="M327.57,1565.01H321v14.65h-8.24v-40.01h14.86c2.31,0,4.37,0.26,6.21,0.79
		c1.84,0.53,3.38,1.29,4.65,2.31c1.26,1.01,2.23,2.27,2.91,3.77s1.01,3.25,1.01,5.22c0,1.46-0.17,2.78-0.49,3.94
		c-0.34,1.16-0.81,2.19-1.43,3.11c-0.62,0.9-1.37,1.71-2.25,2.38s-1.88,1.26-2.96,1.76l8.65,16.36v0.39h-8.85L327.57,1565.01z
		 M321,1558.33h6.64c1.09,0,2.03-0.15,2.85-0.43c0.83-0.28,1.5-0.69,2.03-1.2c0.54-0.53,0.96-1.14,1.22-1.88
		c0.26-0.73,0.41-1.54,0.41-2.44c0-1.89-0.54-3.38-1.61-4.45c-1.07-1.09-2.72-1.61-4.93-1.61h-6.62v12.01H321z"/>
	<path style="fill:#0F0B2C;" d="M381.48,1560.56c0,3.73-0.6,6.98-1.82,9.74c-1.2,2.76-2.89,4.97-5.03,6.64l6.64,5.22l-5.25,4.65
		l-8.52-6.85c-0.98,0.17-1.97,0.24-3.02,0.24c-2.51,0-4.8-0.45-6.9-1.35c-2.08-0.9-3.88-2.19-5.4-3.88
		c-1.52-1.69-2.68-3.73-3.53-6.17c-0.84-2.44-1.26-5.18-1.26-8.24v-1.76c0-3.04,0.41-5.78,1.26-8.22c0.84-2.44,2.01-4.5,3.51-6.21
		s3.3-3,5.38-3.92c2.08-0.9,4.39-1.35,6.9-1.35s4.8,0.45,6.9,1.35c2.08,0.9,3.88,2.21,5.38,3.92s2.66,3.77,3.51,6.21
		c0.83,2.44,1.26,5.18,1.26,8.22v1.76H381.48z M373.14,1558.74c0-4.2-0.75-7.39-2.25-9.57c-1.5-2.18-3.64-3.26-6.43-3.26
		c-2.8,0-4.93,1.09-6.43,3.26c-1.5,2.18-2.25,5.36-2.25,9.57v1.82c0,2.08,0.19,3.94,0.58,5.53s0.96,2.95,1.71,4.03
		c0.75,1.09,1.65,1.91,2.74,2.48c1.09,0.56,2.33,0.84,3.71,0.84c2.78,0,4.91-1.11,6.4-3.3c1.48-2.19,2.23-5.4,2.23-9.59
		L373.14,1558.74L373.14,1558.74z"/>
</g>
<g>
	<path style="fill:#0F0B2C;" d="M1101.25,1572.45c0-0.69-0.09-1.33-0.3-1.88c-0.21-0.56-0.58-1.07-1.16-1.56
		c-0.58-0.47-1.37-0.94-2.38-1.41c-1.01-0.45-2.33-0.94-3.94-1.46c-1.84-0.58-3.56-1.24-5.18-1.97c-1.63-0.73-3.04-1.59-4.26-2.59
		s-2.18-2.16-2.89-3.45c-0.71-1.29-1.05-2.81-1.05-4.56c0-1.67,0.36-3.19,1.09-4.58s1.74-2.57,3.06-3.53
		c1.31-0.98,2.87-1.73,4.67-2.27c1.8-0.54,3.79-0.81,5.95-0.81c2.21,0,4.24,0.3,6.04,0.92c1.82,0.62,3.36,1.46,4.65,2.57
		c1.29,1.11,2.27,2.4,2.96,3.92s1.05,3.17,1.05,4.95h-8.24c0-0.84-0.13-1.61-0.39-2.34c-0.26-0.73-0.68-1.33-1.22-1.84
		c-0.54-0.51-1.24-0.92-2.06-1.2c-0.83-0.28-1.8-0.43-2.91-0.43c-1.09,0-2.03,0.11-2.81,0.36c-0.79,0.24-1.46,0.56-1.97,0.99
		c-0.53,0.41-0.92,0.92-1.18,1.48c-0.26,0.56-0.39,1.18-0.39,1.82c0,1.31,0.68,2.42,2.03,3.32c1.35,0.88,3.32,1.73,5.93,2.49
		c2.18,0.68,4.09,1.43,5.76,2.25c1.65,0.83,3.04,1.76,4.15,2.8c1.11,1.03,1.95,2.21,2.51,3.53c0.56,1.31,0.84,2.78,0.84,4.43
		c0,1.76-0.34,3.32-1.03,4.69s-1.67,2.53-2.93,3.47s-2.8,1.67-4.58,2.18c-1.78,0.51-3.77,0.75-5.98,0.75
		c-1.31,0-2.65-0.11-3.96-0.34c-1.31-0.23-2.59-0.58-3.77-1.05c-1.2-0.47-2.31-1.07-3.34-1.78s-1.91-1.56-2.68-2.53
		c-0.77-0.98-1.35-2.08-1.78-3.32c-0.43-1.24-0.64-2.61-0.64-4.11h8.27c0,1.2,0.19,2.23,0.58,3.08c0.39,0.84,0.92,1.52,1.61,2.04
		c0.69,0.53,1.52,0.9,2.49,1.14s2.04,0.36,3.25,0.36c1.07,0,1.99-0.11,2.78-0.34c0.79-0.23,1.44-0.54,1.95-0.96
		c0.51-0.41,0.9-0.88,1.14-1.44C1101.14,1573.69,1101.25,1573.09,1101.25,1572.45z"/>
	<path style="fill:#0F0B2C;" d="M1145.22,1549.62h-12.25v33.33h-8.24v-33.33h-12.1v-6.68h32.58L1145.22,1549.62L1145.22,1549.62z"/>
	<path style="fill:#0F0B2C;" d="M1169.22,1574.7h-14.46l-2.74,8.24h-8.76l14.89-40.01h7.63l14.97,40.01h-8.76L1169.22,1574.7z
		 M1156.98,1568.03h10l-5.03-14.97L1156.98,1568.03z"/>
	<path style="fill:#0F0B2C;" d="M1211.31,1549.62h-12.25v33.33h-8.24v-33.33h-12.1v-6.68h32.58L1211.31,1549.62L1211.31,1549.62z"/>
	<path style="fill:#0F0B2C;" d="M1236.32,1572.45c0-0.69-0.09-1.33-0.3-1.88c-0.21-0.56-0.58-1.07-1.16-1.56
		c-0.58-0.47-1.37-0.94-2.38-1.41c-1.01-0.45-2.33-0.94-3.94-1.46c-1.84-0.58-3.56-1.24-5.18-1.97c-1.63-0.73-3.04-1.59-4.26-2.59
		s-2.18-2.16-2.89-3.45c-0.71-1.29-1.05-2.81-1.05-4.56c0-1.67,0.36-3.19,1.09-4.58c0.73-1.39,1.74-2.57,3.06-3.53
		c1.31-0.98,2.87-1.73,4.67-2.27c1.8-0.54,3.79-0.81,5.95-0.81c2.21,0,4.24,0.3,6.04,0.92c1.82,0.62,3.36,1.46,4.65,2.57
		c1.29,1.11,2.27,2.4,2.96,3.92c0.69,1.52,1.05,3.17,1.05,4.95h-8.24c0-0.84-0.13-1.61-0.39-2.34c-0.26-0.73-0.68-1.33-1.22-1.84
		c-0.54-0.51-1.24-0.92-2.06-1.2c-0.83-0.28-1.8-0.43-2.91-0.43c-1.09,0-2.03,0.11-2.81,0.36c-0.79,0.24-1.46,0.56-1.97,0.99
		c-0.53,0.41-0.92,0.92-1.18,1.48s-0.39,1.18-0.39,1.82c0,1.31,0.68,2.42,2.03,3.32c1.35,0.88,3.32,1.73,5.93,2.49
		c2.18,0.68,4.09,1.43,5.76,2.25c1.65,0.83,3.04,1.76,4.15,2.8c1.11,1.03,1.95,2.21,2.51,3.53c0.56,1.31,0.84,2.78,0.84,4.43
		c0,1.76-0.34,3.32-1.03,4.69s-1.67,2.53-2.93,3.47s-2.8,1.67-4.58,2.18s-3.77,0.75-5.98,0.75c-1.31,0-2.64-0.11-3.96-0.34
		c-1.31-0.23-2.59-0.58-3.77-1.05c-1.2-0.47-2.31-1.07-3.34-1.78s-1.91-1.56-2.68-2.53c-0.77-0.98-1.35-2.08-1.78-3.32
		c-0.43-1.24-0.64-2.61-0.64-4.11h8.27c0,1.2,0.19,2.23,0.58,3.08c0.39,0.84,0.92,1.52,1.61,2.04s1.52,0.9,2.49,1.14
		c0.98,0.24,2.04,0.36,3.25,0.36c1.07,0,1.99-0.11,2.78-0.34s1.44-0.54,1.95-0.96c0.51-0.41,0.9-0.88,1.14-1.44
		C1236.2,1573.69,1236.32,1573.09,1236.32,1572.45z"/>
</g>
<g>
	<path style="fill:#0F0B2C;" d="M1924.16,1574.7h-14.46l-2.74,8.24h-8.76l14.89-40.01h7.63l14.97,40.01h-8.76L1924.16,1574.7z
		 M1911.92,1568.03h10l-5.03-14.97L1911.92,1568.03z"/>
	<path style="fill:#0F0B2C;" d="M1947.68,1576.34h17.5v6.62h-25.76v-40.01h8.25V1576.34z"/>
	<path style="fill:#0F0B2C;" d="M1993.98,1565.62h-15.83v10.71h18.57v6.62h-26.83v-40.01h26.77v6.68h-18.52v9.53h15.83
		L1993.98,1565.62L1993.98,1565.62z"/>
	<path style="fill:#0F0B2C;" d="M2016.37,1568.31h-6.57v14.65h-8.24v-40.01h14.86c2.31,0,4.37,0.26,6.21,0.79s3.38,1.29,4.65,2.31
		c1.26,1.01,2.23,2.27,2.91,3.77s1.01,3.25,1.01,5.22c0,1.46-0.17,2.78-0.49,3.94c-0.34,1.16-0.81,2.19-1.43,3.11
		c-0.62,0.9-1.37,1.71-2.25,2.38s-1.88,1.26-2.96,1.76l8.65,16.36v0.39h-8.85L2016.37,1568.31z M2009.81,1561.63h6.64
		c1.09,0,2.03-0.15,2.85-0.43c0.83-0.28,1.5-0.69,2.03-1.2c0.54-0.53,0.96-1.14,1.22-1.88c0.26-0.73,0.41-1.54,0.41-2.44
		c0-1.89-0.54-3.38-1.61-4.45c-1.07-1.09-2.72-1.61-4.93-1.61h-6.62v12.01H2009.81z"/>
	<path style="fill:#0F0B2C;" d="M2066.22,1549.62h-12.25v33.33h-8.24v-33.33h-12.1v-6.68h32.58V1549.62L2066.22,1549.62z"/>
</g>
</svg>
